<?xml version="1.0" encoding="UTF-8"?>
<svg version="1.1" xmlns="http://www.w3.org/2000/svg" width="714" height="524">
<path d="M0 0 C0.81104187 0.00182281 1.62208374 0.00364563 2.45770264 0.00552368 C15.12583684 0.05335677 27.45929768 0.58859271 39.875 3.3125 C41.05835938 3.56990967 41.05835938 3.56990967 42.265625 3.83251953 C59.73800191 7.77437231 76.34843779 13.99702264 92.15136719 22.39990234 C93.69798567 23.21877768 95.25837156 24.01152462 96.8203125 24.80078125 C104.7122102 28.88478079 111.78962039 33.98579775 118.875 39.3125 C119.76703125 39.97636719 120.6590625 40.64023437 121.578125 41.32421875 C135.68699033 52.33865503 148.54684693 65.69612553 158.875 80.3125 C159.61492187 81.35792969 160.35484375 82.40335937 161.1171875 83.48046875 C177.30233681 107.58539752 188.34035703 134.59093828 192.875 163.3125 C193.04636475 164.36630859 193.04636475 164.36630859 193.22119141 165.44140625 C196.21983901 184.73936947 196.12282392 205.05786301 192.875 224.3125 C192.75141113 225.0765918 192.62782227 225.84068359 192.50048828 226.62792969 C184.37222355 275.59456691 156.49902678 322.11163459 116 351.1875 C72.47052409 381.61744222 19.8563239 394.96758435 -32.85449219 385.83984375 C-71.13799996 378.77211924 -105.55162178 361.55942115 -133.69287109 334.67724609 C-135.07199053 333.36301533 -136.46735213 332.06589339 -137.86328125 330.76953125 C-170.50487074 299.54508747 -192.2105207 251.41762827 -193.32081604 206.24650574 C-193.67357762 187.29257402 -193.60522821 168.84714274 -189.125 150.3125 C-188.91069336 149.41337891 -188.69638672 148.51425781 -188.47558594 147.58789062 C-182.24269523 122.23898721 -171.07285673 98.00517361 -155.125 77.3125 C-154.45855469 76.43464844 -153.79210937 75.55679688 -153.10546875 74.65234375 C-147.82204611 67.86244623 -142.01306997 61.57526534 -136.125 55.3125 C-135.54234375 54.67570312 -134.9596875 54.03890625 -134.359375 53.3828125 C-100.51946206 17.6629044 -48.22491516 -0.22569681 0 0 Z M-53.5390625 102.19140625 C-56.42167252 106.04671965 -58.83814382 110.08086585 -61.125 114.3125 C-61.58003906 115.13234375 -62.03507813 115.9521875 -62.50390625 116.796875 C-70.32532188 132.20623117 -70.92565261 150.26416974 -65.9375 166.625 C-59.8046417 185.1664071 -48.10464703 199.40900294 -30.59667969 208.27416992 C-12.51596741 216.92377921 6.96474624 217.96576074 25.875 211.3125 C43.45149665 203.6935036 56.90899182 190.75287294 64.875 173.3125 C66.47715659 169.03390842 67.7945099 164.75044523 68.875 160.3125 C69.06578125 159.53648437 69.2565625 158.76046875 69.453125 157.9609375 C72.37567556 139.61381453 68.15770912 121.65948869 57.875 106.3125 C55.1093433 102.69851243 52.13218068 99.48515177 48.875 96.3125 C48.21242188 95.61769531 47.54984375 94.92289063 46.8671875 94.20703125 C34.76628902 82.31318237 17.03200534 76.47302367 0.3125 75.8125 C-20.18293721 76.62823879 -40.42823497 86.40301535 -53.5390625 102.19140625 Z M-88.125 272.3125 C-88.94613281 273.07046875 -89.76726562 273.8284375 -90.61328125 274.609375 C-102.07381206 285.51737633 -114.79194058 301.90059547 -119.125 317.3125 C-118.06006418 321.46656264 -114.49841577 323.87313891 -111.3125 326.5 C-110.73282471 326.98194824 -110.15314941 327.46389648 -109.5559082 327.96044922 C-90.22142805 343.81592531 -69.00428486 354.29392641 -45.125 361.3125 C-44.073125 361.62316406 -43.02125 361.93382812 -41.9375 362.25390625 C-39.01255889 363.04746272 -36.09516314 363.70839902 -33.125 364.3125 C-32.12871582 364.51552734 -32.12871582 364.51552734 -31.11230469 364.72265625 C-7.96525909 369.25608732 14.89175797 368.16475845 37.875 363.3125 C38.62281738 363.16296875 39.37063477 363.0134375 40.14111328 362.859375 C68.21276617 357.16997596 95.52625724 342.58893524 116.48828125 323.1953125 C117.16286377 322.57285645 117.83744629 321.95040039 118.5324707 321.30908203 C120.14184197 319.36180685 120.14184197 319.36180685 119.67797852 316.78613281 C110.38270963 288.15139145 85.59206929 264.23870107 59.5078125 250.6015625 C42.73793899 242.16384603 24.71421577 237.03708522 5.875 236.3125 C4.78058594 236.25255859 4.78058594 236.25255859 3.6640625 236.19140625 C-30.53318608 235.1993359 -63.59560681 248.78348989 -88.125 272.3125 Z " fill="#030303" transform="translate(352.125,9.6875)"/>
<path d="M0 0 C1.48831242 0.00667405 2.97660807 0.01863442 4.46484375 0.03515625 C5.22345703 0.03966797 5.98207031 0.04417969 6.76367188 0.04882812 C8.64326246 0.06064945 10.52281274 0.07858547 12.40234375 0.09765625 C14.68517606 6.89557395 16.96336417 13.69503489 19.23828125 20.49560547 C20.01324505 22.81041973 20.78928388 25.12487436 21.56640625 27.43896484 C22.68119483 30.75915788 23.79215087 34.08061165 24.90234375 37.40234375 C25.25232422 38.44196259 25.60230469 39.48158142 25.96289062 40.55270386 C26.28322266 41.51354889 26.60355469 42.47439392 26.93359375 43.46435547 C27.21783203 44.31262909 27.50207031 45.16090271 27.79492188 46.03488159 C28.40234375 48.09765625 28.40234375 48.09765625 28.40234375 50.09765625 C31.49891968 49.45565793 31.49891968 49.45565793 32.36380005 47.20655823 C32.77564041 45.96651283 32.77564041 45.96651283 33.19580078 44.70141602 C33.51267853 43.76697159 33.82955627 42.83252716 34.15603638 41.86976624 C34.48739594 40.853134 34.81875549 39.83650177 35.16015625 38.7890625 C35.68293655 37.23347878 35.68293655 37.23347878 36.21627808 35.64646912 C37.33119704 32.32132842 38.42960949 28.99100522 39.52734375 25.66015625 C40.63577308 22.3341488 41.74747154 19.00924929 42.85983276 15.68455505 C43.55181229 13.61222546 44.24079176 11.53889132 44.92654419 9.4644928 C45.23711761 8.52689621 45.54769104 7.58929962 45.86767578 6.62329102 C46.14064484 5.79579849 46.41361389 4.96830597 46.69485474 4.11573792 C47.40234375 2.09765625 47.40234375 2.09765625 48.40234375 0.09765625 C53.68234375 0.09765625 58.96234375 0.09765625 64.40234375 0.09765625 C67.49209448 16.27428388 70.37695665 32.48425215 73.1652832 48.71530151 C73.53107793 50.84183885 73.89858575 52.96808223 74.26782227 55.09402466 C74.79299862 58.12173249 75.31145312 61.15051827 75.828125 64.1796875 C75.98726883 65.09123596 76.14641266 66.00278442 76.31037903 66.94195557 C76.52666206 68.22329376 76.52666206 68.22329376 76.74731445 69.53051758 C76.87435257 70.27070633 77.00139069 71.01089508 77.13227844 71.77351379 C77.45271374 74.53113301 77.40234375 77.32148217 77.40234375 80.09765625 C72.45234375 80.09765625 67.50234375 80.09765625 62.40234375 80.09765625 C60.10626312 70.60450418 58.31383778 61.11474723 56.77734375 51.47265625 C56.35072706 48.81328527 55.92025629 46.15460684 55.48828125 43.49609375 C55.30313965 42.33770996 55.11799805 41.17932617 54.92724609 39.98583984 C54.46281556 37.04324667 54.46281556 37.04324667 53.40234375 34.09765625 C53.21664322 34.64445038 53.03094269 35.19124451 52.83961487 35.75460815 C50.91098531 41.43252954 48.98036895 47.10977251 47.04858398 52.78662109 C46.32736783 54.90688936 45.60666284 57.02733158 44.88647461 59.14794922 C43.85273613 62.19153711 42.81717633 65.23449994 41.78125 68.27734375 C41.4583046 69.22946747 41.13535919 70.18159119 40.80262756 71.16256714 C40.50239182 72.04332916 40.20215607 72.92409119 39.89282227 73.83154297 C39.62856949 74.60875702 39.36431671 75.38597107 39.09205627 76.18673706 C38.40234375 78.09765625 38.40234375 78.09765625 37.40234375 80.09765625 C32.45234375 80.09765625 27.50234375 80.09765625 22.40234375 80.09765625 C20.40471529 74.15410439 18.41098401 68.20926531 16.42089844 62.26318359 C15.74294037 60.23938452 15.06390716 58.21594529 14.38378906 56.19287109 C13.40799511 53.28967071 12.43603907 50.38521021 11.46484375 47.48046875 C11.15861084 46.57209259 10.85237793 45.66371643 10.53686523 44.72781372 C10.25657471 43.8870932 9.97628418 43.04637268 9.6875 42.18017578 C9.4387915 41.43849152 9.19008301 40.69680725 8.93383789 39.93264771 C8.40234375 38.09765625 8.40234375 38.09765625 8.40234375 36.09765625 C7.41234375 36.09765625 6.42234375 36.09765625 5.40234375 36.09765625 C5.36568604 36.69231689 5.32902832 37.28697754 5.29125977 37.8996582 C4.61984532 46.81893014 2.98615022 55.50706911 1.33984375 64.28515625 C1.05488338 65.82478562 0.77037491 67.3644987 0.48632812 68.90429688 C-0.20230774 72.63658279 -0.90015313 76.36697441 -1.59765625 80.09765625 C-6.54765625 80.09765625 -11.49765625 80.09765625 -16.59765625 80.09765625 C-17.65371621 75.87341641 -17.28499652 72.94113684 -16.53369141 68.7746582 C-16.34612526 67.67891479 -16.34612526 67.67891479 -16.1547699 66.56103516 C-15.74009628 64.15120423 -15.31364118 61.74362612 -14.88671875 59.3359375 C-14.59561975 57.66263618 -14.3051312 55.98922856 -14.01522827 54.3157196 C-13.40650778 50.81202716 -12.79228848 47.30935911 -12.17382812 43.80737305 C-11.379641 39.30932387 -10.59625142 34.80947949 -9.81656837 30.30889606 C-9.21760019 26.8554988 -8.61444131 23.40284469 -8.0098381 19.95042992 C-7.71941846 18.29072976 -7.42997189 16.63085903 -7.14149857 14.97081947 C-6.73851776 12.65730177 -6.33026734 10.34477871 -5.92041016 8.0324707 C-5.80087479 7.34104477 -5.68133942 6.64961884 -5.55818176 5.9372406 C-4.51706206 0.12261298 -4.51706206 0.12261298 0 0 Z " fill="#101010" transform="translate(31.59765625,436.90234375)"/>
<path d="M0 0 C0.55945313 0.3609375 1.11890625 0.721875 1.6953125 1.09375 C2.0253125 -0.22625 2.3553125 -1.54625 2.6953125 -2.90625 C7.9753125 -2.90625 13.2553125 -2.90625 18.6953125 -2.90625 C18.6953125 16.89375 18.6953125 36.69375 18.6953125 57.09375 C13.4153125 57.09375 8.1353125 57.09375 2.6953125 57.09375 C2.2003125 55.11375 2.2003125 55.11375 1.6953125 53.09375 C0.98181641 53.63515625 0.98181641 53.63515625 0.25390625 54.1875 C-6.93207534 58.95168669 -13.88346376 59.1902167 -22.3046875 58.09375 C-30.73319828 55.65362337 -36.1627485 50.28680644 -40.62109375 42.91796875 C-44.71303513 34.43467565 -44.71534661 23.27363753 -42.3671875 14.21875 C-39.53267767 7.28551233 -33.72586398 0.96455457 -27.1171875 -2.53125 C-17.81850417 -5.92884583 -8.44659289 -4.88870328 0 0 Z M-24.1171875 15.71875 C-26.91615993 19.4445345 -27.97365885 23.48417609 -28.3046875 28.09375 C-27.41855784 33.31206913 -25.38033896 34.9586335 -21.3046875 38.09375 C-21.1603125 38.795 -21.0159375 39.49625 -20.8671875 40.21875 C-20.6815625 40.8375 -20.4959375 41.45625 -20.3046875 42.09375 C-15.58017659 44.51362144 -11.31184088 44.44568141 -6.3046875 43.09375 C-1.46570527 40.76731623 0.88255365 38.03866503 3 33.234375 C4.68586625 28.04418002 4.26068704 23.81350736 2.0703125 18.84375 C-0.385269 14.4735018 -3.32569742 11.9674253 -8.22265625 10.53125 C-14.73574974 9.32185546 -19.26795093 11.19279587 -24.1171875 15.71875 Z " fill="#0F0F0F" transform="translate(334.3046875,459.90625)"/>
<path d="M0 0 C6.56902538 5.13622502 10.76938366 12.21372209 11.86328125 20.52734375 C11.86328125 23.82734375 11.86328125 27.12734375 11.86328125 30.52734375 C-3.97671875 30.52734375 -19.81671875 30.52734375 -36.13671875 30.52734375 C-31.59567926 38.71618223 -31.59567926 38.71618223 -24.13671875 42.0234375 C-17.67728617 43.11122389 -11.7395498 41.90210508 -6.234375 38.2734375 C-4.13671875 37.52734375 -4.13671875 37.52734375 -1.33984375 38.42578125 C0.12195313 39.15667969 0.12195313 39.15667969 1.61328125 39.90234375 C2.598125 40.38445312 3.58296875 40.8665625 4.59765625 41.36328125 C5.71914063 41.93949219 5.71914063 41.93949219 6.86328125 42.52734375 C6.52005575 45.37949934 6.27559924 47.08109435 4.296875 49.22265625 C3.63816406 49.69445312 2.97945312 50.16625 2.30078125 50.65234375 C1.66011719 51.12929688 1.01945313 51.60625 0.359375 52.09765625 C-5.9815568 55.72955146 -11.73111933 57.06468484 -19.01171875 56.96484375 C-20.19580322 56.95130859 -20.19580322 56.95130859 -21.40380859 56.9375 C-30.04045425 56.68165203 -36.1021337 54.71907588 -42.51171875 48.77734375 C-49.93971087 40.7341038 -51.52133691 32.85453482 -51.41015625 22.13671875 C-50.7350633 13.22549185 -46.68449209 6.47986497 -40.13671875 0.52734375 C-28.40541038 -8.28758329 -11.9746196 -8.2530742 0 0 Z M-24.13671875 9.52734375 C-25.65265625 10.02234375 -25.65265625 10.02234375 -27.19921875 10.52734375 C-30.21727609 11.31356266 -30.21727609 11.31356266 -32.13671875 13.52734375 C-31.81630478 16.13014943 -31.81630478 16.13014943 -31.13671875 18.52734375 C-29.85796875 18.54796875 -28.57921875 18.56859375 -27.26171875 18.58984375 C-26.54242187 18.60144531 -25.823125 18.61304688 -25.08203125 18.625 C-23.05486471 18.65383617 -23.05486471 18.65383617 -21.13671875 17.52734375 C-17.57421875 17.40234375 -17.57421875 17.40234375 -14.13671875 17.52734375 C-13.80671875 17.85734375 -13.47671875 18.18734375 -13.13671875 18.52734375 C-11.13713511 18.56815158 -9.13626621 18.56988731 -7.13671875 18.52734375 C-6.47671875 17.20734375 -5.81671875 15.88734375 -5.13671875 14.52734375 C-9.5542043 10.37488029 -9.5542043 10.37488029 -15.13671875 8.52734375 C-16.14734375 8.30046875 -17.15796875 8.07359375 -18.19921875 7.83984375 C-21.32461554 7.19066986 -21.32461554 7.19066986 -24.13671875 9.52734375 Z " fill="#131313" transform="translate(693.13671875,461.47265625)"/>
<path d="M0 0 C1.33402432 0.73295252 2.6488545 1.50241787 3.9375 2.3125 C4.55882812 2.65152344 5.18015625 2.99054688 5.8203125 3.33984375 C12.33730762 7.30364381 15.59399435 13.89266745 18.3125 20.8125 C20.12623379 30.96940923 18.6287517 39.16911524 13.3125 48 C8.7700385 54.46340293 2.50870898 58.27445227 -5.0625 60.3125 C-16.45918703 61.3281633 -25.21818856 60.42215574 -34.3125 53.0625 C-40.54086247 47.26925267 -43.66876395 41.59889064 -44.30078125 33.11328125 C-44.51131751 23.21807703 -43.17176094 15.9791462 -37.0625 8.0625 C-27.50978222 -1.87394217 -12.90288262 -5.35051276 0 0 Z M-21.0625 14.3125 C-24.55282534 17.59797554 -27.85253162 21.01317411 -28.30078125 25.921875 C-28.50421646 34.34190455 -28.50421646 34.34190455 -24.0625 41.3125 C-20.7655019 44.70108138 -17.95334416 46.04047805 -13.18359375 46.41015625 C-8.06743408 46.17460562 -4.24502522 44.52614431 -0.6875 40.875 C2.92409243 35.17979656 3.61943201 31.04657857 2.9375 24.3125 C1.27804502 19.59615428 -0.78815357 16.91427609 -5.0625 14.3125 C-10.75455319 12.23682647 -15.43160755 11.65641865 -21.0625 14.3125 Z " fill="#121212" transform="translate(516.0625,457.6875)"/>
<path d="M0 0 C4.91627063 2.73746887 8.47198686 6.89997432 10.5 12.1484375 C11.3910559 17.94287843 11.64747011 23.57028388 11.6328125 29.42578125 C11.63376923 30.27773575 11.63472595 31.12969025 11.63571167 32.00746155 C11.63638748 33.79151484 11.63457532 35.57557068 11.63037109 37.35961914 C11.62496751 40.10243131 11.63036003 42.84508317 11.63671875 45.58789062 C11.63605877 47.3255212 11.63477928 49.06315167 11.6328125 50.80078125 C11.63483673 51.62360092 11.63686096 52.44642059 11.63894653 53.29417419 C11.61498198 59.03345552 11.61498198 59.03345552 10.5 60.1484375 C7.96950598 60.22157317 5.46695163 60.24091277 2.9375 60.2109375 C2.22658203 60.20642578 1.51566406 60.20191406 0.78320312 60.19726562 C-0.97790013 60.18544614 -2.73896036 60.16751013 -4.5 60.1484375 C-4.51458252 59.06425537 -4.52916504 57.98007324 -4.54418945 56.86303711 C-4.60243472 52.81665086 -4.6796647 48.77080591 -4.76245117 44.72485352 C-4.79557767 42.97819851 -4.82364737 41.23143962 -4.84643555 39.48461914 C-4.88020881 36.9645588 -4.93253347 34.44543998 -4.98828125 31.92578125 C-4.99467117 31.15258041 -5.0010611 30.37937958 -5.00764465 29.58274841 C-5.14568701 24.42039976 -6.11176086 20.74755851 -8.5 16.1484375 C-10.98795899 14.08943696 -12.20338696 14.13581567 -15.4375 14.2734375 C-19.01700628 15.29615358 -20.87322459 16.52166209 -23.5 19.1484375 C-25.7755451 23.47177385 -25.84154556 27.73018453 -25.9140625 32.51171875 C-25.93342865 33.30370163 -25.9527948 34.09568451 -25.9727478 34.91166687 C-26.03227232 37.42798269 -26.07881958 39.94434494 -26.125 42.4609375 C-26.16320481 44.1725454 -26.20225799 45.88413459 -26.2421875 47.59570312 C-26.33954035 51.7798476 -26.41932217 55.96380565 -26.5 60.1484375 C-31.78 60.1484375 -37.06 60.1484375 -42.5 60.1484375 C-42.5 40.3484375 -42.5 20.5484375 -42.5 0.1484375 C-37.55 0.1484375 -32.6 0.1484375 -27.5 0.1484375 C-26.84 1.4684375 -26.18 2.7884375 -25.5 4.1484375 C-25.01273438 3.7875 -24.52546875 3.4265625 -24.0234375 3.0546875 C-16.7044062 -1.73595117 -8.38711501 -2.85686105 0 0 Z " fill="#111111" transform="translate(188.5,456.8515625)"/>
<path d="M0 0 C3.15620801 2.33368108 4.31043674 4.41285265 5.5625 8.125 C4.0118684 9.16377263 2.44640319 10.18042555 0.875 11.1875 C0.00488281 11.75597656 -0.86523438 12.32445312 -1.76171875 12.91015625 C-4.90552056 14.33748817 -6.21142188 14.21311787 -9.4375 13.125 C-10.159375 12.63 -10.88125 12.135 -11.625 11.625 C-16.32807929 9.11669105 -21.44452842 8.5430333 -26.6875 9.5625 C-31.28829889 11.09609963 -34.39008321 13.27091406 -37.4375 17.125 C-39.79538859 21.94795393 -39.70393439 26.02760159 -38.4375 31.125 C-36.46772505 35.68658409 -33.82699942 37.84896326 -29.4375 40.125 C-22.75797611 42.00601535 -16.74023484 40.8295762 -10.4375 38.125 C-9.7775 37.465 -9.1175 36.805 -8.4375 36.125 C-4.44087989 36.4406994 -1.86501907 37.9146508 1.375 40.1875 C2.16519531 40.73535156 2.95539063 41.28320312 3.76953125 41.84765625 C4.36121094 42.26917969 4.95289063 42.69070313 5.5625 43.125 C2.80765569 49.36931377 -3.07612731 52.6982303 -9.15234375 55.27734375 C-18.39596814 57.66244065 -30.72094777 57.72540887 -39.36328125 53.45703125 C-47.29297355 48.36470531 -52.83793273 42.33271098 -55.4375 33.125 C-56.61763066 22.48112922 -55.79062829 14.07267296 -49.4375 5.125 C-37.45156485 -8.67698593 -14.6183787 -10.0924038 0 0 Z " fill="#131313" transform="translate(420.4375,461.875)"/>
<path d="M0 0 C4.14114738 2.35001697 6.28147094 4.6609432 8.4375 8.875 C5.4675 11.845 2.4975 14.815 -0.5625 17.875 C-2.89620533 16.70814734 -5.21689454 15.51299451 -7.5 14.25 C-10.53567175 12.88704533 -12.29480026 12.58667355 -15.5625 12.875 C-15.70881751 15.24259451 -15.70881751 15.24259451 -14.5625 17.875 C-12.0054279 19.73333728 -9.17515916 20.98999879 -6.3125 22.3125 C0.72099691 25.59203102 5.23318268 28.46636535 8.8125 35.625 C9.96506422 41.61833395 9.72103059 47.49356681 6.375 52.75 C2.17362278 57.74208585 -1.86073251 59.6051015 -8.35546875 60.25390625 C-16.71187884 60.62115624 -23.63984587 60.16560964 -30.14453125 54.49609375 C-31.33775365 53.34231672 -32.45977987 52.11556014 -33.5625 50.875 C-32.19879701 47.88279732 -30.61341917 45.58473471 -28.4375 43.125 C-27.89867187 42.51140625 -27.35984375 41.8978125 -26.8046875 41.265625 C-26.18980469 40.57726562 -26.18980469 40.57726562 -25.5625 39.875 C-23.01918822 40.43302621 -21.427024 40.96056379 -19.1875 42.375 C-16.19747927 44.08358328 -13.99219546 44.65608327 -10.5625 44.875 C-8.24269054 44.05157468 -8.24269054 44.05157468 -6.5625 42.875 C-6.93381336 40.46400642 -7.16760002 39.21112896 -9.05859375 37.6015625 C-9.69925781 37.23804688 -10.33992187 36.87453125 -11 36.5 C-11.71671875 36.07847656 -12.4334375 35.65695312 -13.171875 35.22265625 C-14.82642397 34.28994482 -16.48279951 33.36046891 -18.140625 32.43359375 C-24.25767972 28.92636028 -29.2324978 25.86500659 -31.5625 18.875 C-32.33495664 12.34077665 -31.50316541 8.16378778 -27.5625 2.875 C-19.49223953 -3.38356934 -9.33821928 -4.33560181 0 0 Z " fill="#141414" transform="translate(624.5625,458.125)"/>
<path d="M0 0 C3.29631427 2.01046754 6.05888873 4.24332416 8.4375 7.3125 C8.1229094 10.8230451 6.54425385 12.66430283 4.125 15.125 C3.53074219 15.75019531 2.93648437 16.37539063 2.32421875 17.01953125 C0.4375 18.3125 0.4375 18.3125 -1.6796875 18.10546875 C-3.5625 17.3125 -3.5625 17.3125 -5.375 15.8125 C-8.33167479 13.78506586 -11.04178577 13.65103021 -14.5625 13.3125 C-14.62795385 15.69034719 -14.62795385 15.69034719 -13.5625 18.3125 C-11.12858659 19.90641646 -8.92020834 21.14972084 -6.3125 22.375 C4.49476977 27.63287209 4.49476977 27.63287209 8.25 32.8125 C10.41054757 39.18042968 10.69634103 45.70157045 7.75 51.8125 C3.08011101 56.86102863 -1.03801228 59.92984133 -7.98046875 60.68359375 C-17.15856359 60.84528039 -24.22788097 59.94769121 -31.3203125 53.78515625 C-32.5625 52.3125 -32.5625 52.3125 -32.6875 50.0625 C-30.98381494 45.89793651 -27.85645038 43.29683625 -24.5625 40.3125 C-21.69422213 41.44242765 -18.94939964 42.61905018 -16.1875 44 C-12.10347414 45.47869902 -9.74914085 45.25235815 -5.5625 44.3125 C-5.711964 41.90690523 -5.711964 41.90690523 -6.5625 39.3125 C-8.56365586 37.58613352 -8.56365586 37.58613352 -11.125 36.3125 C-12.02734375 35.8071875 -12.9296875 35.301875 -13.859375 34.78125 C-14.75140625 34.2965625 -15.6434375 33.811875 -16.5625 33.3125 C-22.54697999 29.92817339 -27.39005872 26.65738255 -30.5625 20.3125 C-31.07572348 15.16343815 -31.18225846 10.70695654 -29.0625 5.9375 C-21.2509204 -2.26465858 -10.78320968 -4.99260562 0 0 Z " fill="#151515" transform="translate(574.5625,457.6875)"/>
<path d="M0 0 C5.28 0 10.56 0 16 0 C16 21.45 16 42.9 16 65 C23.26 65 30.52 65 38 65 C38 69.95 38 74.9 38 80 C25.46 80 12.92 80 0 80 C-1.38297872 22.0212766 -1.38297872 22.0212766 0 0 Z " fill="#0E0E0E" transform="translate(246,437)"/>
<path d="M0 0 C0.66 0.99 1.32 1.98 2 3 C1.390625 5.6640625 1.390625 5.6640625 0.25 8.625 C-0.11609375 9.60726563 -0.4821875 10.58953125 -0.859375 11.6015625 C-2 14 -2 14 -4 15 C-4.928125 14.6596875 -4.928125 14.6596875 -5.875 14.3125 C-8.12653577 13.73721084 -8.12653577 13.73721084 -10.125 15.4375 C-14.15943016 20.95122122 -14.30860626 27.82510852 -14.4140625 34.4375 C-14.43342865 35.20304199 -14.4527948 35.96858398 -14.4727478 36.75732422 C-14.53190946 39.17144075 -14.57867144 41.58560665 -14.625 44 C-14.66323837 45.64975889 -14.70229339 47.29949907 -14.7421875 48.94921875 C-14.83907568 52.96604124 -14.91914324 56.98269583 -15 61 C-20.28 61 -25.56 61 -31 61 C-31 41.2 -31 21.4 -31 1 C-26.38 1 -21.76 1 -17 1 C-16.67 2.32 -16.34 3.64 -16 5 C-15.21625 4.175 -14.4325 3.35 -13.625 2.5 C-9.63504036 -0.85996602 -5.00357712 -1.07990873 0 0 Z " fill="#161616" transform="translate(466,456)"/>
<path d="M0 0 C4.95 0 9.9 0 15 0 C16.04947033 13.06007522 15.93711546 25.91087195 15.5625 39 C15.50912204 41.04685832 15.45638354 43.09373342 15.40429688 45.140625 C15.27688423 50.09397387 15.14088401 55.04701673 15 60 C10.05 60 5.1 60 0 60 C0 40.2 0 20.4 0 0 Z " fill="#010101" transform="translate(118,457)"/>
<path d="M0 0 C3.70718433 0.81785983 5.13329673 2.33819937 7.16015625 5.4765625 C7.85163784 8.31106553 7.89721403 10.64831752 7.16015625 13.4765625 C4.72265625 16.4140625 4.72265625 16.4140625 2.16015625 18.4765625 C1.83015625 18.8065625 1.50015625 19.1365625 1.16015625 19.4765625 C-3.00385337 19.87694804 -5.16235071 19.91840578 -8.71484375 17.6015625 C-11.62695033 14.68945592 -11.8005268 13.8762848 -12.21484375 9.6640625 C-12.14775486 6.31571686 -11.81923122 5.44464632 -9.90234375 2.4765625 C-6.33149918 0.14458237 -4.19478356 -0.26611315 0 0 Z " fill="#1C1C1C" transform="translate(127.83984375,433.5234375)"/>
<path d="M0 0 C0.66 0.33 1.32 0.66 2 1 C-6.58 9.58 -15.16 18.16 -24 27 C-24.66 26.67 -25.32 26.34 -26 26 C-9.36764706 7.83823529 -9.36764706 7.83823529 0 0 Z " fill="#676767" transform="translate(230,52)"/>
<path d="M0 0 C0.66 0.33 1.32 0.66 2 1 C-1.63 4.63 -5.26 8.26 -9 12 C-9 8.47601214 -8.44884893 7.98495633 -6.1875 5.4375 C-5.40439453 4.53837891 -5.40439453 4.53837891 -4.60546875 3.62109375 C-3 2 -3 2 0 0 Z " fill="#656565" transform="translate(486,460)"/>
<path d="M0 0 C0.99 0.33 1.98 0.66 3 1 C-0.3 4.3 -3.6 7.6 -7 11 C-7 7.22089522 -6.00296038 6.53893899 -3.5 3.8125 C-2.8503125 3.09707031 -2.200625 2.38164062 -1.53125 1.64453125 C-1.0259375 1.10183594 -0.520625 0.55914062 0 0 Z " fill="#6C6C6C" transform="translate(599,498)"/>
<path d="M0 0 C0.66 0.33 1.32 0.66 2 1 C-1.3 4.3 -4.6 7.6 -8 11 C-8 6.67750434 -5.85084926 5.11604454 -3 2 C-2.01 1.34 -1.02 0.68 0 0 Z " fill="#646464" transform="translate(378,461)"/>
<path d="M0 0 C2.62901288 1.52206009 4.84365964 2.84365964 7 5 C6.625 7.125 6.625 7.125 6 9 C4.99406757 7.8803014 3.9954151 6.7540588 3 5.625 C2.443125 4.99851562 1.88625 4.37203125 1.3125 3.7265625 C0 2 0 2 0 0 Z " fill="#EBEBEB" transform="translate(307,493)"/>
<path d="M0 0 C0.66 0.33 1.32 0.66 2 1 C-0.64 3.64 -3.28 6.28 -6 9 C-6.33 8.34 -6.66 7.68 -7 7 C-2.25 1.125 -2.25 1.125 0 0 Z " fill="#686868" transform="translate(552,458)"/>
<path d="M0 0 C0.66 0.33 1.32 0.66 2 1 C-0.64 3.64 -3.28 6.28 -6 9 C-6 6 -6 6 -3.5625 3.375 C-2.716875 2.59125 -1.87125 1.8075 -1 1 C-0.67 0.67 -0.34 0.34 0 0 Z " fill="#747474" transform="translate(601,458)"/>
<path d="M0 0 C0.99 0.33 1.98 0.66 3 1 C1.50260417 2.23697917 0.00520833 3.47395833 -1.4921875 4.7109375 C-2.71051161 5.75250992 -3.86660097 6.86660097 -5 8 C-4.66275164 4.88045262 -4.3790035 3.3790035 -2.125 1.125 C-1.42375 0.75375 -0.7225 0.3825 0 0 Z " fill="#6C6C6C" transform="translate(121,434)"/>
</svg>
