<?xml version="1.0" encoding="UTF-8"?>
<!DOCTYPE svg PUBLIC "-//W3C//DTD SVG 1.1//EN" "http://www.w3.org/Graphics/SVG/1.1/DTD/svg11.dtd">
<svg xmlns="http://www.w3.org/2000/svg" version="1.1" width="714px" height="524px" style="shape-rendering:geometricPrecision; text-rendering:geometricPrecision; image-rendering:optimizeQuality; fill-rule:evenodd; clip-rule:evenodd" xmlns:xlink="http://www.w3.org/1999/xlink">
<g><path style="opacity:1" fill="#050505" d="M 458.5,40.5 C 459.035,42.4456 460.368,43.4456 462.5,43.5C 475.678,52.004 487.344,62.3373 497.5,74.5C 497.427,76.0269 498.094,77.0269 499.5,77.5C 502.55,79.5491 504.883,82.2157 506.5,85.5C 506.427,87.0269 507.094,88.0269 508.5,88.5C 508.427,90.0269 509.094,91.0269 510.5,91.5C 512.262,92.2623 513.262,93.5956 513.5,95.5C 513.427,97.0269 514.094,98.0269 515.5,98.5C 525.507,113.186 532.84,129.186 537.5,146.5C 537.41,149.152 538.076,151.485 539.5,153.5C 557.628,232.947 536.295,299.781 475.5,354C 423.67,393.866 366.004,406.033 302.5,390.5C 300.485,389.076 298.152,388.41 295.5,388.5C 280.02,384.59 265.687,378.256 252.5,369.5C 252.027,368.094 251.027,367.427 249.5,367.5C 249.027,366.094 248.027,365.427 246.5,365.5C 244.973,365.573 243.973,364.906 243.5,363.5C 243.027,362.094 242.027,361.427 240.5,361.5C 240.027,360.094 239.027,359.427 237.5,359.5C 237.027,358.094 236.027,357.427 234.5,357.5C 233.5,357.167 232.833,356.5 232.5,355.5C 232.027,354.094 231.027,353.427 229.5,353.5C 228.167,352.833 227.167,351.833 226.5,350.5C 225.738,348.738 224.404,347.738 222.5,347.5C 210.189,336.514 199.522,324.18 190.5,310.5C 190.715,308.821 190.048,307.821 188.5,307.5C 157.929,257.566 150.429,204.233 166,147.5C 170.708,131.426 177.541,116.426 186.5,102.5C 187.906,102.027 188.573,101.027 188.5,99.5C 189.906,99.0269 190.573,98.0269 190.5,96.5C 193.436,90.9586 197.103,85.9586 201.5,81.5C 203.262,80.7377 204.262,79.4044 204.5,77.5C 205.167,76.1667 206.167,75.1667 207.5,74.5C 210.243,72.7607 212.243,70.4274 213.5,67.5C 213.833,66.5 214.5,65.8333 215.5,65.5C 219.1,63.5698 222.1,60.9031 224.5,57.5C 224.5,56.8333 224.833,56.5 225.5,56.5C 228.089,55.5806 230.089,53.914 231.5,51.5C 238.132,45.5139 245.465,40.5139 253.5,36.5C 255.027,36.573 256.027,35.9063 256.5,34.5C 266.171,28.5001 276.504,23.8335 287.5,20.5C 292.165,19.9431 296.498,18.6098 300.5,16.5C 356.622,1.5199 409.289,9.5199 458.5,40.5 Z M 392.5,98.5 C 392.973,99.9063 393.973,100.573 395.5,100.5C 396.5,102.167 397.833,103.5 399.5,104.5C 400.167,105.833 401.167,106.833 402.5,107.5C 405.987,111.142 408.987,115.142 411.5,119.5C 411.932,120.71 412.599,121.71 413.5,122.5C 424.419,145.306 424.086,167.973 412.5,190.5C 411.094,190.973 410.427,191.973 410.5,193.5C 409.094,193.973 408.427,194.973 408.5,196.5C 383.799,224.756 354.132,231.423 319.5,216.5C 318.71,215.599 317.71,214.932 316.5,214.5C 311.963,211.737 307.63,208.737 303.5,205.5C 303.573,203.973 302.906,202.973 301.5,202.5C 277.391,172.528 276.557,141.862 299,110.5C 327.098,82.2881 358.265,78.2881 392.5,98.5 Z M 390.5,251.5 C 391.93,252.537 393.597,253.204 395.5,253.5C 401.944,255.888 408.277,258.555 414.5,261.5C 414.973,262.906 415.973,263.573 417.5,263.5C 417.842,264.338 418.508,264.672 419.5,264.5C 419.973,265.906 420.973,266.573 422.5,266.5C 426.809,269.802 431.143,273.136 435.5,276.5C 435.973,277.906 436.973,278.573 438.5,278.5C 448.36,288.021 456.694,298.687 463.5,310.5C 463.932,311.71 464.599,312.71 465.5,313.5C 466.99,317.813 468.99,321.813 471.5,325.5C 471.649,326.552 471.483,327.552 471,328.5C 468.628,330.703 466.461,333.037 464.5,335.5C 402.867,382.491 337.2,388.824 267.5,354.5C 266.71,353.599 265.71,352.932 264.5,352.5C 263.833,352.167 263.167,351.833 262.5,351.5C 261.71,350.599 260.71,349.932 259.5,349.5C 249.914,342.917 240.914,335.584 232.5,327.5C 255.696,275.88 295.696,248.547 352.5,245.5C 365.41,246.106 378.077,248.106 390.5,251.5 Z"/></g>
<g><path style="opacity:0.933" fill="#616161" d="M 300.5,16.5 C 296.498,18.6098 292.165,19.9431 287.5,20.5C 291.502,18.3902 295.835,17.0569 300.5,16.5 Z"/></g>
<g><path style="opacity:0.792" fill="#818181" d="M 256.5,34.5 C 256.027,35.9063 255.027,36.573 253.5,36.5C 253.973,35.0937 254.973,34.427 256.5,34.5 Z"/></g>
<g><path style="opacity:0.937" fill="#828282" d="M 458.5,40.5 C 460.23,41.0256 461.564,42.0256 462.5,43.5C 460.368,43.4456 459.035,42.4456 458.5,40.5 Z"/></g>
<g><path style="opacity:0.89" fill="#606060" d="M 231.5,51.5 C 230.089,53.914 228.089,55.5806 225.5,56.5C 226.911,54.086 228.911,52.4194 231.5,51.5 Z"/></g>
<g><path style="opacity:0.843" fill="#6a6a6a" d="M 224.5,57.5 C 222.1,60.9031 219.1,63.5698 215.5,65.5C 217.9,62.0969 220.9,59.4302 224.5,57.5 Z"/></g>
<g><path style="opacity:0.561" fill="#868686" d="M 213.5,67.5 C 212.243,70.4274 210.243,72.7607 207.5,74.5C 208.757,71.5726 210.757,69.2393 213.5,67.5 Z"/></g>
<g><path style="opacity:0.773" fill="#828282" d="M 497.5,74.5 C 498.906,74.9731 499.573,75.9731 499.5,77.5C 498.094,77.0269 497.427,76.0269 497.5,74.5 Z"/></g>
<g><path style="opacity:0.82" fill="#818181" d="M 204.5,77.5 C 204.262,79.4044 203.262,80.7377 201.5,81.5C 201.738,79.5956 202.738,78.2623 204.5,77.5 Z"/></g>
<g><path style="opacity:0.467" fill="#9d9d9d" d="M 506.5,85.5 C 507.906,85.9731 508.573,86.9731 508.5,88.5C 507.094,88.0269 506.427,87.0269 506.5,85.5 Z"/></g>
<g><path style="opacity:0.592" fill="#7d7d7d" d="M 508.5,88.5 C 509.906,88.9731 510.573,89.9731 510.5,91.5C 509.094,91.0269 508.427,90.0269 508.5,88.5 Z"/></g>
<g><path style="opacity:0.435" fill="#969696" d="M 513.5,95.5 C 514.906,95.9731 515.573,96.9731 515.5,98.5C 514.094,98.0269 513.427,97.0269 513.5,95.5 Z"/></g>
<g><path style="opacity:0.592" fill="#797979" d="M 190.5,96.5 C 190.573,98.0269 189.906,99.0269 188.5,99.5C 188.427,97.9731 189.094,96.9731 190.5,96.5 Z"/></g>
<g><path style="opacity:0.635" fill="#797979" d="M 392.5,98.5 C 394.027,98.427 395.027,99.0937 395.5,100.5C 393.973,100.573 392.973,99.9063 392.5,98.5 Z"/></g>
<g><path style="opacity:0.435" fill="#929292" d="M 188.5,99.5 C 188.573,101.027 187.906,102.027 186.5,102.5C 186.427,100.973 187.094,99.9731 188.5,99.5 Z"/></g>
<g><path style="opacity:0.663" fill="#a9a9a9" d="M 399.5,104.5 C 401.5,104.5 402.5,105.5 402.5,107.5C 401.167,106.833 400.167,105.833 399.5,104.5 Z"/></g>
<g><path style="opacity:0.945" fill="#7b7b7b" d="M 411.5,119.5 C 413.048,119.821 413.715,120.821 413.5,122.5C 412.599,121.71 411.932,120.71 411.5,119.5 Z"/></g>
<g><path style="opacity:0.969" fill="#5f5f5f" d="M 537.5,146.5 C 538.924,148.515 539.59,150.848 539.5,153.5C 538.076,151.485 537.41,149.152 537.5,146.5 Z"/></g>
<g><path style="opacity:0.494" fill="#8a8a8a" d="M 412.5,190.5 C 412.573,192.027 411.906,193.027 410.5,193.5C 410.427,191.973 411.094,190.973 412.5,190.5 Z"/></g>
<g><path style="opacity:0.62" fill="#7e7e7e" d="M 410.5,193.5 C 410.573,195.027 409.906,196.027 408.5,196.5C 408.427,194.973 409.094,193.973 410.5,193.5 Z"/></g>
<g><path style="opacity:0.678" fill="#979797" d="M 301.5,202.5 C 302.906,202.973 303.573,203.973 303.5,205.5C 302.094,205.027 301.427,204.027 301.5,202.5 Z"/></g>
<g><path style="opacity:0.922" fill="#7f7f7f" d="M 316.5,214.5 C 317.71,214.932 318.71,215.599 319.5,216.5C 317.821,216.715 316.821,216.048 316.5,214.5 Z"/></g>
<g><path style="opacity:0.929" fill="#767676" d="M 390.5,251.5 C 392.698,251.12 394.365,251.787 395.5,253.5C 393.597,253.204 391.93,252.537 390.5,251.5 Z"/></g>
<g><path style="opacity:0.435" fill="#919191" d="M 414.5,261.5 C 416.027,261.427 417.027,262.094 417.5,263.5C 415.973,263.573 414.973,262.906 414.5,261.5 Z"/></g>
<g><path style="opacity:0.361" fill="#a0a0a0" d="M 419.5,264.5 C 421.027,264.427 422.027,265.094 422.5,266.5C 420.973,266.573 419.973,265.906 419.5,264.5 Z"/></g>
<g><path style="opacity:0.663" fill="#999999" d="M 435.5,276.5 C 437.027,276.427 438.027,277.094 438.5,278.5C 436.973,278.573 435.973,277.906 435.5,276.5 Z"/></g>
<g><path style="opacity:0.949" fill="#777777" d="M 188.5,307.5 C 190.048,307.821 190.715,308.821 190.5,310.5C 189.599,309.71 188.932,308.71 188.5,307.5 Z"/></g>
<g><path style="opacity:0.945" fill="#7b7b7b" d="M 463.5,310.5 C 465.048,310.821 465.715,311.821 465.5,313.5C 464.599,312.71 463.932,311.71 463.5,310.5 Z"/></g>
<g><path style="opacity:0.969" fill="#575757" d="M 471.5,325.5 C 472.598,326.601 472.765,327.934 472,329.5C 469.894,332.118 467.394,334.118 464.5,335.5C 466.461,333.037 468.628,330.703 471,328.5C 471.483,327.552 471.649,326.552 471.5,325.5 Z"/></g>
<g><path style="opacity:0.827" fill="#868686" d="M 222.5,347.5 C 224.404,347.738 225.738,348.738 226.5,350.5C 224.596,350.262 223.262,349.262 222.5,347.5 Z"/></g>
<g><path style="opacity:0.937" fill="#7d7d7d" d="M 259.5,349.5 C 260.71,349.932 261.71,350.599 262.5,351.5C 260.821,351.715 259.821,351.048 259.5,349.5 Z"/></g>
<g><path style="opacity:0.82" fill="#7e7e7e" d="M 229.5,353.5 C 231.027,353.427 232.027,354.094 232.5,355.5C 230.973,355.573 229.973,354.906 229.5,353.5 Z"/></g>
<g><path style="opacity:0.925" fill="#7e7e7e" d="M 264.5,352.5 C 265.71,352.932 266.71,353.599 267.5,354.5C 265.821,354.715 264.821,354.048 264.5,352.5 Z"/></g>
<g><path style="opacity:0.424" fill="#a1a1a1" d="M 234.5,357.5 C 236.027,357.427 237.027,358.094 237.5,359.5C 235.973,359.573 234.973,358.906 234.5,357.5 Z"/></g>
<g><path style="opacity:0.514" fill="#8d8d8d" d="M 237.5,359.5 C 239.027,359.427 240.027,360.094 240.5,361.5C 238.973,361.573 237.973,360.906 237.5,359.5 Z"/></g>
<g><path style="opacity:0.6" fill="#7c7c7c" d="M 240.5,361.5 C 242.027,361.427 243.027,362.094 243.5,363.5C 241.973,363.573 240.973,362.906 240.5,361.5 Z"/></g>
<g><path style="opacity:0.518" fill="#878787" d="M 246.5,365.5 C 248.027,365.427 249.027,366.094 249.5,367.5C 247.973,367.573 246.973,366.906 246.5,365.5 Z"/></g>
<g><path style="opacity:0.435" fill="#979797" d="M 249.5,367.5 C 251.027,367.427 252.027,368.094 252.5,369.5C 250.973,369.573 249.973,368.906 249.5,367.5 Z"/></g>
<g><path style="opacity:0.941" fill="#656565" d="M 295.5,388.5 C 298.152,388.41 300.485,389.076 302.5,390.5C 299.848,390.59 297.515,389.924 295.5,388.5 Z"/></g>
<g><path style="opacity:0.999" fill="#171717" d="M 131.5,435.5 C 131.427,437.027 132.094,438.027 133.5,438.5C 134.634,440.966 134.801,443.633 134,446.5C 133.252,448.751 131.752,450.084 129.5,450.5C 125.2,451.736 121.2,451.069 117.5,448.5C 114.639,443.855 114.973,439.355 118.5,435C 123.051,432.865 127.385,433.032 131.5,435.5 Z"/></g>
<g><path style="opacity:0.999" fill="#131313" d="M 59.5,486.5 C 60.9486,492.817 62.2819,492.484 63.5,485.5C 68.624,469.461 73.9574,453.461 79.5,437.5C 84.7921,436.505 90.1254,436.172 95.5,436.5C 100.05,463.133 104.383,489.8 108.5,516.5C 103.025,517.081 97.8582,516.414 93,514.5C 90.2254,498.852 87.5587,483.186 85,467.5C 79.7961,483.612 74.2961,499.612 68.5,515.5C 63.544,516.494 58.544,516.827 53.5,516.5C 49.0354,501.773 44.3687,487.106 39.5,472.5C 37.9622,464.667 36.9622,464.667 36.5,472.5C 34.1667,487.167 31.8333,501.833 29.5,516.5C 24.4889,516.666 19.4889,516.499 14.5,516C 13.9781,515.439 13.6448,514.772 13.5,514C 18.2689,488.554 22.7689,463.054 27,437.5C 32.4066,436.527 37.9066,436.193 43.5,436.5C 48.6314,453.228 53.9647,469.894 59.5,486.5 Z"/></g>
<g><path style="opacity:0.999" fill="#121212" d="M 245.5,436.5 C 250.833,436.5 256.167,436.5 261.5,436.5C 261.5,458.167 261.5,479.833 261.5,501.5C 268.833,501.5 276.167,501.5 283.5,501.5C 283.5,506.5 283.5,511.5 283.5,516.5C 270.833,516.5 258.167,516.5 245.5,516.5C 245.031,489.803 245.031,463.137 245.5,436.5 Z"/></g>
<g><path style="opacity:0.565" fill="#878787" d="M 131.5,435.5 C 132.906,435.973 133.573,436.973 133.5,438.5C 132.094,438.027 131.427,437.027 131.5,435.5 Z"/></g>
<g><path style="opacity:0.149" fill="#d4d4d4" d="M 117.5,448.5 C 121.2,451.069 125.2,451.736 129.5,450.5C 129.389,451.117 129.056,451.617 128.5,452C 123.916,453.337 120.249,452.171 117.5,448.5 Z"/></g>
<g><path style="opacity:0.999" fill="#141414" d="M 193.5,461.5 C 193.427,463.027 194.094,464.027 195.5,464.5C 197.956,467.992 199.123,471.992 199,476.5C 199.667,489.5 199.667,502.5 199,515.5C 193.928,516.471 188.762,516.805 183.5,516.5C 183.667,504.162 183.5,491.829 183,479.5C 178.972,468.055 172.639,466.722 164,475.5C 163.138,477.087 162.471,478.754 162,480.5C 161.5,492.495 161.333,504.495 161.5,516.5C 156.167,516.5 150.833,516.5 145.5,516.5C 145.5,496.5 145.5,476.5 145.5,456.5C 150.695,456.179 155.695,456.513 160.5,457.5C 160.215,459.288 160.548,460.955 161.5,462.5C 162.107,462.376 162.44,462.043 162.5,461.5C 164.027,461.573 165.027,460.906 165.5,459.5C 169.132,456.199 173.465,454.866 178.5,455.5C 184.568,455.041 189.568,457.041 193.5,461.5 Z"/></g>
<g><path style="opacity:0.999" fill="#111111" d="M 334.5,460.5 C 334.75,461.922 335.583,462.922 337,463.5C 337.497,461.19 337.663,458.857 337.5,456.5C 342.5,456.5 347.5,456.5 352.5,456.5C 352.5,476.5 352.5,496.5 352.5,516.5C 347.5,516.5 342.5,516.5 337.5,516.5C 337.663,514.143 337.497,511.81 337,509.5C 336.283,510.044 335.783,510.711 335.5,511.5C 332.898,513.81 329.898,515.643 326.5,517C 321.5,517.667 316.5,517.667 311.5,517C 309.509,516.626 307.842,515.793 306.5,514.5C 306.027,513.094 305.027,512.427 303.5,512.5C 303.027,511.094 302.027,510.427 300.5,510.5C 291.473,501.754 288.306,491.088 291,478.5C 291.462,474.578 292.962,471.245 295.5,468.5C 296.906,468.027 297.573,467.027 297.5,465.5C 299.239,462.757 301.573,460.757 304.5,459.5C 306.027,459.573 307.027,458.906 307.5,457.5C 317.037,454.108 326.037,455.108 334.5,460.5 Z M 334.5,476.5 C 334.932,477.71 335.599,478.71 336.5,479.5C 339.143,497.86 331.476,505.193 313.5,501.5C 313.092,497.083 310.759,494.083 306.5,492.5C 304.213,480.073 309.213,472.406 321.5,469.5C 326.903,470.032 331.236,472.365 334.5,476.5 Z"/></g>
<g><path style="opacity:0.999" fill="#151515" d="M 421.5,463.5 C 421.427,465.027 422.094,466.027 423.5,466.5C 425.085,467.002 425.585,468.002 425,469.5C 421.885,471.307 418.719,472.973 415.5,474.5C 413.784,474.371 412.117,474.038 410.5,473.5C 400.586,467.649 391.419,468.649 383,476.5C 376.419,491.577 381.253,500.577 397.5,503.5C 401.584,502.751 405.584,501.751 409.5,500.5C 411.167,499.833 412.833,499.167 414.5,498.5C 418.025,499.759 421.025,501.759 423.5,504.5C 423.5,505.5 423.5,506.5 423.5,507.5C 413.766,517.012 402.1,520.179 388.5,517C 385.97,516.621 383.637,515.787 381.5,514.5C 381.027,513.094 380.027,512.427 378.5,512.5C 378.027,511.094 377.027,510.427 375.5,510.5C 365.745,502.067 362.245,491.4 365,478.5C 366.086,474.654 367.919,471.32 370.5,468.5C 371.906,468.027 372.573,467.027 372.5,465.5C 379.417,458.469 387.917,455.136 398,455.5C 407.077,454.913 414.91,457.58 421.5,463.5 Z"/></g>
<g><path style="opacity:0.999" fill="#181818" d="M 447.5,456.5 C 447.336,459.187 447.503,461.854 448,464.5C 449.481,463.529 450.315,462.196 450.5,460.5C 450.833,459.5 451.5,458.833 452.5,458.5C 454.027,458.573 455.027,457.906 455.5,456.5C 458.64,455.359 461.973,455.192 465.5,456C 466.167,456.667 466.833,457.333 467.5,458C 466.051,462.35 464.218,466.516 462,470.5C 456.975,468.009 453.642,469.675 452,475.5C 451.5,478.5 451,481.5 450.5,484.5C 450.726,495.119 450.726,505.785 450.5,516.5C 445.167,516.5 439.833,516.5 434.5,516.5C 434.5,496.5 434.5,476.5 434.5,456.5C 438.833,456.5 443.167,456.5 447.5,456.5 Z"/></g>
<g><path style="opacity:0.999" fill="#141414" d="M 524.5,463.5 C 524.427,465.027 525.094,466.027 526.5,466.5C 527.167,466.5 527.5,466.833 527.5,467.5C 527.427,469.027 528.094,470.027 529.5,470.5C 537.227,484.704 535.56,497.871 524.5,510C 515.662,517.021 505.662,519.354 494.5,517C 490.965,516.337 487.965,514.837 485.5,512.5C 484.738,510.738 483.404,509.738 481.5,509.5C 478.453,507.082 476.12,504.082 474.5,500.5C 474.405,498.214 473.738,496.214 472.5,494.5C 471.389,489.584 471.222,484.584 472,479.5C 472.805,475.224 474.638,471.557 477.5,468.5C 478.906,468.027 479.573,467.027 479.5,465.5C 481.749,464.92 483.415,463.587 484.5,461.5C 489.537,456.932 495.537,454.932 502.5,455.5C 510.98,455.214 518.313,457.88 524.5,463.5 Z M 493.5,500.5 C 492.5,498.833 491.167,497.5 489.5,496.5C 485.512,487.093 487.179,478.927 494.5,472C 505.437,467.553 513.271,470.72 518,481.5C 518.899,499.782 510.732,506.115 493.5,500.5 Z"/></g>
<g><path style="opacity:0.999" fill="#151515" d="M 574.5,474.5 C 572.5,473.5 570.5,472.5 568.5,471.5C 565.518,470.039 562.518,469.706 559.5,470.5C 557.481,471.538 557.147,472.872 558.5,474.5C 565.534,478.012 572.201,482.012 578.5,486.5C 578.427,488.027 579.094,489.027 580.5,489.5C 587.058,502.572 583.391,511.738 569.5,517C 564.5,517.667 559.5,517.667 554.5,517C 552.509,516.626 550.842,515.793 549.5,514.5C 549.027,513.094 548.027,512.427 546.5,512.5C 545.19,510.852 543.857,509.186 542.5,507.5C 543.952,506.06 544.952,504.394 545.5,502.5C 546.812,500.521 548.479,498.855 550.5,497.5C 554.689,500.769 559.356,502.602 564.5,503C 569.995,501.075 570.662,498.241 566.5,494.5C 566.027,493.094 565.027,492.427 563.5,492.5C 559.849,491.341 556.515,489.674 553.5,487.5C 552.738,485.738 551.404,484.738 549.5,484.5C 543.851,479.828 542.018,473.828 544,466.5C 544.278,465.584 544.778,464.918 545.5,464.5C 546.906,464.027 547.573,463.027 547.5,461.5C 549.404,461.262 550.738,460.262 551.5,458.5C 554.638,456.039 558.305,455.039 562.5,455.5C 571.299,455.065 577.966,458.565 582.5,466C 580.346,469.321 577.679,472.154 574.5,474.5 Z"/></g>
<g><path style="opacity:0.999" fill="#151515" d="M 627.5,460.5 C 627.738,462.404 628.738,463.738 630.5,464.5C 630.5,465.5 630.5,466.5 630.5,467.5C 628.188,470.479 625.521,473.146 622.5,475.5C 619.466,472.984 616.132,470.984 612.5,469.5C 611.264,470.246 609.93,470.579 608.5,470.5C 605.833,472.167 605.833,473.833 608.5,475.5C 615.866,478.509 622.532,482.509 628.5,487.5C 628.427,489.027 629.094,490.027 630.5,490.5C 636.139,503.066 632.472,511.899 619.5,517C 614.167,517.667 608.833,517.667 603.5,517C 601.509,516.626 599.842,515.793 598.5,514.5C 598.027,513.094 597.027,512.427 595.5,512.5C 593.521,511.188 591.855,509.521 590.5,507.5C 591.188,506.145 592.188,505.145 593.5,504.5C 595.587,503.415 596.92,501.749 597.5,499.5C 599.167,498.167 600.833,498.167 602.5,499.5C 605.592,501.377 608.925,502.711 612.5,503.5C 617.115,502.927 618.782,500.593 617.5,496.5C 617.5,494.5 616.5,493.5 614.5,493.5C 610.849,492.341 607.515,490.674 604.5,488.5C 604.027,487.094 603.027,486.427 601.5,486.5C 600.738,484.738 599.404,483.738 597.5,483.5C 592.385,478.056 591.218,471.723 594,464.5C 594.383,463.944 594.883,463.611 595.5,463.5C 597.167,462.5 598.5,461.167 599.5,459.5C 602.939,456.299 607.105,454.966 612,455.5C 617.824,455.275 622.99,456.942 627.5,460.5 Z"/></g>
<g><path style="opacity:0.999" fill="#111111" d="M 695.5,464.5 C 695.738,466.404 696.738,467.738 698.5,468.5C 698.427,470.027 699.094,471.027 700.5,471.5C 703.731,477.654 705.064,484.321 704.5,491.5C 688.486,491.167 672.486,491.501 656.5,492.5C 659.515,500.18 665.181,504.18 673.5,504.5C 677.733,503.756 681.733,502.422 685.5,500.5C 686.609,500.443 687.609,500.11 688.5,499.5C 692.953,500.223 696.62,502.223 699.5,505.5C 696.427,510.394 692.094,513.894 686.5,516C 679.233,517.515 671.899,517.848 664.5,517C 661.524,516.295 658.858,515.129 656.5,513.5C 656.027,512.094 655.027,511.427 653.5,511.5C 643.269,503.297 639.435,492.63 642,479.5C 642.379,476.97 643.213,474.637 644.5,472.5C 645.906,472.027 646.573,471.027 646.5,469.5C 647.906,469.027 648.573,468.027 648.5,466.5C 654.577,458.381 662.744,454.715 673,455.5C 682.069,454.905 689.569,457.905 695.5,464.5 Z M 677.5,469.5 C 679.595,474.032 678.261,477.032 673.5,478.5C 668.739,477.032 667.405,474.032 669.5,469.5C 672.167,468.167 674.833,468.167 677.5,469.5 Z"/></g>
<g><path style="opacity:0.998" fill="#020202" d="M 117.5,456.5 C 122.5,456.5 127.5,456.5 132.5,456.5C 132.744,476.464 132.744,496.464 132.5,516.5C 127.5,516.5 122.5,516.5 117.5,516.5C 117.5,496.5 117.5,476.5 117.5,456.5 Z"/></g>
<g><path style="opacity:0.354" fill="#9f9f9f" d="M 337.5,456.5 C 337.663,458.857 337.497,461.19 337,463.5C 335.583,462.922 334.75,461.922 334.5,460.5C 335.117,460.611 335.617,460.944 336,461.5C 336.198,459.618 336.698,457.952 337.5,456.5 Z"/></g>
<g><path style="opacity:0.566" fill="#7a7a7a" d="M 447.5,456.5 C 448.302,457.952 448.802,459.618 449,461.5C 449.383,460.944 449.883,460.611 450.5,460.5C 450.315,462.196 449.481,463.529 448,464.5C 447.503,461.854 447.336,459.187 447.5,456.5 Z"/></g>
<g><path style="opacity:0.163" fill="#cecece" d="M 160.5,457.5 C 161.167,458.833 161.833,460.167 162.5,461.5C 162.44,462.043 162.107,462.376 161.5,462.5C 160.548,460.955 160.215,459.288 160.5,457.5 Z"/></g>
<g><path style="opacity:0.702" fill="#8c8c8c" d="M 455.5,456.5 C 455.027,457.906 454.027,458.573 452.5,458.5C 452.973,457.094 453.973,456.427 455.5,456.5 Z"/></g>
<g><path style="opacity:0.796" fill="#797979" d="M 307.5,457.5 C 307.027,458.906 306.027,459.573 304.5,459.5C 304.973,458.094 305.973,457.427 307.5,457.5 Z"/></g>
<g><path style="opacity:0.702" fill="#7e7e7e" d="M 551.5,458.5 C 550.738,460.262 549.404,461.262 547.5,461.5C 548.262,459.738 549.596,458.738 551.5,458.5 Z"/></g>
<g><path style="opacity:0.698" fill="#8c8c8c" d="M 165.5,459.5 C 165.027,460.906 164.027,461.573 162.5,461.5C 162.973,460.094 163.973,459.427 165.5,459.5 Z"/></g>
<g><path style="opacity:0.627" fill="#8d8d8d" d="M 599.5,459.5 C 598.5,461.167 597.167,462.5 595.5,463.5C 595.833,461.167 597.167,459.833 599.5,459.5 Z"/></g>
<g><path style="opacity:0.627" fill="#9b9b9b" d="M 627.5,460.5 C 629.262,461.262 630.262,462.596 630.5,464.5C 628.738,463.738 627.738,462.404 627.5,460.5 Z"/></g>
<g><path style="opacity:0.796" fill="#797979" d="M 193.5,461.5 C 194.906,461.973 195.573,462.973 195.5,464.5C 194.094,464.027 193.427,463.027 193.5,461.5 Z"/></g>
<g><path style="opacity:0.4" fill="#a1a1a1" d="M 547.5,461.5 C 547.573,463.027 546.906,464.027 545.5,464.5C 545.427,462.973 546.094,461.973 547.5,461.5 Z"/></g>
<g><path style="opacity:0.627" fill="#969696" d="M 421.5,463.5 C 422.906,463.973 423.573,464.973 423.5,466.5C 422.094,466.027 421.427,465.027 421.5,463.5 Z"/></g>
<g><path style="opacity:0.796" fill="#737373" d="M 484.5,461.5 C 483.415,463.587 481.749,464.92 479.5,465.5C 480.585,463.413 482.251,462.08 484.5,461.5 Z"/></g>
<g><path style="opacity:0.627" fill="#9d9d9d" d="M 524.5,463.5 C 525.906,463.973 526.573,464.973 526.5,466.5C 525.094,466.027 524.427,465.027 524.5,463.5 Z"/></g>
<g><path style="opacity:0.796" fill="#8b8b8b" d="M 630.5,464.5 C 633.167,465.5 633.167,466.5 630.5,467.5C 630.5,466.5 630.5,465.5 630.5,464.5 Z"/></g>
<g><path style="opacity:0.796" fill="#848484" d="M 695.5,464.5 C 697.262,465.262 698.262,466.596 698.5,468.5C 696.738,467.738 695.738,466.404 695.5,464.5 Z"/></g>
<g><path style="opacity:0.627" fill="#969696" d="M 372.5,465.5 C 372.573,467.027 371.906,468.027 370.5,468.5C 370.427,466.973 371.094,465.973 372.5,465.5 Z"/></g>
<g><path style="opacity:0.702" fill="#8e8e8e" d="M 479.5,465.5 C 479.573,467.027 478.906,468.027 477.5,468.5C 477.427,466.973 478.094,465.973 479.5,465.5 Z"/></g>
<g><path style="opacity:0.627" fill="#7a7a7a" d="M 297.5,465.5 C 297.573,467.027 296.906,468.027 295.5,468.5C 295.427,466.973 296.094,465.973 297.5,465.5 Z"/></g>
<g><path style="opacity:0.229" fill="#d7d7d7" d="M 39.5,472.5 C 38.5,472.5 37.5,472.5 36.5,472.5C 36.9622,464.667 37.9622,464.667 39.5,472.5 Z"/></g>
<g><path style="opacity:0.565" fill="#868686" d="M 648.5,466.5 C 648.573,468.027 647.906,469.027 646.5,469.5C 646.427,467.973 647.094,466.973 648.5,466.5 Z"/></g>
<g><path style="opacity:0.565" fill="#828282" d="M 527.5,467.5 C 528.906,467.973 529.573,468.973 529.5,470.5C 528.094,470.027 527.427,469.027 527.5,467.5 Z"/></g>
<g><path style="opacity:0.817" fill="#f7f7f7" d="M 669.5,469.5 C 667.405,474.032 668.739,477.032 673.5,478.5C 678.261,477.032 679.595,474.032 677.5,469.5C 683.361,470.183 687.361,473.349 689.5,479C 678.5,479.667 667.5,479.667 656.5,479C 658.735,472.928 663.068,469.762 669.5,469.5 Z"/></g>
<g><path style="opacity:0.451" fill="#909090" d="M 698.5,468.5 C 699.906,468.973 700.573,469.973 700.5,471.5C 699.094,471.027 698.427,470.027 698.5,468.5 Z"/></g>
<g><path style="opacity:0.796" fill="#989898" d="M 568.5,471.5 C 570.5,472.5 572.5,473.5 574.5,474.5C 571.804,475.569 569.804,474.569 568.5,471.5 Z"/></g>
<g><path style="opacity:0.031" fill="#d6d6d6" d="M 608.5,470.5 C 608.5,472.167 608.5,473.833 608.5,475.5C 605.833,473.833 605.833,472.167 608.5,470.5 Z"/></g>
<g><path style="opacity:0.353" fill="#a3a3a3" d="M 646.5,469.5 C 646.573,471.027 645.906,472.027 644.5,472.5C 644.427,470.973 645.094,469.973 646.5,469.5 Z"/></g>
<g><path style="opacity:0.173" fill="#d9d9d9" d="M 559.5,470.5 C 559.567,471.959 559.234,473.292 558.5,474.5C 557.147,472.872 557.481,471.538 559.5,470.5 Z"/></g>
<g><path style="opacity:0.565" fill="#9a9a9a" d="M 410.5,473.5 C 412.117,474.038 413.784,474.371 415.5,474.5C 413.545,475.93 411.879,475.597 410.5,473.5 Z"/></g>
<g><path style="opacity:0.796" fill="#8f8f8f" d="M 334.5,476.5 C 336.048,476.821 336.715,477.821 336.5,479.5C 335.599,478.71 334.932,477.71 334.5,476.5 Z"/></g>
<g><path style="opacity:0.796" fill="#858585" d="M 597.5,483.5 C 599.404,483.738 600.738,484.738 601.5,486.5C 599.596,486.262 598.262,485.262 597.5,483.5 Z"/></g>
<g><path style="opacity:0.796" fill="#868686" d="M 549.5,484.5 C 551.404,484.738 552.738,485.738 553.5,487.5C 551.596,487.262 550.262,486.262 549.5,484.5 Z"/></g>
<g><path style="opacity:0.049" fill="#d7d7d7" d="M 63.5,485.5 C 62.2819,492.484 60.9486,492.817 59.5,486.5C 60.9587,486.567 62.2921,486.234 63.5,485.5 Z"/></g>
<g><path style="opacity:0.627" fill="#9d9d9d" d="M 578.5,486.5 C 579.906,486.973 580.573,487.973 580.5,489.5C 579.094,489.027 578.427,488.027 578.5,486.5 Z"/></g>
<g><path style="opacity:0.506" fill="#878787" d="M 601.5,486.5 C 603.027,486.427 604.027,487.094 604.5,488.5C 602.973,488.573 601.973,487.906 601.5,486.5 Z"/></g>
<g><path style="opacity:0.506" fill="#949494" d="M 628.5,487.5 C 629.906,487.973 630.573,488.973 630.5,490.5C 629.094,490.027 628.427,489.027 628.5,487.5 Z"/></g>
<g><path style="opacity:0.251" fill="#ebebeb" d="M 306.5,492.5 C 310.759,494.083 313.092,497.083 313.5,501.5C 310.027,499.363 307.694,496.363 306.5,492.5 Z"/></g>
<g><path style="opacity:0.4" fill="#9d9d9d" d="M 563.5,492.5 C 565.027,492.427 566.027,493.094 566.5,494.5C 564.973,494.573 563.973,493.906 563.5,492.5 Z"/></g>
<g><path style="opacity:0.627" fill="#8b8b8b" d="M 614.5,493.5 C 616.5,493.5 617.5,494.5 617.5,496.5C 616.167,495.833 615.167,494.833 614.5,493.5 Z"/></g>
<g><path style="opacity:0.012" fill="#cecece" d="M 472.5,494.5 C 473.738,496.214 474.405,498.214 474.5,500.5C 472.926,498.898 472.259,496.898 472.5,494.5 Z"/></g>
<g><path style="opacity:0.796" fill="#8f8f8f" d="M 489.5,496.5 C 491.167,497.5 492.5,498.833 493.5,500.5C 491.167,500.167 489.833,498.833 489.5,496.5 Z"/></g>
<g><path style="opacity:0.565" fill="#989898" d="M 602.5,499.5 C 600.833,498.167 599.167,498.167 597.5,499.5C 599.167,496.833 600.833,496.833 602.5,499.5 Z"/></g>
<g><path style="opacity:0.627" fill="#848484" d="M 414.5,498.5 C 412.833,499.167 411.167,499.833 409.5,500.5C 410.591,497.808 412.257,497.142 414.5,498.5 Z"/></g>
<g><path style="opacity:0.796" fill="#8c8c8c" d="M 688.5,499.5 C 687.609,500.11 686.609,500.443 685.5,500.5C 686.221,498.618 687.221,498.285 688.5,499.5 Z"/></g>
<g><path style="opacity:0.627" fill="#929292" d="M 597.5,499.5 C 596.92,501.749 595.587,503.415 593.5,504.5C 594.08,502.251 595.413,500.585 597.5,499.5 Z"/></g>
<g><path style="opacity:0.627" fill="#9d9d9d" d="M 423.5,504.5 C 425.557,504.957 425.557,505.957 423.5,507.5C 423.5,506.5 423.5,505.5 423.5,504.5 Z"/></g>
<g><path style="opacity:0.506" fill="#9f9f9f" d="M 545.5,502.5 C 544.952,504.394 543.952,506.06 542.5,507.5C 543.857,509.186 545.19,510.852 546.5,512.5C 540.314,509.755 539.981,506.421 545.5,502.5 Z"/></g>
<g><path style="opacity:0.796" fill="#8b8b8b" d="M 481.5,509.5 C 483.404,509.738 484.738,510.738 485.5,512.5C 483.596,512.262 482.262,511.262 481.5,509.5 Z"/></g>
<g><path style="opacity:0.702" fill="#8e8e8e" d="M 300.5,510.5 C 302.027,510.427 303.027,511.094 303.5,512.5C 301.973,512.573 300.973,511.906 300.5,510.5 Z"/></g>
<g><path style="opacity:0.354" fill="#9f9f9f" d="M 337.5,516.5 C 336.833,514.833 336.167,513.167 335.5,511.5C 335.783,510.711 336.283,510.044 337,509.5C 337.497,511.81 337.663,514.143 337.5,516.5 Z"/></g>
<g><path style="opacity:0.565" fill="#868686" d="M 375.5,510.5 C 377.027,510.427 378.027,511.094 378.5,512.5C 376.973,512.573 375.973,511.906 375.5,510.5 Z"/></g>
<g><path style="opacity:0.4" fill="#9f9f9f" d="M 653.5,511.5 C 655.027,511.427 656.027,512.094 656.5,513.5C 654.973,513.573 653.973,512.906 653.5,511.5 Z"/></g>
<g><path style="opacity:0.565" fill="#818181" d="M 303.5,512.5 C 305.027,512.427 306.027,513.094 306.5,514.5C 304.973,514.573 303.973,513.906 303.5,512.5 Z"/></g>
<g><path style="opacity:0.353" fill="#a3a3a3" d="M 378.5,512.5 C 380.027,512.427 381.027,513.094 381.5,514.5C 379.973,514.573 378.973,513.906 378.5,512.5 Z"/></g>
<g><path style="opacity:0.565" fill="#818181" d="M 546.5,512.5 C 548.027,512.427 549.027,513.094 549.5,514.5C 547.973,514.573 546.973,513.906 546.5,512.5 Z"/></g>
<g><path style="opacity:0.4" fill="#9f9f9f" d="M 595.5,512.5 C 597.027,512.427 598.027,513.094 598.5,514.5C 596.973,514.573 595.973,513.906 595.5,512.5 Z"/></g>
</svg>
