<?xml version="1.0" encoding="utf-8"?>
<!-- Generator: Adobe Illustrator 25.4.1, SVG Export Plug-In . SVG Version: 6.00 Build 0)  -->
<svg version="1.1" id="Panda" xmlns="http://www.w3.org/2000/svg" xmlns:xlink="http://www.w3.org/1999/xlink" x="0px" y="0px"
	 viewBox="0 0 255.9 197.3" style="enable-background:new 0 0 255.9 197.3;" xml:space="preserve">
<style type="text/css">
	.st0{fill:none;}
	.st1{fill:#FFFFFF;}
	.st2{fill:#94BEE6;}
</style>
<g>
	<g>
		<path class="st0" d="M126.9,29.2C126.9,29.2,126.9,29.2,126.9,29.2C126.9,29.2,126.9,29.2,126.9,29.2z"/>
		<path d="M126.9,29.2C126.9,29.2,126.9,29.2,126.9,29.2C126.9,29.1,126.9,29.1,126.9,29.2z"/>
		<path d="M220.1,95.9l-0.4-0.3c-9-5-23.3-22.5-30.5-32.5c-0.1-0.1-0.7-0.9-1.2-1.7c9.8-8.3,14.1-18.4,12.2-28.5
			c-1.7-9.2-6.6-16.9-13.2-20.7c-3.9-2.2-8.2-2.9-12.5-2c-1.2,0.3-4.7,2.1-7.4,3.9c0.5-1.2,1.2-2.3,1.9-2.8l1.5-1.2
			c0.7-0.6,0.3-1.8-0.6-1.8L168,8.2c-4-0.2-7.4,1-10.3,3.7c-5.6,5.1-7.3,13.8-7.8,18.9c-6.6-1.7-14.2-2.4-23-1.7c0,0,0,0,0,0
			c-7.6-0.1-14.2,0.7-20,2.2c-0.5-5-2.1-14.1-7.9-19.3c-2.9-2.6-6.4-3.9-10.3-3.7l-1.9,0.1c-0.9,0-1.3,1.2-0.6,1.8l1.5,1.2
			c0.7,0.5,1.3,1.6,1.9,2.8c-2.8-1.8-6.2-3.6-7.4-3.9c-4.3-0.9-8.6-0.3-12.5,2C63,16.1,58.1,23.8,56.4,33.1
			c-1.9,10.3,2.6,20.4,12.5,28.8c-0.3,0.5-0.7,1-0.9,1.2c-7,9.9-21.6,27.8-30.8,32.9l-0.4,0.3c-0.5,0.4-0.8,0.9-0.8,1.5
			c0,0.7,0.4,1.4,1.2,1.7c0.3,0.1,5.6,2.6,11.8,2.4c-2.4,8.7-6.9,32.8,13.9,56.4l0.7,0.3c0.7,0.3,1.4-0.3,1.4-1c0-0.1,0-0.3-0.1-0.4
			c0-0.1-1.4-2.3-1.4-6.8c1.6,3.7,3.9,7.8,6.9,11.9c3,4.1,6.8,8,11.5,11.4c1.2,0.8,2.8,0,2.8-1.4c0-0.1,0-0.1,0-0.2
			c-0.2-2.5-0.5-5.2-0.7-7.6c2.6,3.6,10.2,14,14.3,16.8l1.4,0.9c1,0.7,2.3-0.4,1.9-1.5l-0.6-1.5c0-0.1-3.3-8.9-5-16.2
			c4.7,8.8,15.5,21.3,29.8,22.8c2.3,0.3,6.3,0.1,8.1-0.2c17.2-2.6,22.5-14.4,27-22.9c-1.7,7.4-5,16.1-5,16.2l-0.6,1.5
			c-0.4,1.1,0.8,2.2,1.8,1.5l1.4-0.9c4.2-2.7,11.8-13.2,14.3-16.8c-0.2,2.4-0.5,5-0.7,7.6c0,0.1,0,0.1,0,0.2c0,1.4,1.6,2.3,2.8,1.4
			c4.7-3.3,8.5-7.3,11.5-11.4s5.2-8.2,6.9-11.9c0,4.4-1.3,6.7-1.4,6.8c0,0.1-0.1,0.3-0.1,0.4c0,0.7,0.7,1.3,1.5,1l0.6-0.3
			c20.8-23.6,16.4-47.7,13.9-56.4c6.2,0.2,11.5-2.3,11.8-2.4c0.8-0.3,1.2-0.9,1.2-1.6C220.9,96.8,220.7,96.2,220.1,95.9z"/>
	</g>
	<g>
		<path class="st1" d="M127,32.5C127,32.5,127,32.5,127,32.5C127,32.5,127,32.5,127,32.5z"/>
		<path class="st1" d="M127,32.5C127,32.5,127,32.5,127,32.5C127,32.5,127,32.5,127,32.5z"/>
		<path class="st1" d="M184.1,63.6c-0.1-0.1-12.3-31.1-56.6-30.2c0,0-34.1-2.5-54.4,30.1C66,75.9,42,97.4,42.5,97.5
			c1.1,0.2,2.1,0.3,2.8,0.5c0.2,0.1,4.8,1.1,10.4,0.9c-7.7,33.4,12.5,50.6,38.1,53.6c13.3,1.6,17.7,17.8,30.3,23.5
			c1.9,0.9,7.8-0.3,9.4-0.6c15.8-2.4,22.8-22.1,27.2-23.4c2.3-0.7,8.4-1.9,23.7-6.6c20.4-6.3,18-43,16.9-46.8
			c5.7,0.2,12.9-1.4,13.1-1.5C215.1,97,194,80.6,184.1,63.6z"/>
	</g>
	<path class="st2" d="M214.4,97.2C214.4,97.2,214.4,97.2,214.4,97.2l-13.7-3.4c-0.5-0.1-0.8,0.4-0.6,0.8c3.3,6.7-2.3,35.9-2.3,35.9
		c-0.3-2.8-2.4-5.7-3.7-7.2c-0.2-0.2-0.6-0.1-0.5,0.2c0.5,6.2-12.8,22.4-12.8,22.4c1.1-1.7,0.1-5.5-0.4-7.3
		c-0.1-0.4-0.6-0.4-0.8-0.1c-2.4,4.8-10.3,8.4-10.3,8.4c1-5.3-3.9-33.5-3.9-33.5s0,0-0.1,0c0.1,0,0.2,0.1,0.4,0.1
		c0.9,0.2,1.7,0,2.3-0.2c0.4-0.1,0.4-0.6,0-0.8c-2.9-1.3-7-7.8-7-7.8c0.4,18.4-7.6,42.6-7.6,42.6c-10.5,27.1-25.4,26.4-25.4,26.4
		s-14.1,1.1-24.6-26.1c0,0-8-24.2-7.6-42.6c0,0-4.1,6.5-7,7.8c-0.4,0.2-0.3,0.7,0,0.8c0.6,0.2,1.5,0.4,2.3,0.2
		c0.1,0,0.2-0.1,0.4-0.1c-0.1,0-0.1,0-0.1,0s-5,28.3-3.9,33.5c0,0-7.9-3.6-10.3-8.4c-0.2-0.3-0.7-0.3-0.8,0.1
		c-0.6,1.8-1.5,5.6-0.4,7.3c0,0-13.2-16.2-12.8-22.4c0-0.3-0.3-0.4-0.5-0.2c-1.2,1.5-3.4,4.4-3.7,7.2c0,0-5.5-29.2-2.3-35.9
		c0.2-0.4-0.1-0.9-0.6-0.8l-13.7,3.4c0,0-0.1-0.1,0,0c6.2,2.9,13.1-1.2,10,5.8c0,0-6.3,24.8,7.1,45.1c0,0-1.8-9.1,1.1-9.8
		c0,0,2.2-0.8,3,3.1c0,0,4.9,16.9,17.2,26.4c0,0-1.8-14.6-0.1-14.4c0,0,1.5-0.7,2.7,3.1c0,0,3.9,8.6,11.7,16.1
		c0,0-6.1-18.1-2.4-18.9c0,0,0.8-0.5,2.4,0.7c0,0,13.2,27.5,32.8,28c20.7,1.7,33.6-28.3,33.6-28.3c1.6-1.2,2.4-0.7,2.4-0.7
		c3.7,0.8-2.4,18.9-2.4,18.9c7.8-7.5,11.7-16.1,11.7-16.1c1.2-3.8,2.7-3.1,2.7-3.1c1.8-0.2-0.1,14.4-0.1,14.4
		c12.3-9.5,17.2-26.4,17.2-26.4c0.9-3.9,3-3.1,3-3.1c3,0.7,1.1,9.8,1.1,9.8c13.4-20.3,7.1-45.1,7.1-45.1
		C201.3,96,207.4,100.1,214.4,97.2z"/>
	<path class="st1" d="M156.9,103.1c0.8,6.5,0.5,14.3-0.8,22.8c-2.3,14.4-7.4,28.2-13.6,36.9c-3.1,4.4-8.2,9.3-13.6,9.3
		c-5.7-0.1-11.2-5.1-14.5-9.8c-6.2-8.8-11.3-22.6-13.5-37c-1.3-8.3-1.6-16-0.8-22.4c0.6-5.2,1.9-9.7,3.9-13c3-5.1,7.4-7.4,13.2-7
		c0.4,1.6,1.8,3,3,4c2,1.7,4.5,2.9,6.9,3.9c0.2,0.1,0.3,0.1,0.5,0.2c-0.1,1.2-0.2,2.9-0.3,4.1c-1.1,0.1-2.5,0.4-4.2,0.8
		c-2.8,0.7-6.4,1.6-9.2,2.4c-1.5,0.4-3,0.8-4.1,1.1c-1.6,0.2-1.9,0.4-2.1,0.6l-0.2,1.5l0,0l0,0l-0.1,0.3l0,0.9l0,0.1l-0.1,2
		c-3,26.9,4.4,49.1,12.6,58.4c2.8,3.1,5.3,4.9,8.8,5.3l0-3.6l0,0l0,3.6c3-0.4,6-2.2,8.8-5.3c8.2-9.2,15.6-31.4,12.6-58.3l-0.1-2.1
		l0-0.9l-0.1-0.4l-0.2-1.5c-0.2-0.2-0.5-0.4-2.1-0.6c-1.1-0.3-2.6-0.7-4.1-1.1c-2.8-0.8-6.4-1.7-9.2-2.4c-1.4-0.3-2.6-0.6-3.5-0.8
		c-0.2-1.2-0.6-2.9-0.7-4.1c0.2-0.1,0.5-0.1,0.7-0.2c2.4-1,4.9-2.2,7-3.9c1.2-1,2.5-2.3,3-3.9c5.4-0.1,9.6,2.3,12.4,7.2
		C155,93.6,156.3,97.9,156.9,103.1z"/>
	<path d="M160.8,107.2c0-1.1-0.1-2.9-0.5-5.6c0,0-2.1-9.7-4.1-13.2c-3.7-6.4-9.6-9.4-16.9-8.8c0.3,0.6,0.6,1.2,0.7,1.9
		c0.1,0.6,0,1.1-0.1,1.6c5.8-0.4,10.3,1.9,13.2,7c1.9,3.3,3.2,7.9,3.8,13.1c0.8,6.5,0.5,14.3-0.8,22.8c-2.3,14.4-7.4,28.2-13.6,36.9
		c-3.1,4.4-8.3,9.3-13.7,9.3c-5.7-0.2-11.1-5.1-14.4-9.8c-6.2-8.8-11.3-22.6-13.5-37c-1.3-8.3-1.6-16-0.8-22.4
		c0.6-5.2,1.9-9.7,3.9-13c3-5.1,7.4-7.4,13.2-7c-0.1-0.5-0.2-1.1-0.1-1.6c0.1-0.7,0.3-1.3,0.7-1.9c-7.3-0.6-13.2,2.4-16.9,8.8
		c-2,3.4-3.4,7.9-4.1,13.2c0,0.4-0.4,2.3-0.5,5c-0.3,5.9,0,12.5,1.2,19.6c2.4,14.9,8.1,29,14.2,38.5c6.9,10.7,16.2,10.7,16.3,10.7
		c0,0,0,0,0,0c0.7,0.1,1.4,0.2,2.1,0.2c5.8-0.7,10.6-3.5,15.5-10.4c6.5-9.1,11.8-23.5,14.2-38.4C160.7,119.6,161.1,113,160.8,107.2z
		"/>
	<path d="M140.1,79.5C140.1,79.5,140.1,79.5,140.1,79.5c0-0.1-0.1-0.2-0.1-0.3c-0.3-0.8-0.8-1.5-1.4-2c-0.8-0.7-1.8-1.2-2.8-1.6
		c-0.4-0.1-0.7-0.2-1.1-0.3c-1.8-0.6-3.8-0.7-5.7-0.8c0,0,0,0-0.1,0c0,0,0,0-0.1,0c-0.1,0-0.3,0-0.4,0c-0.1,0-0.3,0-0.4,0
		c0,0,0,0-0.1,0c0,0,0,0-0.1,0c-1.9,0-3.9,0.2-5.7,0.8c-0.4,0.1-0.8,0.2-1.1,0.3c-1,0.3-2,0.8-2.8,1.6c-0.6,0.5-1.1,1.2-1.4,2
		c-0.1,0.1-0.1,0.2-0.2,0.3c0,0,0,0,0.1,0c-0.1,0.4-0.2,0.8-0.3,1.2c-0.1,1.2,0.5,2.5,1.2,3.5c0.6,1,1.4,2,2.3,2.7
		c2,1.7,4.5,2.9,6.9,3.9c0.2,0.1,1.5,0.4,1.7,0.4c0.2-0.1,1.1-0.4,1.2-0.4c2.4-1,4.9-2.2,6.9-3.9c0.9-0.8,1.7-1.7,2.3-2.7
		c0.6-1,1.2-2.3,1.2-3.5C140.3,80.3,140.2,79.9,140.1,79.5z"/>
	<path class="st2" d="M99.7,33.6c0,0-7.3-20.6-26.5-15.1c0,0,17.8-1.7,22.8,16.9L99.7,33.6z"/>
	<path class="st2" d="M158.5,33.6c0,0,7.3-20.6,26.5-15.1c0,0-17.8-1.7-22.8,16.9L158.5,33.6z"/>
	<g>
		<path d="M173.5,102.8l-0.3,0c-1.9-0.3-2.8-1.2-3.2-2.2c-0.3-0.6-0.1-1.3,0.4-1.7c5-4.4,7.4-9.5,7.3-15
			c-0.3-11.1-11.1-20.7-15.1-23.9c0.7-0.1,1.9,0,3,0.3l0.6,0.1c1.3,0.3,2.4-1.1,1.7-2.2l-0.3-0.5c-1.3-2.2-3.2-3.6-5.6-4
			c-6-0.9-15.2,4.5-27.1,15.9c-0.2,0.2-0.4,0.4-0.5,0.5c-0.6,1-4.8,1.6-5.6,1.5c-1.7-0.3-4.3-0.9-5-1.5c-0.1-0.1-0.3-0.3-0.5-0.5
			c-11.9-11.4-21-16.8-27.1-15.9c-2.4,0.4-4.4,1.7-5.6,4l-0.3,0.5c-0.7,1.2,0.4,2.6,1.7,2.2l0.6-0.1c1.1-0.3,2.3-0.3,3-0.3
			c-4,3.2-14.8,12.8-15.1,23.9c-0.1,5.5,2.3,10.6,7.3,15c0.5,0.4,0.7,1.1,0.4,1.7c-0.4,0.9-1.3,1.9-3.2,2.2l-0.3,0
			c-0.9,0.1-1.5,1-1.3,1.9l0.1,0.3c0.3,1.3,1.6,3.6,4.2,4.4c0.6,0.2,1.1,0.2,1.7,0.2c2.1,0,4.4-0.9,7.1-2.8c0.1-1.2,0.2-2.3,0.3-3.4
			c-5.5,4.3-9.5,4.2-10.5,3.9c-0.3-0.1-0.6-0.2-0.8-0.3c4-1.7,4.8-5.4,4.6-7.5l-0.1-0.8l-0.7-0.5c-5.7-4.2-8.5-8.9-8.4-13.9
			C81.3,72.1,98,61,98.2,60.9l0.9-0.6l-0.8-1c0-1.3,0.2-2.4-0.8-3.1c-0.1-0.1-0.2-0.2-0.4-0.2c7.9,0.5,20.5,11,25.9,15.7
			c0.3,0.3,0.5,0.5,0.7,0.6c1.2,1,3.1,1.6,4.8,2c1.8-0.4,3.7-1,4.8-2c0.1-0.1,0.4-0.3,0.7-0.6c5.3-4.7,18-15.2,25.9-15.7
			c-0.1,0.1,1.2,0.5,1.1,0.6c-1,0.7-2.2,1.5-2.2,2.7l1,0.8l-0.9,0.7c0.2,0.1,16.8,11.2,17.2,23.3c0.1,5.1-2.7,9.8-8.4,13.9l-0.7,0.5
			l-0.1,0.8c-0.2,2,1,4.2,4.9,5.9c0.2-0.4,0.3-0.5,0.1,0.1c0,0-0.1,0-0.1-0.1c-0.3,0.6-0.9,1.9-1.1,1.9c-1,0.2-5,0.4-10.5-4
			c0.1,0.8,0.2,1.6,0.2,2.4c3.3,2.6,6.1,3.9,8.5,3.9c0.6,0,1.2-0.1,1.7-0.2c2.6-0.7,3.9-3.1,4.2-4.4l0.1-0.3
			C175,103.8,174.4,102.9,173.5,102.8z"/>
		<path d="M170.5,107.2c0.2,0,0.8-1.3,1.1-1.9c-3.8-1.7-5.1-3.8-4.9-5.9l0.1-0.8l0.7-0.5c5.7-4.2,8.5-8.9,8.4-13.9
			c-0.3-12.1-17-23.2-17.2-23.3l0.9-0.7l-1-0.8c0-1.3,1.2-2,2.2-2.7c0.1-0.1-1.2-0.5-1.1-0.6c-7.9,0.5-20.5,11-25.9,15.7
			c-0.3,0.3-0.5,0.5-0.7,0.6c-1.2,1-3.1,1.6-4.8,2c-1.8-0.4-3.7-1-4.8-2c-0.1-0.1-0.4-0.3-0.7-0.6c-5.3-4.7-18-15.2-25.9-15.7
			c0.1,0.1,0.2,0.1,0.4,0.2c1,0.7,0.8,1.8,0.8,3.1l0.8,1l-0.9,0.6C98,61,81.3,72.1,81,84.2c-0.1,5.1,2.7,9.8,8.4,13.9l0.7,0.5
			l0.1,0.8c0.2,2.1-0.6,5.8-4.6,7.5c0.2,0.1,0.5,0.3,0.8,0.3c1,0.2,5,0.4,10.5-3.9c0.1-0.1,0.2-0.2,0.3-0.3
			c0.8-5.5,1.1-10.3,3.4-13.9c4.3-6.7,10.9-9.9,19.3-9.2c1.1-1.7,3.1-3,5-3.8c1.1-0.5,2.3-0.7,3.6-0.9c1.2,0.2,2.4,0.4,3.6,0.9
			c1.9,0.8,3.9,2.1,5,3.8c8.4-0.7,15,2.5,19.3,9.2c2.3,3.6,2.5,8.5,3.4,13.9c0.1,0.1,0.2,0.2,0.3,0.2
			C165.5,107.6,169.5,107.5,170.5,107.2z"/>
		<path d="M171.6,105.3c0,0,0.1,0,0.1,0.1C171.9,104.8,171.8,104.9,171.6,105.3z"/>
	</g>
	<g>
		<ellipse transform="matrix(2.333793e-03 -1 1 2.333793e-03 75.7518 229.9059)" class="st1" cx="153.1" cy="77" rx="3" ry="4.5"/>
		<ellipse transform="matrix(2.333793e-03 -1 1 2.333793e-03 29.1454 182.972)" class="st1" cx="106.3" cy="76.9" rx="3" ry="4.5"/>
		<g>
			<path class="st1" d="M122.3,79.8c3.6-1.9,7.8-1.6,11.3,0.3c1.2,0.6,5.5-0.7,3.9-1.5c-5.7-3-13-2.9-18.7,0.2
				c-0.9,0.5-0.5,1,0.2,1.4C119.9,80.7,121.5,80.2,122.3,79.8L122.3,79.8z"/>
		</g>
		<circle cx="153.1" cy="77" r="1.1"/>
		<circle cx="106.3" cy="76.9" r="1.1"/>
	</g>
	<g>
		<path d="M128.5,167.6"/>
		<path d="M149.2,99.2l-19.6-4.9l-0.3-4.1h-1.5l-0.3,4.1l-19.6,4.9c0,0-7,58.3,20.7,68.4C156.2,157.5,149.2,99.2,149.2,99.2z"/>
	</g>
	<g>
		<g id="XMLID_00000123432726972419158610000002984335831005943439_">
			<g>
				<path class="st1" d="M147.7,121.4c0,0.1,0,0.1,0,0.2l0,0C147.7,121.5,147.7,121.4,147.7,121.4z"/>
				<path class="st1" d="M147.7,121.3L147.7,121.3C147.7,121.3,147.7,121.3,147.7,121.3C147.7,121.3,147.7,121.3,147.7,121.3z"/>
				<path class="st1" d="M147.7,121.3C147.7,121.3,147.7,121.3,147.7,121.3c0,0.1,0,0.2,0,0.3l-0.2,0c0-0.1,0-0.2,0-0.2c0,0,0,0,0,0
					L147.7,121.3z"/>
				<path class="st1" d="M146.7,121.7c0-0.5,0.2-0.9,0.5-1c0.1-0.1,0.2-0.1,0.3,0c0.2,0.1,0.2,0.3,0.3,0.6l-0.2,0c0,0,0,0,0,0
					c0-0.4-0.1-0.5-0.2-0.5c0,0-0.1,0-0.1,0c-0.2,0.1-0.4,0.5-0.4,1.1l0,0c0-0.1,0-0.1,0-0.2L146.7,121.7z"/>
				<path class="st1" d="M146.9,121.7c0,0.1,0,0.1,0,0.2l-0.2,0c0-0.1,0-0.1,0-0.2L146.9,121.7z"/>
				<path class="st1" d="M147.7,121.6c-0.8,11.1-3,21-6.4,28.7c-3.5,7.8-7.8,12.7-12.7,13.9l0.1-0.2c0,0,0,0-0.1,0
					c4.7-1.3,9.1-6,12.5-13.8c3.4-7.8,5.6-17.7,6.4-28.9c0,0.1,0,0.1,0,0.2L147.7,121.6z"/>
				<path class="st1" d="M140.6,149.1c3.3-7.4,5.4-16.9,6.1-27.4l0,0c0,0.1,0,0.1,0,0.2l0.2,0c-0.7,10.5-2.8,20-6.1,27.3
					c-3.3,7.4-7.4,12-12,13.2l0-0.2c0,0,0,0-0.1,0C133.2,161,137.3,156.5,140.6,149.1z"/>
				<path class="st1" d="M128.8,162.3l0,0.2l0,0c0,0,0,0,0,0l-0.1-0.2C128.7,162.2,128.7,162.2,128.8,162.3
					C128.8,162.2,128.8,162.2,128.8,162.3z"/>
				<polygon class="st1" points="128.8,162.4 128.8,162.4 128.7,162.4 				"/>
				<path class="st1" d="M128.7,162.4C128.7,162.4,128.7,162.4,128.7,162.4L128.7,162.4C128.7,162.4,128.7,162.4,128.7,162.4z"/>
				<path class="st1" d="M128.7,164l-0.1,0.2l0,0c0,0,0,0,0,0l-0.1-0.2C128.6,164,128.6,164,128.7,164
					C128.7,164,128.7,164,128.7,164z"/>
				<polygon class="st1" points="128.7,164.2 128.7,164.2 128.6,164.2 				"/>
				<path class="st1" d="M128.6,164.2C128.6,164.2,128.6,164.2,128.6,164.2L128.6,164.2C128.6,164.2,128.6,164.2,128.6,164.2z"/>
				<path class="st1" d="M110.9,121.6c0.7,10.6,2.7,20.1,6,27.5c3.2,7.4,7.3,11.9,11.8,13.2c0,0,0,0-0.1,0l0.1,0.2
					c-4.6-1.2-8.7-5.8-12-13.3c-3.3-7.4-5.3-16.9-6-27.5L110.9,121.6L110.9,121.6z"/>
				<polygon class="st1" points="110.9,121.6 110.9,121.6 110.8,121.6 				"/>
				<path class="st1" d="M116.2,150.1c-3.4-7.8-5.6-17.7-6.3-28.8c0,0,0,0,0,0c0-0.5,0.2-0.7,0.2-0.7c0.1-0.1,0.2,0,0.2,0
					c0.2,0.1,0.4,0.5,0.4,1l0.1,0l-0.1,0c0.7,10.6,2.8,20.1,6,27.5c3.3,7.5,7.4,12.1,12,13.3l0,0c0,0,0,0,0,0l0,0l0,0
					c4.6-1.2,8.7-5.8,12-13.2c3.3-7.3,5.4-16.8,6.1-27.3l0,0c0-0.5,0.2-0.9,0.4-1.1c0.1,0,0.1,0,0.1,0c0,0,0.2,0.1,0.2,0.5
					c-0.8,11.1-3,21.1-6.4,28.9c-3.4,7.8-7.8,12.5-12.5,13.8C123.9,162.7,119.6,157.9,116.2,150.1z"/>
				<path class="st1" d="M110.7,121.6c0-0.5-0.2-0.9-0.4-1c-0.1,0-0.1-0.1-0.2,0c-0.1,0-0.2,0.2-0.2,0.7c0,0,0-0.1,0-0.1l-0.2,0
					c0-0.5,0.2-0.7,0.3-0.8c0.1-0.1,0.3-0.1,0.4,0c0.3,0.1,0.5,0.6,0.5,1.2L110.7,121.6L110.7,121.6z"/>
				<path class="st1" d="M109.9,121.2C109.9,121.2,109.9,121.3,109.9,121.2c0,0.1,0,0.1,0,0.1l-0.2,0c0,0,0-0.1,0-0.1L109.9,121.2z"
					/>
				<path class="st1" d="M128.6,164.2c-4.8-1.3-9.2-6.1-12.6-14c-3.4-7.8-5.6-17.8-6.3-29l0,0c0,0,0,0.1,0,0.1l0.2,0
					c0.7,11.1,2.9,21,6.3,28.8c3.4,7.8,7.7,12.6,12.5,13.9c0,0,0,0-0.1,0L128.6,164.2z"/>
			</g>
		</g>
	</g>
	<path class="st1" d="M146.9,105L146.9,105c-19.6-3.7-36.4-0.4-37.6-0.1l-0.1,0c-0.3,2.8,0.8,8,2.3,9.4c0.3,0.3,0.5,0.4,0.8,0.4
		c0,0,0.1,0,0.1,0l0-0.2c0,0,0,0,0,0c-0.2-2.2-0.1-4,0-5.2c1.1-0.2,15.2-3.4,31.2,0c0.2,1.3,0.2,3.1,0,5.3l0,0.2c0,0,0.1,0,0.1,0
		c0.3,0,0.5-0.1,0.8-0.4C146.1,112.9,147.2,107.8,146.9,105z"/>
</g>
</svg>
