<?xml version="1.0" encoding="UTF-8"?>
<!DOCTYPE svg PUBLIC "-//W3C//DTD SVG 1.1//EN" "http://www.w3.org/Graphics/SVG/1.1/DTD/svg11.dtd">
<svg xmlns="http://www.w3.org/2000/svg" version="1.1" width="580px" height="430px" style="shape-rendering:geometricPrecision; text-rendering:geometricPrecision; image-rendering:optimizeQuality; fill-rule:evenodd; clip-rule:evenodd" xmlns:xlink="http://www.w3.org/1999/xlink">
<g><path style="opacity:0.075" fill="#b1b1b1" d="M 293.5,7.5 C 301.479,7.13094 309.146,8.13094 316.5,10.5C 308.638,9.94666 300.971,8.94666 293.5,7.5 Z"/></g>
<g><path style="opacity:0.639" fill="#a4a4a4" d="M 274.5,7.5 C 269.384,8.80629 264.051,9.47295 258.5,9.5C 263.583,7.92161 268.916,7.25494 274.5,7.5 Z"/></g>
<g><path style="opacity:1" fill="#030303" d="M 274.5,7.5 C 280.833,7.5 287.167,7.5 293.5,7.5C 300.971,8.94666 308.638,9.94666 316.5,10.5C 318.099,10.2322 319.432,10.5655 320.5,11.5C 323.937,12.9448 327.603,13.9448 331.5,14.5C 334.067,14.7215 336.401,15.3882 338.5,16.5C 340.426,18.2927 342.759,19.2927 345.5,19.5C 352.255,21.7119 358.588,24.7119 364.5,28.5C 364.973,29.9063 365.973,30.573 367.5,30.5C 368.492,30.3284 369.158,30.6618 369.5,31.5C 369.821,33.0481 370.821,33.7148 372.5,33.5C 373.035,35.4456 374.368,36.4456 376.5,36.5C 379.533,38.016 382.2,40.016 384.5,42.5C 385.539,44.5311 387.205,45.8645 389.5,46.5C 393.833,50.1667 397.833,54.1667 401.5,58.5C 401.738,60.4044 402.738,61.7377 404.5,62.5C 405.5,62.8333 406.167,63.5 406.5,64.5C 406.738,66.4044 407.738,67.7377 409.5,68.5C 409.738,70.4044 410.738,71.7377 412.5,72.5C 412.738,74.4044 413.738,75.7377 415.5,76.5C 415.427,78.0269 416.094,79.0269 417.5,79.5C 417.427,81.0269 418.094,82.0269 419.5,82.5C 420.674,83.5137 421.34,84.847 421.5,86.5C 421.427,88.0269 422.094,89.0269 423.5,89.5C 425.674,92.5154 427.341,95.8487 428.5,99.5C 428.157,101.483 428.824,102.817 430.5,103.5C 430.5,103.833 430.5,104.167 430.5,104.5C 430.166,107.491 431.166,109.824 433.5,111.5C 434.434,112.568 434.768,113.901 434.5,115.5C 435.231,120.438 436.565,125.105 438.5,129.5C 439.785,132.589 440.451,135.922 440.5,139.5C 441.286,150.482 441.619,161.482 441.5,172.5C 441.313,177.845 440.98,183.178 440.5,188.5C 440.702,190.95 440.369,193.283 439.5,195.5C 437.882,198.171 437.215,201.171 437.5,204.5C 435.926,206.102 435.259,208.102 435.5,210.5C 435.737,211.791 435.404,212.791 434.5,213.5C 433.262,215.214 432.595,217.214 432.5,219.5C 432.204,221.403 431.537,223.07 430.5,224.5C 428.707,226.426 427.707,228.759 427.5,231.5C 425.177,238.153 421.844,244.153 417.5,249.5C 416.094,249.973 415.427,250.973 415.5,252.5C 414.094,252.973 413.427,253.973 413.5,255.5C 412.876,257.754 411.543,259.421 409.5,260.5C 408.094,260.973 407.427,261.973 407.5,263.5C 402.203,270.464 396.203,276.798 389.5,282.5C 387.973,282.427 386.973,283.094 386.5,284.5C 385.833,285.833 384.833,286.833 383.5,287.5C 381.973,287.427 380.973,288.094 380.5,289.5C 376.049,293.61 371.049,296.944 365.5,299.5C 363.973,299.427 362.973,300.094 362.5,301.5C 358.818,304.008 354.818,306.008 350.5,307.5C 347.759,307.707 345.426,308.707 343.5,310.5C 342.791,311.404 341.791,311.737 340.5,311.5C 337.458,311.733 334.792,312.733 332.5,314.5C 331.432,315.434 330.099,315.768 328.5,315.5C 322.603,316.342 316.936,317.676 311.5,319.5C 311.167,319.5 310.833,319.5 310.5,319.5C 304.819,319.635 299.152,319.968 293.5,320.5C 282.482,320.619 271.482,320.286 260.5,319.5C 257.721,319.721 255.054,319.388 252.5,318.5C 249.495,316.723 246.162,315.723 242.5,315.5C 239.848,315.59 237.515,314.924 235.5,313.5C 233.898,311.926 231.898,311.259 229.5,311.5C 223.864,309.678 218.531,307.345 213.5,304.5C 213.027,303.094 212.027,302.427 210.5,302.5C 208.847,302.34 207.514,301.674 206.5,300.5C 206.027,299.094 205.027,298.427 203.5,298.5C 202.508,298.672 201.842,298.338 201.5,297.5C 201.027,296.094 200.027,295.427 198.5,295.5C 198.027,294.094 197.027,293.427 195.5,293.5C 194.738,291.738 193.404,290.738 191.5,290.5C 190.415,288.413 188.749,287.08 186.5,286.5C 185.415,284.413 183.749,283.08 181.5,282.5C 180.5,282.167 179.833,281.5 179.5,280.5C 176.833,277.167 173.833,274.167 170.5,271.5C 168.5,270.167 166.833,268.5 165.5,266.5C 165.573,264.973 164.906,263.973 163.5,263.5C 162.5,263.167 161.833,262.5 161.5,261.5C 161.262,259.596 160.262,258.262 158.5,257.5C 158.573,255.973 157.906,254.973 156.5,254.5C 156.446,252.368 155.446,251.035 153.5,250.5C 149.663,244.83 146.33,238.83 143.5,232.5C 143.293,229.759 142.293,227.426 140.5,225.5C 139.069,224.22 138.402,222.553 138.5,220.5C 138.267,217.458 137.267,214.792 135.5,212.5C 134.566,211.432 134.232,210.099 134.5,208.5C 134.102,204.239 133.102,200.239 131.5,196.5C 130.539,194.735 130.205,192.735 130.5,190.5C 129.017,177.548 128.351,164.548 128.5,151.5C 129.972,147.081 130.638,142.414 130.5,137.5C 130.448,135.097 130.781,132.764 131.5,130.5C 133.163,128.562 133.829,126.228 133.5,123.5C 134.924,121.485 135.59,119.152 135.5,116.5C 135.263,115.209 135.596,114.209 136.5,113.5C 138.915,110.66 140.248,107.327 140.5,103.5C 140.5,103.167 140.5,102.833 140.5,102.5C 142.176,101.817 142.843,100.483 142.5,98.5C 143.326,95.5152 144.659,92.8485 146.5,90.5C 147.906,90.0269 148.573,89.0269 148.5,87.5C 148.66,85.847 149.326,84.5137 150.5,83.5C 151.906,83.0269 152.573,82.0269 152.5,80.5C 152.328,79.5084 152.662,78.8417 153.5,78.5C 155.262,77.7377 156.262,76.4044 156.5,74.5C 157.906,74.0269 158.573,73.0269 158.5,71.5C 160.587,70.4154 161.92,68.7488 162.5,66.5C 164.262,65.7377 165.262,64.4044 165.5,62.5C 165.833,61.5 166.5,60.8333 167.5,60.5C 168.5,60.1667 169.167,59.5 169.5,58.5C 173.833,54.8333 177.833,50.8333 181.5,46.5C 184.089,45.5806 186.089,43.914 187.5,41.5C 189.749,40.9202 191.415,39.5869 192.5,37.5C 194.027,37.573 195.027,36.9063 195.5,35.5C 197.027,35.573 198.027,34.9063 198.5,33.5C 200.027,33.573 201.027,32.9063 201.5,31.5C 203.027,31.573 204.027,30.9063 204.5,29.5C 205.514,28.3263 206.847,27.6596 208.5,27.5C 210.027,27.573 211.027,26.9063 211.5,25.5C 212.514,24.3263 213.847,23.6596 215.5,23.5C 218.313,23.9754 220.313,22.9754 221.5,20.5C 222.391,19.8902 223.391,19.5569 224.5,19.5C 227.716,19.6545 230.383,18.6545 232.5,16.5C 236.915,16.1394 240.915,14.8061 244.5,12.5C 248.985,11.2162 253.651,10.2162 258.5,9.5C 264.051,9.47295 269.384,8.80629 274.5,7.5 Z M 291.5,69.5 C 292.919,70.4511 294.585,70.7845 296.5,70.5C 298.214,71.7384 300.214,72.405 302.5,72.5C 302.833,72.5 303.167,72.5 303.5,72.5C 304.93,73.5375 306.597,74.2041 308.5,74.5C 310.181,76.0075 312.181,77.0075 314.5,77.5C 314.973,78.9063 315.973,79.573 317.5,79.5C 317.973,80.9063 318.973,81.573 320.5,81.5C 320.833,82.5 321.5,83.1667 322.5,83.5C 323.5,85.1667 324.833,86.5 326.5,87.5C 326.833,88.5 327.5,89.1667 328.5,89.5C 328.427,91.0269 329.094,92.0269 330.5,92.5C 331.351,94.8816 332.684,96.8816 334.5,98.5C 334.66,100.153 335.326,101.486 336.5,102.5C 336.98,105.443 337.98,108.11 339.5,110.5C 339.232,112.099 339.566,113.432 340.5,114.5C 340.5,121.833 340.5,129.167 340.5,136.5C 340.5,136.833 340.5,137.167 340.5,137.5C 338.928,140.215 337.928,143.215 337.5,146.5C 336.069,147.78 335.402,149.447 335.5,151.5C 334.094,151.973 333.427,152.973 333.5,154.5C 332.662,154.842 332.328,155.508 332.5,156.5C 330.738,157.262 329.738,158.596 329.5,160.5C 326.167,163.167 323.167,166.167 320.5,169.5C 318.596,169.738 317.262,170.738 316.5,172.5C 315.508,172.328 314.842,172.662 314.5,173.5C 312.973,173.427 311.973,174.094 311.5,175.5C 308.982,176.264 306.649,177.264 304.5,178.5C 300.313,179.213 296.313,180.213 292.5,181.5C 287.833,181.5 283.167,181.5 278.5,181.5C 274.614,180.51 270.614,179.51 266.5,178.5C 263.021,176.597 259.354,174.93 255.5,173.5C 254.564,172.026 253.23,171.026 251.5,170.5C 248.526,167.862 245.526,165.195 242.5,162.5C 242.262,160.596 241.262,159.262 239.5,158.5C 239.573,156.973 238.906,155.973 237.5,155.5C 237.573,153.973 236.906,152.973 235.5,152.5C 235.598,150.447 234.931,148.78 233.5,147.5C 233.02,144.557 232.02,141.89 230.5,139.5C 230.802,136.941 230.468,134.607 229.5,132.5C 229.454,125.809 229.788,119.143 230.5,112.5C 231.434,111.432 231.768,110.099 231.5,108.5C 232.931,107.22 233.598,105.553 233.5,103.5C 235.008,101.819 236.008,99.8185 236.5,97.5C 237.906,97.0269 238.573,96.0269 238.5,94.5C 239.906,94.0269 240.573,93.0269 240.5,91.5C 241.167,91.5 241.5,91.1667 241.5,90.5C 243.262,89.7377 244.262,88.4044 244.5,86.5C 249.36,82.5771 254.36,78.9104 259.5,75.5C 261.38,75.7709 262.713,75.1042 263.5,73.5C 264.959,73.5674 266.292,73.2341 267.5,72.5C 275.326,70.2022 283.326,69.2022 291.5,69.5 Z M 296.5,199.5 C 304.829,200.998 313.162,202.998 321.5,205.5C 322.93,206.537 324.597,207.204 326.5,207.5C 330.182,210.008 334.182,212.008 338.5,213.5C 338.973,214.906 339.973,215.573 341.5,215.5C 341.842,216.338 342.508,216.672 343.5,216.5C 343.973,217.906 344.973,218.573 346.5,218.5C 347.262,220.262 348.596,221.262 350.5,221.5C 350.833,222.5 351.5,223.167 352.5,223.5C 355.167,226.833 358.167,229.833 361.5,232.5C 363.529,234.858 365.529,237.192 367.5,239.5C 368.026,241.23 369.026,242.564 370.5,243.5C 370.427,245.027 371.094,246.027 372.5,246.5C 373.263,248.368 374.263,250.035 375.5,251.5C 375.427,253.027 376.094,254.027 377.5,254.5C 377.66,256.153 378.326,257.486 379.5,258.5C 379.402,260.553 380.069,262.22 381.5,263.5C 381.385,265.947 380.385,267.947 378.5,269.5C 375.911,270.419 373.911,272.086 372.5,274.5C 370.596,274.738 369.262,275.738 368.5,277.5C 366.596,277.738 365.262,278.738 364.5,280.5C 362.973,280.427 361.973,281.094 361.5,282.5C 359.973,282.427 358.973,283.094 358.5,284.5C 358.167,284.5 357.833,284.5 357.5,284.5C 355.973,284.427 354.973,285.094 354.5,286.5C 348.849,288.659 343.516,291.326 338.5,294.5C 335.215,294.928 332.215,295.928 329.5,297.5C 327.214,297.595 325.214,298.262 323.5,299.5C 320.097,299.851 316.763,300.518 313.5,301.5C 307.614,301.98 301.948,302.98 296.5,304.5C 282.712,304.973 269.046,303.973 255.5,301.5C 255.167,301.5 254.833,301.5 254.5,301.5C 252.401,300.388 250.067,299.721 247.5,299.5C 244.381,298.13 241.048,297.13 237.5,296.5C 234.47,294.597 231.137,293.263 227.5,292.5C 223.818,289.992 219.818,287.992 215.5,286.5C 215.027,285.094 214.027,284.427 212.5,284.5C 212.158,283.662 211.492,283.328 210.5,283.5C 209.564,282.026 208.23,281.026 206.5,280.5C 205.205,279.512 203.872,278.512 202.5,277.5C 202.027,276.094 201.027,275.427 199.5,275.5C 199.5,274.833 199.167,274.5 198.5,274.5C 198.027,273.094 197.027,272.427 195.5,272.5C 194.5,270.833 193.167,269.5 191.5,268.5C 190.5,267.167 189.5,265.833 188.5,264.5C 190.293,262.574 191.293,260.241 191.5,257.5C 192.338,257.158 192.672,256.492 192.5,255.5C 193.906,255.027 194.573,254.027 194.5,252.5C 196.57,248.7 198.903,245.034 201.5,241.5C 202.906,241.027 203.573,240.027 203.5,238.5C 204.833,237.833 205.833,236.833 206.5,235.5C 207.906,235.027 208.573,234.027 208.5,232.5C 210.833,230.833 212.833,228.833 214.5,226.5C 216.404,226.262 217.738,225.262 218.5,223.5C 226.361,217.404 234.694,212.071 243.5,207.5C 245.553,207.598 247.22,206.931 248.5,205.5C 250.786,205.405 252.786,204.738 254.5,203.5C 257.152,203.59 259.485,202.924 261.5,201.5C 263.565,201.483 265.565,201.15 267.5,200.5C 277.146,199.713 286.812,199.38 296.5,199.5 Z"/></g>
<g><path style="opacity:0.075" fill="#b4b4b4" d="M 320.5,11.5 C 324.57,11.4318 328.237,12.4318 331.5,14.5C 327.603,13.9448 323.937,12.9448 320.5,11.5 Z"/></g>
<g><path style="opacity:0.776" fill="#7d7d7d" d="M 244.5,12.5 C 240.915,14.8061 236.915,16.1394 232.5,16.5C 236.216,14.5947 240.216,13.2613 244.5,12.5 Z"/></g>
<g><path style="opacity:0.271" fill="#b3b3b3" d="M 338.5,16.5 C 341.241,16.7073 343.574,17.7073 345.5,19.5C 342.759,19.2927 340.426,18.2927 338.5,16.5 Z"/></g>
<g><path style="opacity:0.863" fill="#656565" d="M 232.5,16.5 C 230.383,18.6545 227.716,19.6545 224.5,19.5C 226.89,17.9802 229.557,16.9802 232.5,16.5 Z"/></g>
<g><path style="opacity:0.98" fill="#757575" d="M 221.5,20.5 C 220.313,22.9754 218.313,23.9754 215.5,23.5C 217.181,21.9925 219.181,20.9925 221.5,20.5 Z"/></g>
<g><path style="opacity:0.612" fill="#9b9b9b" d="M 211.5,25.5 C 211.027,26.9063 210.027,27.573 208.5,27.5C 208.973,26.0937 209.973,25.427 211.5,25.5 Z"/></g>
<g><path style="opacity:0.114" fill="#cccccc" d="M 364.5,28.5 C 366.027,28.427 367.027,29.0937 367.5,30.5C 365.973,30.573 364.973,29.9063 364.5,28.5 Z"/></g>
<g><path style="opacity:0.608" fill="#9e9e9e" d="M 204.5,29.5 C 204.027,30.9063 203.027,31.573 201.5,31.5C 201.973,30.0937 202.973,29.427 204.5,29.5 Z"/></g>
<g><path style="opacity:0.749" fill="#818181" d="M 201.5,31.5 C 201.027,32.9063 200.027,33.573 198.5,33.5C 198.973,32.0937 199.973,31.427 201.5,31.5 Z"/></g>
<g><path style="opacity:0.91" fill="#787878" d="M 369.5,31.5 C 370.71,31.9321 371.71,32.5987 372.5,33.5C 370.821,33.7148 369.821,33.0481 369.5,31.5 Z"/></g>
<g><path style="opacity:0.729" fill="#7d7d7d" d="M 198.5,33.5 C 198.027,34.9063 197.027,35.573 195.5,35.5C 195.973,34.0937 196.973,33.427 198.5,33.5 Z"/></g>
<g><path style="opacity:0.957" fill="#757575" d="M 372.5,33.5 C 374.23,34.0256 375.564,35.0256 376.5,36.5C 374.368,36.4456 373.035,35.4456 372.5,33.5 Z"/></g>
<g><path style="opacity:0.698" fill="#898989" d="M 195.5,35.5 C 195.027,36.9063 194.027,37.573 192.5,37.5C 192.973,36.0937 193.973,35.427 195.5,35.5 Z"/></g>
<g><path style="opacity:0.851" fill="#777777" d="M 192.5,37.5 C 191.415,39.5869 189.749,40.9202 187.5,41.5C 188.585,39.4131 190.251,38.0798 192.5,37.5 Z"/></g>
<g><path style="opacity:0.816" fill="#6d6d6d" d="M 187.5,41.5 C 186.089,43.914 184.089,45.5806 181.5,46.5C 182.911,44.086 184.911,42.4194 187.5,41.5 Z"/></g>
<g><path style="opacity:0.545" fill="#959595" d="M 384.5,42.5 C 386.754,43.1237 388.421,44.457 389.5,46.5C 387.205,45.8645 385.539,44.5311 384.5,42.5 Z"/></g>
<g><path style="opacity:0.525" fill="#a2a2a2" d="M 181.5,46.5 C 177.833,50.8333 173.833,54.8333 169.5,58.5C 172.5,53.5 176.5,49.5 181.5,46.5 Z"/></g>
<g><path style="opacity:0.373" fill="#b1b1b1" d="M 169.5,58.5 C 169.167,59.5 168.5,60.1667 167.5,60.5C 167.5,59.1667 168.167,58.5 169.5,58.5 Z"/></g>
<g><path style="opacity:0.725" fill="#949494" d="M 401.5,58.5 C 403.262,59.2623 404.262,60.5956 404.5,62.5C 402.738,61.7377 401.738,60.4044 401.5,58.5 Z"/></g>
<g><path style="opacity:0.71" fill="#999999" d="M 165.5,62.5 C 165.262,64.4044 164.262,65.7377 162.5,66.5C 162.738,64.5956 163.738,63.2623 165.5,62.5 Z"/></g>
<g><path style="opacity:0.788" fill="#888888" d="M 406.5,64.5 C 408.262,65.2623 409.262,66.5956 409.5,68.5C 407.738,67.7377 406.738,66.4044 406.5,64.5 Z"/></g>
<g><path style="opacity:0.859" fill="#787878" d="M 409.5,68.5 C 411.262,69.2623 412.262,70.5956 412.5,72.5C 410.738,71.7377 409.738,70.4044 409.5,68.5 Z"/></g>
<g><path style="opacity:0.302" fill="#a1a1a1" d="M 162.5,66.5 C 161.92,68.7488 160.587,70.4154 158.5,71.5C 159.08,69.2512 160.413,67.5846 162.5,66.5 Z"/></g>
<g><path style="opacity:0.125" fill="#a2a2a2" d="M 291.5,69.5 C 283.326,69.2022 275.326,70.2022 267.5,72.5C 275.172,68.6676 283.172,67.6676 291.5,69.5 Z"/></g>
<g><path style="opacity:0.847" fill="#8f8f8f" d="M 296.5,70.5 C 299.01,70.0535 301.01,70.7202 302.5,72.5C 300.214,72.405 298.214,71.7384 296.5,70.5 Z"/></g>
<g><path style="opacity:0.816" fill="#7f7f7f" d="M 303.5,72.5 C 305.698,72.1201 307.365,72.7868 308.5,74.5C 306.597,74.2041 304.93,73.5375 303.5,72.5 Z"/></g>
<g><path style="opacity:0.416" fill="#a5a5a5" d="M 158.5,71.5 C 158.573,73.0269 157.906,74.0269 156.5,74.5C 156.427,72.9731 157.094,71.9731 158.5,71.5 Z"/></g>
<g><path style="opacity:0.2" fill="#b9b9b9" d="M 263.5,73.5 C 262.713,75.1042 261.38,75.7709 259.5,75.5C 260.514,74.3263 261.847,73.6596 263.5,73.5 Z"/></g>
<g><path style="opacity:0.616" fill="#8b8b8b" d="M 412.5,72.5 C 414.262,73.2623 415.262,74.5956 415.5,76.5C 413.738,75.7377 412.738,74.4044 412.5,72.5 Z"/></g>
<g><path style="opacity:0.541" fill="#9a9a9a" d="M 156.5,74.5 C 156.262,76.4044 155.262,77.7377 153.5,78.5C 153.738,76.5956 154.738,75.2623 156.5,74.5 Z"/></g>
<g><path style="opacity:0.392" fill="#a0a0a0" d="M 314.5,77.5 C 316.027,77.427 317.027,78.0937 317.5,79.5C 315.973,79.573 314.973,78.9063 314.5,77.5 Z"/></g>
<g><path style="opacity:0.376" fill="#a4a4a4" d="M 415.5,76.5 C 416.906,76.9731 417.573,77.9731 417.5,79.5C 416.094,79.0269 415.427,78.0269 415.5,76.5 Z"/></g>
<g><path style="opacity:0.58" fill="#848484" d="M 317.5,79.5 C 319.027,79.427 320.027,80.0937 320.5,81.5C 318.973,81.573 317.973,80.9063 317.5,79.5 Z"/></g>
<g><path style="opacity:0.314" fill="#b2b2b2" d="M 417.5,79.5 C 418.906,79.9731 419.573,80.9731 419.5,82.5C 418.094,82.0269 417.427,81.0269 417.5,79.5 Z"/></g>
<g><path style="opacity:0.412" fill="#9b9b9b" d="M 152.5,80.5 C 152.573,82.0269 151.906,83.0269 150.5,83.5C 150.427,81.9731 151.094,80.9731 152.5,80.5 Z"/></g>
<g><path style="opacity:0.804" fill="#898989" d="M 322.5,83.5 C 324.833,83.8333 326.167,85.1667 326.5,87.5C 324.833,86.5 323.5,85.1667 322.5,83.5 Z"/></g>
<g><path style="opacity:0.012" fill="#cccccc" d="M 244.5,86.5 C 244.262,88.4044 243.262,89.7377 241.5,90.5C 241.738,88.5956 242.738,87.2623 244.5,86.5 Z"/></g>
<g><path style="opacity:0.392" fill="#9d9d9d" d="M 421.5,86.5 C 422.906,86.9731 423.573,87.9731 423.5,89.5C 422.094,89.0269 421.427,88.0269 421.5,86.5 Z"/></g>
<g><path style="opacity:0.373" fill="#9e9e9e" d="M 148.5,87.5 C 148.573,89.0269 147.906,90.0269 146.5,90.5C 146.427,88.9731 147.094,87.9731 148.5,87.5 Z"/></g>
<g><path style="opacity:0.02" fill="#cdcdcd" d="M 328.5,89.5 C 329.906,89.9731 330.573,90.9731 330.5,92.5C 329.094,92.0269 328.427,91.0269 328.5,89.5 Z"/></g>
<g><path style="opacity:0.012" fill="#c7c7c7" d="M 240.5,91.5 C 240.573,93.0269 239.906,94.0269 238.5,94.5C 238.427,92.9731 239.094,91.9731 240.5,91.5 Z"/></g>
<g><path style="opacity:0.157" fill="#c2c2c2" d="M 238.5,94.5 C 238.573,96.0269 237.906,97.0269 236.5,97.5C 236.427,95.9731 237.094,94.9731 238.5,94.5 Z"/></g>
<g><path style="opacity:0.118" fill="#adadad" d="M 330.5,92.5 C 332.796,93.733 334.13,95.733 334.5,98.5C 332.684,96.8816 331.351,94.8816 330.5,92.5 Z"/></g>
<g><path style="opacity:0.957" fill="#737373" d="M 142.5,98.5 C 142.843,100.483 142.176,101.817 140.5,102.5C 140.66,100.847 141.326,99.5137 142.5,98.5 Z"/></g>
<g><path style="opacity:0.957" fill="#777777" d="M 428.5,99.5 C 429.674,100.514 430.34,101.847 430.5,103.5C 428.824,102.817 428.157,101.483 428.5,99.5 Z"/></g>
<g><path style="opacity:0.263" fill="#b6b6b6" d="M 336.5,102.5 C 338.585,104.684 339.585,107.351 339.5,110.5C 337.98,108.11 336.98,105.443 336.5,102.5 Z"/></g>
<g><path style="opacity:0.969" fill="#6b6b6b" d="M 140.5,103.5 C 140.248,107.327 138.915,110.66 136.5,113.5C 136.872,109.703 138.206,106.37 140.5,103.5 Z"/></g>
<g><path style="opacity:0.4" fill="#a9a9a9" d="M 233.5,103.5 C 233.598,105.553 232.931,107.22 231.5,108.5C 231.402,106.447 232.069,104.78 233.5,103.5 Z"/></g>
<g><path style="opacity:0.933" fill="#747474" d="M 430.5,104.5 C 432.065,106.509 433.065,108.843 433.5,111.5C 431.166,109.824 430.166,107.491 430.5,104.5 Z"/></g>
<g><path style="opacity:0.875" fill="#828282" d="M 434.5,115.5 C 436.816,119.794 438.15,124.46 438.5,129.5C 436.565,125.105 435.231,120.438 434.5,115.5 Z"/></g>
<g><path style="opacity:0.722" fill="#979797" d="M 135.5,116.5 C 135.59,119.152 134.924,121.485 133.5,123.5C 133.41,120.848 134.076,118.515 135.5,116.5 Z"/></g>
<g><path style="opacity:0.592" fill="#878787" d="M 340.5,114.5 C 343.167,121.833 343.167,129.167 340.5,136.5C 340.5,129.167 340.5,121.833 340.5,114.5 Z"/></g>
<g><path style="opacity:0.196" fill="#b5b5b5" d="M 230.5,112.5 C 229.788,119.143 229.454,125.809 229.5,132.5C 228.836,130.022 228.503,127.355 228.5,124.5C 228.337,120.223 229.003,116.223 230.5,112.5 Z"/></g>
<g><path style="opacity:0.808" fill="#919191" d="M 133.5,123.5 C 133.829,126.228 133.163,128.562 131.5,130.5C 131.41,127.848 132.076,125.515 133.5,123.5 Z"/></g>
<g><path style="opacity:0.78" fill="#919191" d="M 340.5,137.5 C 340.472,140.916 339.472,143.916 337.5,146.5C 337.928,143.215 338.928,140.215 340.5,137.5 Z"/></g>
<g><path style="opacity:0.812" fill="#878787" d="M 230.5,139.5 C 232.02,141.89 233.02,144.557 233.5,147.5C 231.345,145.383 230.345,142.716 230.5,139.5 Z"/></g>
<g><path style="opacity:0.518" fill="#8e8e8e" d="M 130.5,137.5 C 130.638,142.414 129.972,147.081 128.5,151.5C 128.362,146.586 129.028,141.919 130.5,137.5 Z"/></g>
<g><path style="opacity:0.353" fill="#a6a6a6" d="M 335.5,151.5 C 335.573,153.027 334.906,154.027 333.5,154.5C 333.427,152.973 334.094,151.973 335.5,151.5 Z"/></g>
<g><path style="opacity:0.267" fill="#aeaeae" d="M 440.5,139.5 C 442.027,147.958 443.027,156.624 443.5,165.5C 443.247,167.858 442.914,170.192 442.5,172.5C 442.167,172.5 441.833,172.5 441.5,172.5C 441.619,161.482 441.286,150.482 440.5,139.5 Z"/></g>
<g><path style="opacity:0.42" fill="#969696" d="M 235.5,152.5 C 236.906,152.973 237.573,153.973 237.5,155.5C 236.094,155.027 235.427,154.027 235.5,152.5 Z"/></g>
<g><path style="opacity:0.427" fill="#a4a4a4" d="M 237.5,155.5 C 238.906,155.973 239.573,156.973 239.5,158.5C 238.094,158.027 237.427,157.027 237.5,155.5 Z"/></g>
<g><path style="opacity:0.643" fill="#868686" d="M 332.5,156.5 C 332.262,158.404 331.262,159.738 329.5,160.5C 329.738,158.596 330.738,157.262 332.5,156.5 Z"/></g>
<g><path style="opacity:0.588" fill="#909090" d="M 239.5,158.5 C 241.262,159.262 242.262,160.596 242.5,162.5C 240.738,161.738 239.738,160.404 239.5,158.5 Z"/></g>
<g><path style="opacity:0.639" fill="#909090" d="M 329.5,160.5 C 327.5,164.5 324.5,167.5 320.5,169.5C 323.167,166.167 326.167,163.167 329.5,160.5 Z"/></g>
<g><path style="opacity:0.494" fill="#a1a1a1" d="M 320.5,169.5 C 319.738,171.262 318.404,172.262 316.5,172.5C 317.262,170.738 318.596,169.738 320.5,169.5 Z"/></g>
<g><path style="opacity:0.922" fill="#7b7b7b" d="M 251.5,170.5 C 253.23,171.026 254.564,172.026 255.5,173.5C 253.368,173.446 252.035,172.446 251.5,170.5 Z"/></g>
<g><path style="opacity:0.58" fill="#a4a4a4" d="M 314.5,173.5 C 314.027,174.906 313.027,175.573 311.5,175.5C 311.973,174.094 312.973,173.427 314.5,173.5 Z"/></g>
<g><path style="opacity:0.796" fill="#8b8b8b" d="M 304.5,178.5 C 300.924,180.728 296.924,181.728 292.5,181.5C 296.313,180.213 300.313,179.213 304.5,178.5 Z"/></g>
<g><path style="opacity:0.078" fill="#c8c8c8" d="M 441.5,172.5 C 441.833,172.5 442.167,172.5 442.5,172.5C 442.745,178.084 442.078,183.417 440.5,188.5C 440.98,183.178 441.313,177.845 441.5,172.5 Z"/></g>
<g><path style="opacity:0.361" fill="#9f9f9f" d="M 266.5,178.5 C 270.614,179.51 274.614,180.51 278.5,181.5C 274.018,181.966 270.018,180.966 266.5,178.5 Z"/></g>
<g><path style="opacity:0.388" fill="#b4b4b4" d="M 128.5,151.5 C 128.351,164.548 129.017,177.548 130.5,190.5C 129.055,186.079 128.222,181.412 128,176.5C 127.177,167.99 127.343,159.656 128.5,151.5 Z"/></g>
<g><path style="opacity:0.129" fill="#b8b8b8" d="M 296.5,199.5 C 286.812,199.38 277.146,199.713 267.5,200.5C 273.092,199.007 278.926,198.341 285,198.5C 289.015,198.501 292.849,198.835 296.5,199.5 Z"/></g>
<g><path style="opacity:0.106" fill="#adadad" d="M 131.5,196.5 C 133.102,200.239 134.102,204.239 134.5,208.5C 132.308,204.902 131.308,200.902 131.5,196.5 Z"/></g>
<g><path style="opacity:0.169" fill="#c2c2c2" d="M 439.5,195.5 C 439.324,198.727 438.657,201.727 437.5,204.5C 437.215,201.171 437.882,198.171 439.5,195.5 Z"/></g>
<g><path style="opacity:0.039" fill="#c5c5c5" d="M 261.5,201.5 C 259.485,202.924 257.152,203.59 254.5,203.5C 256.515,202.076 258.848,201.41 261.5,201.5 Z"/></g>
<g><path style="opacity:0.8" fill="#808080" d="M 321.5,205.5 C 323.698,205.12 325.365,205.787 326.5,207.5C 324.597,207.204 322.93,206.537 321.5,205.5 Z"/></g>
<g><path style="opacity:0.2" fill="#aeaeae" d="M 248.5,205.5 C 247.22,206.931 245.553,207.598 243.5,207.5C 244.78,206.069 246.447,205.402 248.5,205.5 Z"/></g>
<g><path style="opacity:0.514" fill="#9f9f9f" d="M 437.5,204.5 C 437.405,206.786 436.738,208.786 435.5,210.5C 435.259,208.102 435.926,206.102 437.5,204.5 Z"/></g>
<g><path style="opacity:0.314" fill="#afafaf" d="M 338.5,213.5 C 340.027,213.427 341.027,214.094 341.5,215.5C 339.973,215.573 338.973,214.906 338.5,213.5 Z"/></g>
<g><path style="opacity:0.42" fill="#a4a4a4" d="M 135.5,212.5 C 137.267,214.792 138.267,217.458 138.5,220.5C 136.733,218.208 135.733,215.542 135.5,212.5 Z"/></g>
<g><path style="opacity:0.008" fill="#cbcbcb" d="M 434.5,213.5 C 434.741,215.898 434.074,217.898 432.5,219.5C 432.595,217.214 433.262,215.214 434.5,213.5 Z"/></g>
<g><path style="opacity:0.545" fill="#8c8c8c" d="M 343.5,216.5 C 345.027,216.427 346.027,217.094 346.5,218.5C 344.973,218.573 343.973,217.906 343.5,216.5 Z"/></g>
<g><path style="opacity:0.843" fill="#787878" d="M 346.5,218.5 C 348.404,218.738 349.738,219.738 350.5,221.5C 348.596,221.262 347.262,220.262 346.5,218.5 Z"/></g>
<g><path style="opacity:0.808" fill="#9e9e9e" d="M 352.5,223.5 C 356.5,225.5 359.5,228.5 361.5,232.5C 358.167,229.833 355.167,226.833 352.5,223.5 Z"/></g>
<g><path style="opacity:0.012" fill="#d2d2d2" d="M 218.5,223.5 C 217.738,225.262 216.404,226.262 214.5,226.5C 215.262,224.738 216.596,223.738 218.5,223.5 Z"/></g>
<g><path style="opacity:0.235" fill="#bababa" d="M 430.5,224.5 C 430.293,227.241 429.293,229.574 427.5,231.5C 427.707,228.759 428.707,226.426 430.5,224.5 Z"/></g>
<g><path style="opacity:0.255" fill="#b7b7b7" d="M 140.5,225.5 C 142.293,227.426 143.293,229.759 143.5,232.5C 141.707,230.574 140.707,228.241 140.5,225.5 Z"/></g>
<g><path style="opacity:0.004" fill="#cbcbcb" d="M 208.5,232.5 C 208.573,234.027 207.906,235.027 206.5,235.5C 206.427,233.973 207.094,232.973 208.5,232.5 Z"/></g>
<g><path style="opacity:0.027" fill="#c6c6c6" d="M 203.5,238.5 C 203.573,240.027 202.906,241.027 201.5,241.5C 201.427,239.973 202.094,238.973 203.5,238.5 Z"/></g>
<g><path style="opacity:0.878" fill="#8a8a8a" d="M 367.5,239.5 C 369.446,240.035 370.446,241.368 370.5,243.5C 369.026,242.564 368.026,241.23 367.5,239.5 Z"/></g>
<g><path style="opacity:0.004" fill="#d7d7d7" d="M 370.5,243.5 C 371.906,243.973 372.573,244.973 372.5,246.5C 371.094,246.027 370.427,245.027 370.5,243.5 Z"/></g>
<g><path style="opacity:0.902" fill="#818181" d="M 153.5,250.5 C 155.446,251.035 156.446,252.368 156.5,254.5C 155.026,253.564 154.026,252.23 153.5,250.5 Z"/></g>
<g><path style="opacity:0.133" fill="#c7c7c7" d="M 417.5,249.5 C 417.573,251.027 416.906,252.027 415.5,252.5C 415.427,250.973 416.094,249.973 417.5,249.5 Z"/></g>
<g><path style="opacity:0.161" fill="#c0c0c0" d="M 375.5,251.5 C 376.906,251.973 377.573,252.973 377.5,254.5C 376.094,254.027 375.427,253.027 375.5,251.5 Z"/></g>
<g><path style="opacity:0.008" fill="#d1d1d1" d="M 415.5,252.5 C 415.573,254.027 414.906,255.027 413.5,255.5C 413.427,253.973 414.094,252.973 415.5,252.5 Z"/></g>
<g><path style="opacity:0.125" fill="#cbcbcb" d="M 194.5,252.5 C 194.573,254.027 193.906,255.027 192.5,255.5C 192.427,253.973 193.094,252.973 194.5,252.5 Z"/></g>
<g><path style="opacity:0.008" fill="#cacaca" d="M 156.5,254.5 C 157.906,254.973 158.573,255.973 158.5,257.5C 157.094,257.027 156.427,256.027 156.5,254.5 Z"/></g>
<g><path style="opacity:0.004" fill="#cbcbcb" d="M 158.5,257.5 C 160.262,258.262 161.262,259.596 161.5,261.5C 159.738,260.738 158.738,259.404 158.5,257.5 Z"/></g>
<g><path style="opacity:0.235" fill="#b9b9b9" d="M 191.5,257.5 C 191.293,260.241 190.293,262.574 188.5,264.5C 188.707,261.759 189.707,259.426 191.5,257.5 Z"/></g>
<g><path style="opacity:0.275" fill="#b6b6b6" d="M 379.5,258.5 C 380.931,259.78 381.598,261.447 381.5,263.5C 380.069,262.22 379.402,260.553 379.5,258.5 Z"/></g>
<g><path style="opacity:0.004" fill="#cbcbcb" d="M 409.5,260.5 C 409.573,262.027 408.906,263.027 407.5,263.5C 407.427,261.973 408.094,260.973 409.5,260.5 Z"/></g>
<g><path style="opacity:0.043" fill="#bdbdbd" d="M 163.5,263.5 C 164.906,263.973 165.573,264.973 165.5,266.5C 164.094,266.027 163.427,265.027 163.5,263.5 Z"/></g>
<g><path style="opacity:0.576" fill="#9e9e9e" d="M 188.5,264.5 C 189.5,265.833 190.5,267.167 191.5,268.5C 188.668,268.058 187.668,266.725 188.5,264.5 Z"/></g>
<g><path style="opacity:0.969" fill="#525252" d="M 381.5,263.5 C 383.191,266.664 382.191,268.664 378.5,269.5C 380.385,267.947 381.385,265.947 381.5,263.5 Z"/></g>
<g><path style="opacity:0.529" fill="#909090" d="M 378.5,269.5 C 377.089,271.914 375.089,273.581 372.5,274.5C 373.911,272.086 375.911,270.419 378.5,269.5 Z"/></g>
<g><path style="opacity:0.016" fill="#b9b9b9" d="M 170.5,271.5 C 173.833,274.167 176.833,277.167 179.5,280.5C 175.5,278.5 172.5,275.5 170.5,271.5 Z"/></g>
<g><path style="opacity:0.016" fill="#cbcbcb" d="M 195.5,272.5 C 197.027,272.427 198.027,273.094 198.5,274.5C 196.973,274.573 195.973,273.906 195.5,272.5 Z"/></g>
<g><path style="opacity:0.008" fill="#cecece" d="M 199.5,275.5 C 201.027,275.427 202.027,276.094 202.5,277.5C 200.973,277.573 199.973,276.906 199.5,275.5 Z"/></g>
<g><path style="opacity:0.659" fill="#868686" d="M 372.5,274.5 C 371.738,276.262 370.404,277.262 368.5,277.5C 369.262,275.738 370.596,274.738 372.5,274.5 Z"/></g>
<g><path style="opacity:0.643" fill="#878787" d="M 368.5,277.5 C 367.738,279.262 366.404,280.262 364.5,280.5C 365.262,278.738 366.596,277.738 368.5,277.5 Z"/></g>
<g><path style="opacity:0.839" fill="#858585" d="M 206.5,280.5 C 208.23,281.026 209.564,282.026 210.5,283.5C 208.368,283.446 207.035,282.446 206.5,280.5 Z"/></g>
<g><path style="opacity:0.604" fill="#959595" d="M 364.5,280.5 C 364.027,281.906 363.027,282.573 361.5,282.5C 361.973,281.094 362.973,280.427 364.5,280.5 Z"/></g>
<g><path style="opacity:0.804" fill="#8c8c8c" d="M 181.5,282.5 C 183.749,283.08 185.415,284.413 186.5,286.5C 184.251,285.92 182.585,284.587 181.5,282.5 Z"/></g>
<g><path style="opacity:0.737" fill="#808080" d="M 361.5,282.5 C 361.027,283.906 360.027,284.573 358.5,284.5C 358.973,283.094 359.973,282.427 361.5,282.5 Z"/></g>
<g><path style="opacity:0.008" fill="#d6d6d6" d="M 389.5,282.5 C 389.027,283.906 388.027,284.573 386.5,284.5C 386.973,283.094 387.973,282.427 389.5,282.5 Z"/></g>
<g><path style="opacity:0.188" fill="#bbbbbb" d="M 212.5,284.5 C 214.027,284.427 215.027,285.094 215.5,286.5C 213.973,286.573 212.973,285.906 212.5,284.5 Z"/></g>
<g><path style="opacity:0.514" fill="#b1b1b1" d="M 357.5,284.5 C 357.027,285.906 356.027,286.573 354.5,286.5C 354.973,285.094 355.973,284.427 357.5,284.5 Z"/></g>
<g><path style="opacity:0.62" fill="#898989" d="M 186.5,286.5 C 188.749,287.08 190.415,288.413 191.5,290.5C 189.251,289.92 187.585,288.587 186.5,286.5 Z"/></g>
<g><path style="opacity:0.004" fill="#dadada" d="M 383.5,287.5 C 383.027,288.906 382.027,289.573 380.5,289.5C 380.973,288.094 381.973,287.427 383.5,287.5 Z"/></g>
<g><path style="opacity:0.51" fill="#9c9c9c" d="M 191.5,290.5 C 193.404,290.738 194.738,291.738 195.5,293.5C 193.596,293.262 192.262,292.262 191.5,290.5 Z"/></g>
<g><path style="opacity:0.231" fill="#b0b0b0" d="M 227.5,292.5 C 231.137,293.263 234.47,294.597 237.5,296.5C 233.703,296.128 230.37,294.794 227.5,292.5 Z"/></g>
<g><path style="opacity:0.365" fill="#aeaeae" d="M 195.5,293.5 C 197.027,293.427 198.027,294.094 198.5,295.5C 196.973,295.573 195.973,294.906 195.5,293.5 Z"/></g>
<g><path style="opacity:0.259" fill="#bcbcbc" d="M 198.5,295.5 C 200.027,295.427 201.027,296.094 201.5,297.5C 199.973,297.573 198.973,296.906 198.5,295.5 Z"/></g>
<g><path style="opacity:0.827" fill="#7a7a7a" d="M 338.5,294.5 C 335.916,296.472 332.916,297.472 329.5,297.5C 332.215,295.928 335.215,294.928 338.5,294.5 Z"/></g>
<g><path style="opacity:0.945" fill="#7b7b7b" d="M 329.5,297.5 C 328.01,299.28 326.01,299.946 323.5,299.5C 325.214,298.262 327.214,297.595 329.5,297.5 Z"/></g>
<g><path style="opacity:0.349" fill="#a4a4a4" d="M 203.5,298.5 C 205.027,298.427 206.027,299.094 206.5,300.5C 204.973,300.573 203.973,299.906 203.5,298.5 Z"/></g>
<g><path style="opacity:0.788" fill="#6f6f6f" d="M 247.5,299.5 C 250.067,299.721 252.401,300.388 254.5,301.5C 251.772,301.829 249.438,301.163 247.5,299.5 Z"/></g>
<g><path style="opacity:0.02" fill="#d2d2d2" d="M 365.5,299.5 C 365.027,300.906 364.027,301.573 362.5,301.5C 362.973,300.094 363.973,299.427 365.5,299.5 Z"/></g>
<g><path style="opacity:0.275" fill="#b1b1b1" d="M 210.5,302.5 C 212.027,302.427 213.027,303.094 213.5,304.5C 211.973,304.573 210.973,303.906 210.5,302.5 Z"/></g>
<g><path style="opacity:0.745" fill="#979797" d="M 313.5,301.5 C 313.082,302.222 312.416,302.722 311.5,303C 306.536,303.912 301.536,304.412 296.5,304.5C 301.948,302.98 307.614,301.98 313.5,301.5 Z"/></g>
<g><path style="opacity:0.375" fill="#878787" d="M 255.5,301.5 C 269.046,303.973 282.712,304.973 296.5,304.5C 282.636,306.398 268.969,305.398 255.5,301.5 Z"/></g>
<g><path style="opacity:0.267" fill="#b2b2b2" d="M 350.5,307.5 C 348.574,309.293 346.241,310.293 343.5,310.5C 345.426,308.707 347.759,307.707 350.5,307.5 Z"/></g>
<g><path style="opacity:0.776" fill="#868686" d="M 229.5,311.5 C 231.898,311.259 233.898,311.926 235.5,313.5C 233.214,313.405 231.214,312.738 229.5,311.5 Z"/></g>
<g><path style="opacity:0.024" fill="#bdbdbd" d="M 340.5,311.5 C 338.208,313.267 335.542,314.267 332.5,314.5C 334.792,312.733 337.458,311.733 340.5,311.5 Z"/></g>
<g><path style="opacity:0.588" fill="#999999" d="M 242.5,315.5 C 246.162,315.723 249.495,316.723 252.5,318.5C 248.838,318.277 245.505,317.277 242.5,315.5 Z"/></g>
<g><path style="opacity:0.173" fill="#b5b5b5" d="M 328.5,315.5 C 323.183,317.834 317.516,319.167 311.5,319.5C 316.936,317.676 322.603,316.342 328.5,315.5 Z"/></g>
<g><path style="opacity:0.439" fill="#939393" d="M 260.5,319.5 C 271.482,320.286 282.482,320.619 293.5,320.5C 293.5,320.833 293.5,321.167 293.5,321.5C 282.411,322.765 271.411,322.099 260.5,319.5 Z"/></g>
<g><path style="opacity:0.184" fill="#9c9c9c" d="M 310.5,319.5 C 305.071,321.012 299.404,321.679 293.5,321.5C 293.5,321.167 293.5,320.833 293.5,320.5C 299.152,319.968 304.819,319.635 310.5,319.5 Z"/></g>
<g><path style="opacity:0.557" fill="#919191" d="M 104.5,351.5 C 101.763,351.401 99.0961,351.735 96.5,352.5C 97.4919,350.974 98.9919,350.307 101,350.5C 102.385,350.514 103.551,350.848 104.5,351.5 Z"/></g>
<g><path style="opacity:1" fill="#161616" d="M 104.5,351.5 C 105.492,351.328 106.158,351.662 106.5,352.5C 106.427,354.027 107.094,355.027 108.5,355.5C 109.147,356.274 109.48,357.274 109.5,358.5C 109.66,360.355 108.993,361.688 107.5,362.5C 106.5,362.833 105.833,363.5 105.5,364.5C 103.5,364.833 101.5,365.167 99.5,365.5C 99.1667,365.5 98.8333,365.5 98.5,365.5C 98.0269,364.094 97.0269,363.427 95.5,363.5C 95.3404,361.847 94.6737,360.514 93.5,359.5C 92.3143,358.295 92.3143,356.961 93.5,355.5C 94.8333,354.833 95.8333,353.833 96.5,352.5C 99.0961,351.735 101.763,351.401 104.5,351.5 Z"/></g>
<g><path style="opacity:0.106" fill="#dddddd" d="M 34.5,353.5 C 29.8468,352.999 25.5135,353.666 21.5,355.5C 21.5,354.5 21.5,353.5 21.5,352.5C 26.0323,352.182 30.3656,352.515 34.5,353.5 Z"/></g>
<g><path style="opacity:0.108" fill="#dadada" d="M 64.5,353.5 C 68.6344,352.515 72.9677,352.182 77.5,352.5C 77.5,353.5 77.5,354.5 77.5,355.5C 73.4865,353.666 69.1532,352.999 64.5,353.5 Z"/></g>
<g><path style="opacity:1" fill="#101010" d="M 34.5,353.5 C 34.3455,356.716 35.3455,359.383 37.5,361.5C 38.6693,364.341 39.6693,367.341 40.5,370.5C 40.2594,372.898 40.9261,374.898 42.5,376.5C 42.5,376.833 42.5,377.167 42.5,377.5C 42.1201,379.698 42.7868,381.365 44.5,382.5C 44.2594,384.898 44.9261,386.898 46.5,388.5C 46.5,388.833 46.5,389.167 46.5,389.5C 46.3773,392.588 47.3773,395.255 49.5,397.5C 50.2975,397.043 50.6309,396.376 50.5,395.5C 50.5,395.167 50.5,394.833 50.5,394.5C 53,391.34 54.3333,387.673 54.5,383.5C 54.4326,382.041 54.7659,380.708 55.5,379.5C 57.6545,377.383 58.6545,374.716 58.5,371.5C 58.2627,370.209 58.596,369.209 59.5,368.5C 61.4725,365.916 62.4725,362.916 62.5,359.5C 62.595,357.214 63.2616,355.214 64.5,353.5C 69.1532,352.999 73.4865,353.666 77.5,355.5C 78.3414,357.379 78.6747,359.379 78.5,361.5C 78.2796,366.1 78.9462,370.433 80.5,374.5C 81.9034,377.909 82.5701,381.575 82.5,385.5C 82.1164,389.489 82.783,393.155 84.5,396.5C 85.5934,400.394 86.2601,404.394 86.5,408.5C 86.3424,411.902 86.6758,415.236 87.5,418.5C 83.4862,418.666 79.4862,418.499 75.5,418C 74.5769,415.959 74.2436,413.792 74.5,411.5C 74.5046,405.209 73.5046,399.209 71.5,393.5C 70.5489,392.081 70.2155,390.415 70.5,388.5C 70.7367,384.727 70.2367,381.06 69,377.5C 67.8118,378.563 67.3118,379.897 67.5,381.5C 66.2616,383.214 65.595,385.214 65.5,387.5C 65.405,389.786 64.7384,391.786 63.5,393.5C 61.5275,396.084 60.5275,399.084 60.5,402.5C 60.7373,403.791 60.404,404.791 59.5,405.5C 57.5275,408.084 56.5275,411.084 56.5,414.5C 56.7373,415.791 56.404,416.791 55.5,417.5C 51.8183,417.665 48.1516,417.499 44.5,417C 43.7709,414.942 42.7709,413.109 41.5,411.5C 40.596,410.791 40.2627,409.791 40.5,408.5C 40.4725,405.084 39.4725,402.084 37.5,399.5C 36.596,398.791 36.2627,397.791 36.5,396.5C 36.4725,393.084 35.4725,390.084 33.5,387.5C 32.2616,385.786 31.595,383.786 31.5,381.5C 31.762,380.022 31.4287,378.689 30.5,377.5C 29.5481,379.045 29.2148,380.712 29.5,382.5C 27.9462,386.567 27.2796,390.9 27.5,395.5C 27.3413,399.291 26.6746,402.958 25.5,406.5C 24.2601,409.647 23.2601,412.98 22.5,416.5C 20.6667,416.833 18.8333,417.167 17,417.5C 14.7047,417.453 12.8714,416.787 11.5,415.5C 11.9889,407.233 13.3222,399.233 15.5,391.5C 16.9891,387.764 17.6558,383.764 17.5,379.5C 18.4753,371.311 19.8086,363.311 21.5,355.5C 25.5135,353.666 29.8468,352.999 34.5,353.5 Z"/></g>
<g><path style="opacity:0.42" fill="#9f9f9f" d="M 211.5,353.5 C 211.167,353.5 210.833,353.5 210.5,353.5C 206.833,353.5 203.167,353.5 199.5,353.5C 199.5,374.833 199.5,396.167 199.5,417.5C 199.5,417.833 199.5,418.167 199.5,418.5C 198.503,396.673 198.169,374.673 198.5,352.5C 203.032,352.182 207.366,352.515 211.5,353.5 Z"/></g>
<g><path style="opacity:1" fill="#000000" d="M 210.5,353.5 C 210.5,371.167 210.5,388.833 210.5,406.5C 216.5,406.5 222.5,406.5 228.5,406.5C 228.5,410.167 228.5,413.833 228.5,417.5C 218.833,417.5 209.167,417.5 199.5,417.5C 199.5,396.167 199.5,374.833 199.5,353.5C 203.167,353.5 206.833,353.5 210.5,353.5 Z"/></g>
<g><path style="opacity:0.646" fill="#878787" d="M 210.5,353.5 C 210.833,353.5 211.167,353.5 211.5,353.5C 212.831,370.569 212.831,387.736 211.5,405C 217.5,405.333 223.5,405.667 229.5,406C 230.464,410.066 230.797,414.233 230.5,418.5C 220.167,418.5 209.833,418.5 199.5,418.5C 199.5,418.167 199.5,417.833 199.5,417.5C 209.167,417.5 218.833,417.5 228.5,417.5C 228.5,413.833 228.5,410.167 228.5,406.5C 222.5,406.5 216.5,406.5 210.5,406.5C 210.5,388.833 210.5,371.167 210.5,353.5 Z"/></g>
<g><path style="opacity:0.208" fill="#c2c2c2" d="M 96.5,352.5 C 95.8333,353.833 94.8333,354.833 93.5,355.5C 93.5,353.5 94.5,352.5 96.5,352.5 Z"/></g>
<g><path style="opacity:0.475" fill="#979797" d="M 106.5,352.5 C 107.906,352.973 108.573,353.973 108.5,355.5C 107.094,355.027 106.427,354.027 106.5,352.5 Z"/></g>
<g><path style="opacity:0.839" fill="#828282" d="M 34.5,353.5 C 36.0198,355.89 37.0198,358.557 37.5,361.5C 35.3455,359.383 34.3455,356.716 34.5,353.5 Z"/></g>
<g><path style="opacity:0.286" fill="#aaaaaa" d="M 93.5,359.5 C 94.6737,360.514 95.3404,361.847 95.5,363.5C 93.8958,362.713 93.2291,361.38 93.5,359.5 Z"/></g>
<g><path style="opacity:0.753" fill="#929292" d="M 62.5,359.5 C 62.4725,362.916 61.4725,365.916 59.5,368.5C 59.9281,365.215 60.9281,362.215 62.5,359.5 Z"/></g>
<g><path style="opacity:0.004" fill="#cccccc" d="M 107.5,362.5 C 107.5,363.833 106.833,364.5 105.5,364.5C 105.833,363.5 106.5,362.833 107.5,362.5 Z"/></g>
<g><path style="opacity:0.286" fill="#b4b4b4" d="M 95.5,363.5 C 97.0269,363.427 98.0269,364.094 98.5,365.5C 96.9731,365.573 95.9731,364.906 95.5,363.5 Z"/></g>
<g><path style="opacity:0.408" fill="#ababab" d="M 78.5,361.5 C 79.8955,365.591 80.5621,369.924 80.5,374.5C 78.9462,370.433 78.2796,366.1 78.5,361.5 Z"/></g>
<g><path style="opacity:0.037" fill="#d9d9d9" d="M 105.5,364.5 C 103.68,366.461 101.68,366.794 99.5,365.5C 101.5,365.167 103.5,364.833 105.5,364.5 Z"/></g>
<g><path style="opacity:0.765" fill="#757575" d="M 150.5,369.5 C 145.797,369.437 141.13,369.771 136.5,370.5C 138.807,368.953 141.473,368.287 144.5,368.5C 146.696,368.505 148.696,368.838 150.5,369.5 Z"/></g>
<g><path style="opacity:0.763" fill="#6e6e6e" d="M 413.5,369.5 C 408.138,369.472 402.805,369.806 397.5,370.5C 400.356,368.994 403.523,368.328 407,368.5C 409.361,368.504 411.527,368.837 413.5,369.5 Z"/></g>
<g><path style="opacity:0.769" fill="#707070" d="M 501.5,369.5 C 496.797,369.437 492.13,369.771 487.5,370.5C 490.017,369.027 492.85,368.36 496,368.5C 498.033,368.506 499.866,368.839 501.5,369.5 Z"/></g>
<g><path style="opacity:1" fill="#050505" d="M 118.5,369.5 C 122.167,369.5 125.833,369.5 129.5,369.5C 129.215,371.288 129.548,372.955 130.5,374.5C 131.107,374.376 131.44,374.043 131.5,373.5C 133.027,373.573 134.027,372.906 134.5,371.5C 134.842,370.662 135.508,370.328 136.5,370.5C 141.13,369.771 145.797,369.437 150.5,369.5C 153.198,369.845 155.198,371.178 156.5,373.5C 156.738,375.404 157.738,376.738 159.5,377.5C 160.425,390.804 160.758,404.137 160.5,417.5C 156.833,417.5 153.167,417.5 149.5,417.5C 149.827,407.985 149.494,398.652 148.5,389.5C 147.699,387.958 147.366,386.292 147.5,384.5C 147.5,382.5 146.5,381.5 144.5,381.5C 143.688,380.007 142.355,379.34 140.5,379.5C 137.898,379.467 135.898,380.467 134.5,382.5C 133.737,384.368 132.737,386.035 131.5,387.5C 130.778,387.918 130.278,388.584 130,389.5C 129.5,398.827 129.334,408.161 129.5,417.5C 125.833,417.5 122.167,417.5 118.5,417.5C 118.5,401.5 118.5,385.5 118.5,369.5 Z"/></g>
<g><path style="opacity:1" fill="#0d0d0d" d="M 270.5,372.5 C 270.75,373.922 271.583,374.922 273,375.5C 273.495,373.527 273.662,371.527 273.5,369.5C 277.167,369.5 280.833,369.5 284.5,369.5C 284.5,385.5 284.5,401.5 284.5,417.5C 280.833,417.5 277.167,417.5 273.5,417.5C 273.66,415.801 273.494,414.134 273,412.5C 272.283,413.044 271.783,413.711 271.5,414.5C 269.973,414.427 268.973,415.094 268.5,416.5C 268.158,417.338 267.492,417.672 266.5,417.5C 263.31,417.559 260.143,417.893 257,418.5C 253.859,417.678 250.693,417.011 247.5,416.5C 246.415,414.413 244.749,413.08 242.5,412.5C 241.5,412.167 240.833,411.5 240.5,410.5C 240.573,408.973 239.906,407.973 238.5,407.5C 237.662,407.158 237.328,406.492 237.5,405.5C 236.944,401.16 236.277,396.827 235.5,392.5C 236.33,388.851 236.996,385.185 237.5,381.5C 238.906,381.027 239.573,380.027 239.5,378.5C 241.833,376.833 243.833,374.833 245.5,372.5C 247.027,372.573 248.027,371.906 248.5,370.5C 249.263,369.732 250.263,369.232 251.5,369C 258.447,367.594 264.78,368.761 270.5,372.5 Z M 267.5,382.5 C 267.842,383.338 268.508,383.672 269.5,383.5C 269.427,385.027 270.094,386.027 271.5,386.5C 272.833,391.5 272.833,396.5 271.5,401.5C 269.833,402.5 268.5,403.833 267.5,405.5C 265.302,405.875 263.302,406.542 261.5,407.5C 259.5,407.167 257.5,406.833 255.5,406.5C 254.71,405.599 253.71,404.932 252.5,404.5C 252.167,403.5 251.5,402.833 250.5,402.5C 250.573,400.973 249.906,399.973 248.5,399.5C 247.608,395.21 247.942,390.876 249.5,386.5C 250.906,386.027 251.573,385.027 251.5,383.5C 252.492,383.672 253.158,383.338 253.5,382.5C 255.816,381.84 258.149,381.173 260.5,380.5C 262.851,381.173 265.184,381.84 267.5,382.5 Z"/></g>
<g><path style="opacity:1" fill="#151515" d="M 330.5,369.5 C 331.78,370.931 333.447,371.598 335.5,371.5C 337.853,372.34 339.853,373.674 341.5,375.5C 342.167,377.167 342.833,378.833 343.5,380.5C 341.151,382.341 338.485,383.674 335.5,384.5C 334.395,383.4 333.062,382.733 331.5,382.5C 329.089,380.14 326.089,379.14 322.5,379.5C 319.795,379.316 317.462,379.983 315.5,381.5C 310.274,384.609 307.608,389.275 307.5,395.5C 307.054,398.01 307.72,400.01 309.5,401.5C 309.5,403.5 310.5,404.5 312.5,404.5C 315.961,406.128 319.628,407.128 323.5,407.5C 325.527,407.662 327.527,407.495 329.5,407C 330.056,406.617 330.389,406.117 330.5,405.5C 330.842,404.662 331.508,404.328 332.5,404.5C 333.609,404.443 334.609,404.11 335.5,403.5C 336.492,403.328 337.158,403.662 337.5,404.5C 337.973,405.906 338.973,406.573 340.5,406.5C 341.502,408.011 342.169,409.678 342.5,411.5C 334.813,418.952 325.813,421.285 315.5,418.5C 313.485,417.076 311.152,416.41 308.5,416.5C 307.738,414.738 306.404,413.738 304.5,413.5C 303.5,411.833 302.167,410.5 300.5,409.5C 297.259,407.017 295.592,403.684 295.5,399.5C 295.312,393.712 295.978,388.045 297.5,382.5C 299.262,381.738 300.262,380.404 300.5,378.5C 302.167,377.5 303.5,376.167 304.5,374.5C 304.973,373.094 305.973,372.427 307.5,372.5C 309.153,372.34 310.486,371.674 311.5,370.5C 317.647,368.324 323.98,367.991 330.5,369.5 Z"/></g>
<g><path style="opacity:1" fill="#080808" d="M 377.5,369.5 C 377.167,371.5 376.833,373.5 376.5,375.5C 376.737,376.791 376.404,377.791 375.5,378.5C 374.292,379.234 372.959,379.567 371.5,379.5C 369.205,380.136 367.539,381.469 366.5,383.5C 364.735,386.123 364.068,389.123 364.5,392.5C 363.507,400.65 363.174,408.983 363.5,417.5C 360.167,417.5 356.833,417.5 353.5,417.5C 353.5,401.5 353.5,385.5 353.5,369.5C 356.5,369.5 359.5,369.5 362.5,369.5C 362.338,371.527 362.505,373.527 363,375.5C 363.717,374.956 364.217,374.289 364.5,373.5C 365.833,372.833 366.833,371.833 367.5,370.5C 369.117,369.028 371.117,368.361 373.5,368.5C 375.045,368.511 376.378,368.844 377.5,369.5 Z"/></g>
<g><path style="opacity:1" fill="#111111" d="M 413.5,369.5 C 415.649,370.736 417.982,371.736 420.5,372.5C 422.027,372.427 423.027,373.094 423.5,374.5C 424.167,375.833 425.167,376.833 426.5,377.5C 426.738,379.404 427.738,380.738 429.5,381.5C 430.338,381.842 430.672,382.508 430.5,383.5C 431.307,389.464 431.64,395.464 431.5,401.5C 428.685,410.48 422.685,416.314 413.5,419C 409.311,419.812 405.311,419.645 401.5,418.5C 399.898,416.926 397.898,416.259 395.5,416.5C 395.027,415.094 394.027,414.427 392.5,414.5C 390.452,411.785 388.118,409.452 385.5,407.5C 382.635,403.387 381.301,398.72 381.5,393.5C 381.253,388.581 382.586,384.248 385.5,380.5C 388.167,378.5 390.5,376.167 392.5,373.5C 392.5,372.833 392.833,372.5 393.5,372.5C 395.153,372.34 396.486,371.674 397.5,370.5C 402.805,369.806 408.138,369.472 413.5,369.5 Z M 412.5,381.5 C 412.842,382.338 413.508,382.672 414.5,382.5C 415.167,383.833 416.167,384.833 417.5,385.5C 417.833,386.167 418.167,386.833 418.5,387.5C 419.324,390.764 419.658,394.098 419.5,397.5C 418.463,398.93 417.796,400.597 417.5,402.5C 414.184,405.67 410.184,407.337 405.5,407.5C 404.07,406.463 402.403,405.796 400.5,405.5C 400.027,404.094 399.027,403.427 397.5,403.5C 397.34,401.847 396.674,400.514 395.5,399.5C 395.489,397.453 395.156,395.453 394.5,393.5C 395.173,391.149 395.84,388.816 396.5,386.5C 397.401,385.71 398.068,384.71 398.5,383.5C 400.027,383.573 401.027,382.906 401.5,381.5C 405.183,380.325 408.85,380.325 412.5,381.5 Z"/></g>
<g><path style="opacity:0.957" fill="#747474" d="M 461.5,369.5 C 456.797,369.437 452.13,369.771 447.5,370.5C 449.807,368.953 452.473,368.287 455.5,368.5C 457.696,368.505 459.696,368.838 461.5,369.5 Z"/></g>
<g><path style="opacity:1" fill="#111111" d="M 461.5,369.5 C 464.614,369.555 466.948,370.888 468.5,373.5C 469.167,374.833 470.167,375.833 471.5,376.5C 471.167,377.167 470.833,377.833 470.5,378.5C 470.167,379.5 469.5,380.167 468.5,380.5C 466.833,381.833 465.167,383.167 463.5,384.5C 462.128,383.488 460.795,382.488 459.5,381.5C 458.866,380.053 457.699,379.387 456,379.5C 454.301,379.387 453.134,380.053 452.5,381.5C 452.5,382.5 452.5,383.5 452.5,384.5C 452.821,386.048 453.821,386.715 455.5,386.5C 458.485,387.326 461.151,388.659 463.5,390.5C 463.973,391.906 464.973,392.573 466.5,392.5C 467.5,394.167 468.833,395.5 470.5,396.5C 472.674,401.036 473.007,405.703 471.5,410.5C 470.92,412.749 469.587,414.415 467.5,415.5C 465.973,415.427 464.973,416.094 464.5,417.5C 463.609,418.11 462.609,418.443 461.5,418.5C 455.678,418.79 450.012,418.123 444.5,416.5C 443.415,414.413 441.749,413.08 439.5,412.5C 438.142,410.257 438.808,408.591 441.5,407.5C 443.129,406.375 444.629,405.041 446,403.5C 446.671,404.252 447.504,404.586 448.5,404.5C 451.942,406.881 455.609,407.548 459.5,406.5C 460.586,406.38 461.253,405.713 461.5,404.5C 461.457,403.584 461.124,402.917 460.5,402.5C 460.5,400.5 459.5,399.5 457.5,399.5C 454.515,398.674 451.849,397.341 449.5,395.5C 449.027,394.094 448.027,393.427 446.5,393.5C 445.118,391.451 443.452,389.785 441.5,388.5C 440.596,387.791 440.263,386.791 440.5,385.5C 440.748,381.243 441.748,377.243 443.5,373.5C 445.404,373.262 446.738,372.262 447.5,370.5C 452.13,369.771 456.797,369.437 461.5,369.5 Z"/></g>
<g><path style="opacity:1" fill="#141414" d="M 501.5,369.5 C 505.565,369.897 508.565,371.897 510.5,375.5C 510.5,376.5 510.5,377.5 510.5,378.5C 508.666,380.505 506.999,382.672 505.5,385C 504.002,385.585 503.002,385.085 502.5,383.5C 502.027,382.094 501.027,381.427 499.5,381.5C 498.866,380.053 497.699,379.387 496,379.5C 494.301,379.387 493.134,380.053 492.5,381.5C 492.5,382.5 492.5,383.5 492.5,384.5C 492.821,386.048 493.821,386.715 495.5,386.5C 498.485,387.326 501.151,388.659 503.5,390.5C 503.973,391.906 504.973,392.573 506.5,392.5C 506.81,394.144 507.81,395.144 509.5,395.5C 509.427,397.027 510.094,398.027 511.5,398.5C 514.041,402.479 514.041,406.479 511.5,410.5C 510.094,410.973 509.427,411.973 509.5,413.5C 508.198,415.822 506.198,417.155 503.5,417.5C 500.681,417.869 497.848,418.202 495,418.5C 491.459,417.975 487.959,417.308 484.5,416.5C 484.027,415.094 483.027,414.427 481.5,414.5C 480.5,414.167 479.833,413.5 479.5,412.5C 479.5,411.5 479.5,410.5 479.5,409.5C 479.5,408.833 479.833,408.5 480.5,408.5C 482.5,406.833 484.5,405.167 486.5,403.5C 487.492,403.328 488.158,403.662 488.5,404.5C 488.821,406.048 489.821,406.715 491.5,406.5C 492.93,406.421 494.264,406.754 495.5,407.5C 498.804,407.322 500.471,405.656 500.5,402.5C 500.5,400.5 499.5,399.5 497.5,399.5C 496.486,398.326 495.153,397.66 493.5,397.5C 491.847,397.34 490.514,396.674 489.5,395.5C 489.027,394.094 488.027,393.427 486.5,393.5C 485.118,391.451 483.452,389.785 481.5,388.5C 479.393,385.061 479.059,381.395 480.5,377.5C 482.262,376.738 483.262,375.404 483.5,373.5C 484.262,371.738 485.596,370.738 487.5,370.5C 492.13,369.771 496.797,369.437 501.5,369.5 Z"/></g>
<g><path style="opacity:0.827" fill="#7d7d7d" d="M 551.5,369.5 C 545.797,369.375 540.13,369.708 534.5,370.5C 537.526,368.981 540.859,368.315 544.5,368.5C 547.025,368.503 549.359,368.837 551.5,369.5 Z"/></g>
<g><path style="opacity:1" fill="#0f0f0f" d="M 551.5,369.5 C 555.684,369.592 559.017,371.259 561.5,374.5C 562.167,375.833 563.167,376.833 564.5,377.5C 564.738,379.404 565.738,380.738 567.5,381.5C 569.085,386.678 569.752,392.012 569.5,397.5C 556.833,397.5 544.167,397.5 531.5,397.5C 531.263,398.791 531.596,399.791 532.5,400.5C 533.338,400.842 533.672,401.508 533.5,402.5C 533.5,404.5 534.5,405.5 536.5,405.5C 536.821,407.048 537.821,407.715 539.5,407.5C 544.692,407.909 549.692,407.242 554.5,405.5C 555.833,405.167 557.167,404.833 558.5,404.5C 560.954,405.227 563.287,406.227 565.5,407.5C 565.833,408.167 566.167,408.833 566.5,409.5C 564.833,410.5 563.5,411.833 562.5,413.5C 560.008,416.675 556.674,418.341 552.5,418.5C 545.711,418.799 539.044,418.132 532.5,416.5C 532.027,415.094 531.027,414.427 529.5,414.5C 528.5,414.167 527.833,413.5 527.5,412.5C 527.167,411.5 526.5,410.833 525.5,410.5C 523.738,409.738 522.738,408.404 522.5,406.5C 519.836,398.148 519.836,389.815 522.5,381.5C 524.262,380.738 525.262,379.404 525.5,377.5C 527.167,376.5 528.5,375.167 529.5,373.5C 531.027,373.573 532.027,372.906 532.5,371.5C 532.842,370.662 533.508,370.328 534.5,370.5C 540.13,369.708 545.797,369.375 551.5,369.5 Z M 557.5,386.5 C 553.681,387.166 549.681,387.499 545.5,387.5C 541.107,387.491 537.107,386.824 533.5,385.5C 541.909,377.276 549.909,377.609 557.5,386.5 Z"/></g>
<g><path style="opacity:0.767" fill="#5b5b5b" d="M 95.5,369.5 C 95.5,385.5 95.5,401.5 95.5,417.5C 99.1667,417.5 102.833,417.5 106.5,417.5C 106.5,401.5 106.5,385.5 106.5,369.5C 107.496,385.658 107.83,401.991 107.5,418.5C 103.167,418.5 98.8333,418.5 94.5,418.5C 94.1702,401.991 94.5036,385.658 95.5,369.5 Z"/></g>
<g><path style="opacity:1" fill="#000000" d="M 95.5,369.5 C 99.1667,369.5 102.833,369.5 106.5,369.5C 106.5,385.5 106.5,401.5 106.5,417.5C 102.833,417.5 99.1667,417.5 95.5,417.5C 95.5,401.5 95.5,385.5 95.5,369.5 Z"/></g>
<g><path style="opacity:0.519" fill="#858585" d="M 129.5,369.5 C 130.167,370.833 130.833,372.167 131.5,373.5C 131.44,374.043 131.107,374.376 130.5,374.5C 129.548,372.955 129.215,371.288 129.5,369.5 Z"/></g>
<g><path style="opacity:0.593" fill="#686868" d="M 284.5,369.5 C 285.496,385.658 285.83,401.991 285.5,418.5C 281.167,418.5 276.833,418.5 272.5,418.5C 272.768,416.901 272.434,415.568 271.5,414.5C 271.783,413.711 272.283,413.044 273,412.5C 273.494,414.134 273.66,415.801 273.5,417.5C 277.167,417.5 280.833,417.5 284.5,417.5C 284.5,401.5 284.5,385.5 284.5,369.5 Z"/></g>
<g><path style="opacity:0.373" fill="#a9a9a9" d="M 330.5,369.5 C 332.553,369.402 334.22,370.069 335.5,371.5C 333.447,371.598 331.78,370.931 330.5,369.5 Z"/></g>
<g><path style="opacity:0.216" fill="#bababa" d="M 413.5,369.5 C 416.491,369.166 418.824,370.166 420.5,372.5C 417.982,371.736 415.649,370.736 413.5,369.5 Z"/></g>
<g><path style="opacity:0.682" fill="#8f8f8f" d="M 248.5,370.5 C 248.027,371.906 247.027,372.573 245.5,372.5C 245.973,371.094 246.973,370.427 248.5,370.5 Z"/></g>
<g><path style="opacity:0.58" fill="#a0a0a0" d="M 311.5,370.5 C 310.486,371.674 309.153,372.34 307.5,372.5C 308.287,370.896 309.62,370.229 311.5,370.5 Z"/></g>
<g><path style="opacity:0.401" fill="#989898" d="M 362.5,369.5 C 363.167,370.833 363.833,372.167 364.5,373.5C 364.217,374.289 363.717,374.956 363,375.5C 362.505,373.527 362.338,371.527 362.5,369.5 Z"/></g>
<g><path style="opacity:0.541" fill="#a7a7a7" d="M 397.5,370.5 C 396.486,371.674 395.153,372.34 393.5,372.5C 394.287,370.896 395.62,370.229 397.5,370.5 Z"/></g>
<g><path style="opacity:0.671" fill="#848484" d="M 447.5,370.5 C 446.738,372.262 445.404,373.262 443.5,373.5C 444.262,371.738 445.596,370.738 447.5,370.5 Z"/></g>
<g><path style="opacity:0.624" fill="#9a9a9a" d="M 134.5,371.5 C 134.027,372.906 133.027,373.573 131.5,373.5C 131.973,372.094 132.973,371.427 134.5,371.5 Z"/></g>
<g><path style="opacity:0.569" fill="#939393" d="M 367.5,370.5 C 366.833,371.833 365.833,372.833 364.5,373.5C 364.5,371.5 365.5,370.5 367.5,370.5 Z"/></g>
<g><path style="opacity:0.008" fill="#cdcdcd" d="M 377.5,369.5 C 378.794,371.68 378.461,373.68 376.5,375.5C 376.833,373.5 377.167,371.5 377.5,369.5 Z"/></g>
<g><path style="opacity:0.702" fill="#858585" d="M 532.5,371.5 C 532.027,372.906 531.027,373.573 529.5,373.5C 529.973,372.094 530.973,371.427 532.5,371.5 Z"/></g>
<g><path style="opacity:0.635" fill="#a9a9a9" d="M 40.5,370.5 C 41.7384,372.214 42.405,374.214 42.5,376.5C 40.9261,374.898 40.2594,372.898 40.5,370.5 Z"/></g>
<g><path style="opacity:0.451" fill="#838383" d="M 273.5,369.5 C 273.662,371.527 273.495,373.527 273,375.5C 271.583,374.922 270.75,373.922 270.5,372.5C 271.117,372.611 271.617,372.944 272,373.5C 272.21,371.942 272.71,370.609 273.5,369.5 Z"/></g>
<g><path style="opacity:0.004" fill="#cdcdcd" d="M 468.5,373.5 C 470.5,373.5 471.5,374.5 471.5,376.5C 470.167,375.833 469.167,374.833 468.5,373.5 Z"/></g>
<g><path style="opacity:0.004" fill="#d0d0d0" d="M 423.5,374.5 C 425.5,374.5 426.5,375.5 426.5,377.5C 425.167,376.833 424.167,375.833 423.5,374.5 Z"/></g>
<g><path style="opacity:0.478" fill="#a7a7a7" d="M 529.5,373.5 C 528.5,375.167 527.167,376.5 525.5,377.5C 525.833,375.167 527.167,373.833 529.5,373.5 Z"/></g>
<g><path style="opacity:0.02" fill="#c2c2c2" d="M 561.5,374.5 C 563.5,374.5 564.5,375.5 564.5,377.5C 563.167,376.833 562.167,375.833 561.5,374.5 Z"/></g>
<g><path style="opacity:0.678" fill="#808080" d="M 156.5,373.5 C 158.262,374.262 159.262,375.596 159.5,377.5C 157.738,376.738 156.738,375.404 156.5,373.5 Z"/></g>
<g><path style="opacity:0.627" fill="#9d9d9d" d="M 245.5,372.5 C 243.833,374.833 241.833,376.833 239.5,378.5C 240.5,375.5 242.5,373.5 245.5,372.5 Z"/></g>
<g><path style="opacity:0.502" fill="#a9a9a9" d="M 304.5,374.5 C 303.5,376.167 302.167,377.5 300.5,378.5C 300.833,376.167 302.167,374.833 304.5,374.5 Z"/></g>
<g><path style="opacity:0.569" fill="#979797" d="M 483.5,373.5 C 483.262,375.404 482.262,376.738 480.5,377.5C 480.738,375.596 481.738,374.262 483.5,373.5 Z"/></g>
<g><path style="opacity:0.78" fill="#848484" d="M 341.5,375.5 C 344.192,376.591 344.858,378.257 343.5,380.5C 342.833,378.833 342.167,377.167 341.5,375.5 Z"/></g>
<g><path style="opacity:0.718" fill="#979797" d="M 510.5,375.5 C 513.167,376.5 513.167,377.5 510.5,378.5C 510.5,377.5 510.5,376.5 510.5,375.5 Z"/></g>
<g><path style="opacity:0.753" fill="#868686" d="M 58.5,371.5 C 58.6545,374.716 57.6545,377.383 55.5,379.5C 55.9802,376.557 56.9802,373.89 58.5,371.5 Z"/></g>
<g><path style="opacity:0.682" fill="#949494" d="M 392.5,373.5 C 390.5,376.167 388.167,378.5 385.5,380.5C 386.833,377.167 389.167,374.833 392.5,373.5 Z"/></g>
<g><path style="opacity:0.012" fill="#dedede" d="M 471.5,376.5 C 472.757,377.623 472.424,378.289 470.5,378.5C 470.833,377.833 471.167,377.167 471.5,376.5 Z"/></g>
<g><path style="opacity:0.616" fill="#858585" d="M 144.5,381.5 C 141.03,380.197 137.697,380.531 134.5,382.5C 135.898,380.467 137.898,379.467 140.5,379.5C 142.355,379.34 143.688,380.007 144.5,381.5 Z"/></g>
<g><path style="opacity:0.621" fill="#8c8c8c" d="M 267.5,382.5 C 265.184,381.84 262.851,381.173 260.5,380.5C 258.149,381.173 255.816,381.84 253.5,382.5C 255.166,380.172 257.499,379.172 260.5,379.5C 263.501,379.172 265.834,380.172 267.5,382.5 Z"/></g>
<g><path style="opacity:0.618" fill="#787878" d="M 331.5,382.5 C 326.272,380.406 320.938,380.073 315.5,381.5C 317.462,379.983 319.795,379.316 322.5,379.5C 326.089,379.14 329.089,380.14 331.5,382.5 Z"/></g>
<g><path style="opacity:0.145" fill="#bababa" d="M 375.5,378.5 C 375.38,379.586 374.713,380.253 373.5,380.5C 372.584,380.457 371.917,380.124 371.5,379.5C 372.959,379.567 374.292,379.234 375.5,378.5 Z"/></g>
<g><path style="opacity:0.62" fill="#848484" d="M 412.5,381.5 C 408.85,380.325 405.183,380.325 401.5,381.5C 403.117,380.028 405.117,379.361 407.5,379.5C 408.833,379.667 410.167,379.833 411.5,380C 412.056,380.383 412.389,380.883 412.5,381.5 Z"/></g>
<g><path style="opacity:0.596" fill="#898989" d="M 426.5,377.5 C 428.262,378.262 429.262,379.596 429.5,381.5C 427.738,380.738 426.738,379.404 426.5,377.5 Z"/></g>
<g><path style="opacity:0.622" fill="#808080" d="M 459.5,381.5 C 457.167,380.167 454.833,380.167 452.5,381.5C 453.134,380.053 454.301,379.387 456,379.5C 457.699,379.387 458.866,380.053 459.5,381.5 Z"/></g>
<g><path style="opacity:0.624" fill="#7f7f7f" d="M 499.5,381.5 C 497.167,380.167 494.833,380.167 492.5,381.5C 493.134,380.053 494.301,379.387 496,379.5C 497.699,379.387 498.866,380.053 499.5,381.5 Z"/></g>
<g><path style="opacity:0.722" fill="#7a7a7a" d="M 525.5,377.5 C 525.262,379.404 524.262,380.738 522.5,381.5C 522.738,379.596 523.738,378.262 525.5,377.5 Z"/></g>
<g><path style="opacity:0.604" fill="#8f8f8f" d="M 564.5,377.5 C 566.262,378.262 567.262,379.596 567.5,381.5C 565.738,380.738 564.738,379.404 564.5,377.5 Z"/></g>
<g><path style="opacity:0.051" fill="#c0c0c0" d="M 31.5,381.5 C 30.8333,381.833 30.1667,382.167 29.5,382.5C 29.2148,380.712 29.5481,379.045 30.5,377.5C 31.4287,378.689 31.762,380.022 31.5,381.5 Z"/></g>
<g><path style="opacity:0.886" fill="#787878" d="M 42.5,377.5 C 43.9313,378.78 44.5979,380.447 44.5,382.5C 42.7868,381.365 42.1201,379.698 42.5,377.5 Z"/></g>
<g><path style="opacity:0.212" fill="#bebebe" d="M 239.5,378.5 C 239.573,380.027 238.906,381.027 237.5,381.5C 237.427,379.973 238.094,378.973 239.5,378.5 Z"/></g>
<g><path style="opacity:0.561" fill="#929292" d="M 300.5,378.5 C 300.262,380.404 299.262,381.738 297.5,382.5C 297.738,380.596 298.738,379.262 300.5,378.5 Z"/></g>
<g><path style="opacity:0.906" fill="#7b7b7b" d="M 443.5,373.5 C 441.748,377.243 440.748,381.243 440.5,385.5C 439.371,383.372 439.204,381.039 440,378.5C 440.223,376.119 441.39,374.453 443.5,373.5 Z"/></g>
<g><path style="opacity:0.459" fill="#b2b2b2" d="M 144.5,381.5 C 146.5,381.5 147.5,382.5 147.5,384.5C 146.167,383.833 145.167,382.833 144.5,381.5 Z"/></g>
<g><path style="opacity:0.004" fill="#d5d5d5" d="M 401.5,381.5 C 401.027,382.906 400.027,383.573 398.5,383.5C 398.973,382.094 399.973,381.427 401.5,381.5 Z"/></g>
<g><path style="opacity:0.675" fill="#9c9c9c" d="M 414.5,382.5 C 416.5,382.5 417.5,383.5 417.5,385.5C 416.167,384.833 415.167,383.833 414.5,382.5 Z"/></g>
<g><path style="opacity:0.333" fill="#b9b9b9" d="M 499.5,381.5 C 501.027,381.427 502.027,382.094 502.5,383.5C 500.973,383.573 499.973,382.906 499.5,381.5 Z"/></g>
<g><path style="opacity:0.729" fill="#7e7e7e" d="M 331.5,382.5 C 333.062,382.733 334.395,383.4 335.5,384.5C 333.708,385.473 332.375,384.806 331.5,382.5 Z"/></g>
<g><path style="opacity:0.016" fill="#cecece" d="M 468.5,380.5 C 467.762,383.626 466.095,384.96 463.5,384.5C 465.167,383.167 466.833,381.833 468.5,380.5 Z"/></g>
<g><path style="opacity:0.016" fill="#c7c7c7" d="M 67.5,381.5 C 67.7406,383.898 67.0739,385.898 65.5,387.5C 65.595,385.214 66.2616,383.214 67.5,381.5 Z"/></g>
<g><path style="opacity:0.306" fill="#aaaaaa" d="M 70.5,388.5 C 70.0195,385.922 69.0195,383.588 67.5,381.5C 67.3118,379.897 67.8118,378.563 69,377.5C 70.2367,381.06 70.7367,384.727 70.5,388.5 Z"/></g>
<g><path style="opacity:0.016" fill="#c0c0c0" d="M 251.5,383.5 C 251.573,385.027 250.906,386.027 249.5,386.5C 249.427,384.973 250.094,383.973 251.5,383.5 Z"/></g>
<g><path style="opacity:0.031" fill="#c1c1c1" d="M 269.5,383.5 C 270.906,383.973 271.573,384.973 271.5,386.5C 270.094,386.027 269.427,385.027 269.5,383.5 Z"/></g>
<g><path style="opacity:0.635" fill="#a7a7a7" d="M 44.5,382.5 C 45.7384,384.214 46.405,386.214 46.5,388.5C 44.9261,386.898 44.2594,384.898 44.5,382.5 Z"/></g>
<g><path style="opacity:0.882" fill="#787878" d="M 452.5,384.5 C 453.71,384.932 454.71,385.599 455.5,386.5C 453.821,386.715 452.821,386.048 452.5,384.5 Z"/></g>
<g><path style="opacity:0.863" fill="#828282" d="M 492.5,384.5 C 493.71,384.932 494.71,385.599 495.5,386.5C 493.821,386.715 492.821,386.048 492.5,384.5 Z"/></g>
<g><path style="opacity:0.847" fill="#848484" d="M 54.5,383.5 C 54.3333,387.673 53,391.34 50.5,394.5C 51.0653,390.463 52.3987,386.797 54.5,383.5 Z"/></g>
<g><path style="opacity:0.321" fill="#b1b1b1" d="M 159.5,377.5 C 160.268,378.263 160.768,379.263 161,380.5C 161.827,393.34 161.66,406.007 160.5,418.5C 160.5,418.167 160.5,417.833 160.5,417.5C 160.758,404.137 160.425,390.804 159.5,377.5 Z"/></g>
<g><path style="opacity:0.274" fill="#b4b4b4" d="M 533.5,385.5 C 537.107,386.824 541.107,387.491 545.5,387.5C 549.681,387.499 553.681,387.166 557.5,386.5C 558.043,386.56 558.376,386.893 558.5,387.5C 549.859,388.498 541.192,388.831 532.5,388.5C 532.263,387.209 532.596,386.209 533.5,385.5 Z"/></g>
<g><path style="opacity:0.259" fill="#b6b6b6" d="M 17.5,379.5 C 17.6558,383.764 16.9891,387.764 15.5,391.5C 15.5387,387.267 16.2053,383.267 17.5,379.5 Z"/></g>
<g><path style="opacity:0.494" fill="#a3a3a3" d="M 82.5,385.5 C 83.9034,388.909 84.5701,392.575 84.5,396.5C 82.783,393.155 82.1164,389.489 82.5,385.5 Z"/></g>
<g><path style="opacity:0.369" fill="#a9a9a9" d="M 29.5,382.5 C 29.5621,387.076 28.8955,391.409 27.5,395.5C 27.2796,390.9 27.9462,386.567 29.5,382.5 Z"/></g>
<g><path style="opacity:0.431" fill="#a8a8a8" d="M 33.5,387.5 C 35.4725,390.084 36.4725,393.084 36.5,396.5C 34.9281,393.785 33.9281,390.785 33.5,387.5 Z"/></g>
<g><path style="opacity:0.49" fill="#a3a3a3" d="M 441.5,388.5 C 443.452,389.785 445.118,391.451 446.5,393.5C 443.856,392.856 442.189,391.189 441.5,388.5 Z"/></g>
<g><path style="opacity:0.549" fill="#999999" d="M 481.5,388.5 C 483.452,389.785 485.118,391.451 486.5,393.5C 483.856,392.856 482.189,391.189 481.5,388.5 Z"/></g>
<g><path style="opacity:0.593" fill="#646464" d="M 148.5,389.5 C 149.494,398.652 149.827,407.985 149.5,417.5C 153.167,417.5 156.833,417.5 160.5,417.5C 160.5,417.833 160.5,418.167 160.5,418.5C 156.5,418.5 152.5,418.5 148.5,418.5C 148.5,408.833 148.5,399.167 148.5,389.5 Z"/></g>
<g><path style="opacity:0.304" fill="#acacac" d="M 297.5,382.5 C 295.978,388.045 295.312,393.712 295.5,399.5C 293.8,393.568 294.467,387.902 297.5,382.5 Z"/></g>
<g><path style="opacity:0.595" fill="#8b8b8b" d="M 396.5,386.5 C 395.84,388.816 395.173,391.149 394.5,393.5C 395.156,395.453 395.489,397.453 395.5,399.5C 394.028,397.883 393.361,395.883 393.5,393.5C 393.172,390.499 394.172,388.166 396.5,386.5 Z"/></g>
<g><path style="opacity:0.757" fill="#868686" d="M 430.5,383.5 C 433.983,389.353 434.317,395.353 431.5,401.5C 431.64,395.464 431.307,389.464 430.5,383.5 Z"/></g>
<g><path style="opacity:0.192" fill="#b8b8b8" d="M 463.5,390.5 C 465.027,390.427 466.027,391.094 466.5,392.5C 464.973,392.573 463.973,391.906 463.5,390.5 Z"/></g>
<g><path style="opacity:0.125" fill="#c5c5c5" d="M 503.5,390.5 C 505.027,390.427 506.027,391.094 506.5,392.5C 504.973,392.573 503.973,391.906 503.5,390.5 Z"/></g>
<g><path style="opacity:0.84" fill="#5a5a5a" d="M 353.5,369.5 C 353.5,385.5 353.5,401.5 353.5,417.5C 356.833,417.5 360.167,417.5 363.5,417.5C 363.174,408.983 363.507,400.65 364.5,392.5C 364.5,401.167 364.5,409.833 364.5,418.5C 360.167,418.5 355.833,418.5 351.5,418.5C 350.848,401.799 351.515,385.466 353.5,369.5 Z"/></g>
<g><path style="opacity:0.152" fill="#cbcbcb" d="M 366.5,383.5 C 365.918,395.316 365.251,406.983 364.5,418.5C 364.5,409.833 364.5,401.167 364.5,392.5C 364.068,389.123 364.735,386.123 366.5,383.5 Z"/></g>
<g><path style="opacity:0.176" fill="#b3b3b3" d="M 418.5,387.5 C 419.117,387.611 419.617,387.944 420,388.5C 420.498,391.482 420.665,394.482 420.5,397.5C 420.167,397.5 419.833,397.5 419.5,397.5C 419.658,394.098 419.324,390.764 418.5,387.5 Z"/></g>
<g><path style="opacity:0.008" fill="#c6c6c6" d="M 466.5,392.5 C 468.833,392.833 470.167,394.167 470.5,396.5C 468.833,395.5 467.5,394.167 466.5,392.5 Z"/></g>
<g><path style="opacity:0.587" fill="#8c8c8c" d="M 522.5,381.5 C 519.836,389.815 519.836,398.148 522.5,406.5C 520.067,402.808 519.067,398.641 519.5,394C 519.067,389.359 520.067,385.192 522.5,381.5 Z"/></g>
<g><path style="opacity:0.757" fill="#858585" d="M 46.5,389.5 C 47.6528,391.636 48.9862,393.636 50.5,395.5C 50.6309,396.376 50.2975,397.043 49.5,397.5C 47.3773,395.255 46.3773,392.588 46.5,389.5 Z"/></g>
<g><path style="opacity:0.435" fill="#989898" d="M 446.5,393.5 C 448.027,393.427 449.027,394.094 449.5,395.5C 447.973,395.573 446.973,394.906 446.5,393.5 Z"/></g>
<g><path style="opacity:0.475" fill="#8f8f8f" d="M 486.5,393.5 C 488.027,393.427 489.027,394.094 489.5,395.5C 487.973,395.573 486.973,394.906 486.5,393.5 Z"/></g>
<g><path style="opacity:0.416" fill="#929292" d="M 506.5,392.5 C 508.19,392.856 509.19,393.856 509.5,395.5C 507.81,395.144 506.81,394.144 506.5,392.5 Z"/></g>
<g><path style="opacity:0.518" fill="#818181" d="M 118.5,369.5 C 118.5,385.5 118.5,401.5 118.5,417.5C 122.167,417.5 125.833,417.5 129.5,417.5C 129.334,408.161 129.5,398.827 130,389.5C 130.278,388.584 130.778,387.918 131.5,387.5C 130.695,397.812 130.362,408.146 130.5,418.5C 126.167,418.5 121.833,418.5 117.5,418.5C 117.17,401.991 117.504,385.658 118.5,369.5 Z"/></g>
<g><path style="opacity:0.124" fill="#acacac" d="M 237.5,381.5 C 236.996,385.185 236.33,388.851 235.5,392.5C 236.277,396.827 236.944,401.16 237.5,405.5C 235.274,401.931 234.274,397.931 234.5,393.5C 234.311,389.092 235.311,385.092 237.5,381.5 Z"/></g>
<g><path style="opacity:0.514" fill="#9a9a9a" d="M 63.5,393.5 C 63.0719,396.785 62.0719,399.785 60.5,402.5C 60.5275,399.084 61.5275,396.084 63.5,393.5 Z"/></g>
<g><path style="opacity:0.459" fill="#8b8b8b" d="M 509.5,395.5 C 510.906,395.973 511.573,396.973 511.5,398.5C 510.094,398.027 509.427,397.027 509.5,395.5 Z"/></g>
<g><path style="opacity:0.408" fill="#999999" d="M 567.5,381.5 C 568.793,382.842 569.626,384.509 570,386.5C 571.132,390.39 571.299,394.223 570.5,398C 557.46,397.849 544.794,398.682 532.5,400.5C 531.596,399.791 531.263,398.791 531.5,397.5C 544.167,397.5 556.833,397.5 569.5,397.5C 569.752,392.012 569.085,386.678 567.5,381.5 Z"/></g>
<g><path style="opacity:0.184" fill="#b3b3b3" d="M 493.5,397.5 C 495.153,397.66 496.486,398.326 497.5,399.5C 495.62,399.771 494.287,399.104 493.5,397.5 Z"/></g>
<g><path style="opacity:0.784" fill="#8f8f8f" d="M 307.5,395.5 C 308.458,397.302 309.125,399.302 309.5,401.5C 307.72,400.01 307.054,398.01 307.5,395.5 Z"/></g>
<g><path style="opacity:0.769" fill="#919191" d="M 457.5,399.5 C 459.5,399.5 460.5,400.5 460.5,402.5C 459.167,401.833 458.167,400.833 457.5,399.5 Z"/></g>
<g><path style="opacity:0.769" fill="#898989" d="M 497.5,399.5 C 499.5,399.5 500.5,400.5 500.5,402.5C 499.167,401.833 498.167,400.833 497.5,399.5 Z"/></g>
<g><path style="opacity:0.333" fill="#a6a6a6" d="M 71.5,393.5 C 73.5046,399.209 74.5046,405.209 74.5,411.5C 72.6555,405.767 71.6555,399.767 71.5,393.5 Z"/></g>
<g><path style="opacity:0.247" fill="#bebebe" d="M 248.5,399.5 C 249.906,399.973 250.573,400.973 250.5,402.5C 249.094,402.027 248.427,401.027 248.5,399.5 Z"/></g>
<g><path style="opacity:0.976" fill="#5d5d5d" d="M 419.5,397.5 C 419.833,397.5 420.167,397.5 420.5,397.5C 420.408,399.848 419.408,401.514 417.5,402.5C 417.796,400.597 418.463,398.93 419.5,397.5 Z"/></g>
<g><path style="opacity:0.42" fill="#ababab" d="M 37.5,399.5 C 39.4725,402.084 40.4725,405.084 40.5,408.5C 38.9281,405.785 37.9281,402.785 37.5,399.5 Z"/></g>
<g><path style="opacity:0.745" fill="#8c8c8c" d="M 309.5,401.5 C 310.833,402.167 311.833,403.167 312.5,404.5C 310.5,404.5 309.5,403.5 309.5,401.5 Z"/></g>
<g><path style="opacity:0.069" fill="#d4d4d4" d="M 470.5,396.5 C 472.548,398.456 473.548,400.956 473.5,404C 473.503,406.484 472.837,408.651 471.5,410.5C 473.007,405.703 472.674,401.036 470.5,396.5 Z"/></g>
<g><path style="opacity:0.706" fill="#7e7e7e" d="M 271.5,401.5 C 271.167,403.833 269.833,405.167 267.5,405.5C 268.5,403.833 269.833,402.5 271.5,401.5 Z"/></g>
<g><path style="opacity:0.804" fill="#7c7c7c" d="M 335.5,403.5 C 334.609,404.11 333.609,404.443 332.5,404.5C 333.221,402.618 334.221,402.285 335.5,403.5 Z"/></g>
<g><path style="opacity:0.008" fill="#cfcfcf" d="M 397.5,403.5 C 399.027,403.427 400.027,404.094 400.5,405.5C 398.973,405.573 397.973,404.906 397.5,403.5 Z"/></g>
<g><path style="opacity:0.573" fill="#adadad" d="M 533.5,402.5 C 534.833,403.167 535.833,404.167 536.5,405.5C 534.5,405.5 533.5,404.5 533.5,402.5 Z"/></g>
<g><path style="opacity:0.533" fill="#aeaeae" d="M 448.5,404.5 C 447.504,404.586 446.671,404.252 446,403.5C 444.629,405.041 443.129,406.375 441.5,407.5C 442.273,404.213 444.273,402.713 447.5,403C 448.056,403.383 448.389,403.883 448.5,404.5 Z"/></g>
<g><path style="opacity:0.612" fill="#a1a1a1" d="M 486.5,403.5 C 484.5,405.167 482.5,406.833 480.5,408.5C 481.203,406.284 482.536,404.451 484.5,403C 485.437,402.308 486.103,402.475 486.5,403.5 Z"/></g>
<g><path style="opacity:0.608" fill="#a8a8a8" d="M 558.5,404.5 C 557.167,404.833 555.833,405.167 554.5,405.5C 555.538,403.481 556.872,403.147 558.5,404.5 Z"/></g>
<g><path style="opacity:0.902" fill="#767676" d="M 252.5,404.5 C 253.71,404.932 254.71,405.599 255.5,406.5C 253.821,406.715 252.821,406.048 252.5,404.5 Z"/></g>
<g><path style="opacity:0.11" fill="#c7c7c7" d="M 337.5,404.5 C 339.027,404.427 340.027,405.094 340.5,406.5C 338.973,406.573 337.973,405.906 337.5,404.5 Z"/></g>
<g><path style="opacity:0.827" fill="#7a7a7a" d="M 460.5,402.5 C 461.124,402.917 461.457,403.584 461.5,404.5C 461.253,405.713 460.586,406.38 459.5,406.5C 460.234,405.292 460.567,403.959 460.5,402.5 Z"/></g>
<g><path style="opacity:0.843" fill="#7a7a7a" d="M 488.5,404.5 C 489.71,404.932 490.71,405.599 491.5,406.5C 489.821,406.715 488.821,406.048 488.5,404.5 Z"/></g>
<g><path style="opacity:0.796" fill="#8b8b8b" d="M 267.5,405.5 C 266.01,407.28 264.01,407.946 261.5,407.5C 263.302,406.542 265.302,405.875 267.5,405.5 Z"/></g>
<g><path style="opacity:0.827" fill="#848484" d="M 330.5,405.5 C 330.389,406.117 330.056,406.617 329.5,407C 327.527,407.495 325.527,407.662 323.5,407.5C 325.657,406.593 327.99,405.927 330.5,405.5 Z"/></g>
<g><path style="opacity:0.4" fill="#aeaeae" d="M 400.5,405.5 C 402.403,405.796 404.07,406.463 405.5,407.5C 403.302,407.88 401.635,407.213 400.5,405.5 Z"/></g>
<g><path style="opacity:0.851" fill="#7a7a7a" d="M 536.5,405.5 C 537.71,405.932 538.71,406.599 539.5,407.5C 537.821,407.715 536.821,407.048 536.5,405.5 Z"/></g>
<g><path style="opacity:0.961" fill="#7f7f7f" d="M 340.5,406.5 C 344.446,407.345 345.112,409.012 342.5,411.5C 342.169,409.678 341.502,408.011 340.5,406.5 Z"/></g>
<g><path style="opacity:0.008" fill="#e2e2e2" d="M 565.5,407.5 C 567.424,407.711 567.757,408.377 566.5,409.5C 566.167,408.833 565.833,408.167 565.5,407.5 Z"/></g>
<g><path style="opacity:0.467" fill="#a7a7a7" d="M 59.5,405.5 C 59.0719,408.785 58.0719,411.785 56.5,414.5C 56.5275,411.084 57.5275,408.084 59.5,405.5 Z"/></g>
<g><path style="opacity:0.02" fill="#cacaca" d="M 238.5,407.5 C 239.906,407.973 240.573,408.973 240.5,410.5C 239.094,410.027 238.427,409.027 238.5,407.5 Z"/></g>
<g><path style="opacity:0.557" fill="#9f9f9f" d="M 385.5,407.5 C 388.118,409.452 390.452,411.785 392.5,414.5C 389.189,413.189 386.855,410.855 385.5,407.5 Z"/></g>
<g><path style="opacity:0.024" fill="#bbbbbb" d="M 300.5,409.5 C 302.167,410.5 303.5,411.833 304.5,413.5C 302.167,413.167 300.833,411.833 300.5,409.5 Z"/></g>
<g><path style="opacity:0.655" fill="#a3a3a3" d="M 479.5,409.5 C 479.5,410.5 479.5,411.5 479.5,412.5C 477.015,411.26 477.015,410.26 479.5,409.5 Z"/></g>
<g><path style="opacity:0.004" fill="#cecece" d="M 525.5,410.5 C 526.5,410.833 527.167,411.5 527.5,412.5C 526.167,412.5 525.5,411.833 525.5,410.5 Z"/></g>
<g><path style="opacity:0.016" fill="#cfcfcf" d="M 566.5,409.5 C 566.167,411.833 564.833,413.167 562.5,413.5C 563.5,411.833 564.833,410.5 566.5,409.5 Z"/></g>
<g><path style="opacity:0.396" fill="#b4b4b4" d="M 86.5,408.5 C 87.3689,410.984 88.0356,413.651 88.5,416.5C 88.4573,417.416 88.1239,418.083 87.5,418.5C 86.6758,415.236 86.3424,411.902 86.5,408.5 Z"/></g>
<g><path style="opacity:0.812" fill="#8d8d8d" d="M 242.5,412.5 C 244.749,413.08 246.415,414.413 247.5,416.5C 245.251,415.92 243.585,414.587 242.5,412.5 Z"/></g>
<g><path style="opacity:0.78" fill="#8e8e8e" d="M 439.5,412.5 C 441.749,413.08 443.415,414.413 444.5,416.5C 442.251,415.92 440.585,414.587 439.5,412.5 Z"/></g>
<g><path style="opacity:0.11" fill="#c7c7c7" d="M 511.5,410.5 C 511.573,412.027 510.906,413.027 509.5,413.5C 509.427,411.973 510.094,410.973 511.5,410.5 Z"/></g>
<g><path style="opacity:0.584" fill="#8c8c8c" d="M 304.5,413.5 C 306.404,413.738 307.738,414.738 308.5,416.5C 306.596,416.262 305.262,415.262 304.5,413.5 Z"/></g>
<g><path style="opacity:0.016" fill="#d7d7d7" d="M 271.5,414.5 C 271.027,415.906 270.027,416.573 268.5,416.5C 268.973,415.094 269.973,414.427 271.5,414.5 Z"/></g>
<g><path style="opacity:0.384" fill="#a0a0a0" d="M 392.5,414.5 C 394.027,414.427 395.027,415.094 395.5,416.5C 393.973,416.573 392.973,415.906 392.5,414.5 Z"/></g>
<g><path style="opacity:0.365" fill="#a8a8a8" d="M 481.5,414.5 C 483.027,414.427 484.027,415.094 484.5,416.5C 482.973,416.573 481.973,415.906 481.5,414.5 Z"/></g>
<g><path style="opacity:0.231" fill="#c0c0c0" d="M 529.5,414.5 C 531.027,414.427 532.027,415.094 532.5,416.5C 530.973,416.573 529.973,415.906 529.5,414.5 Z"/></g>
<g><path style="opacity:0.898" fill="#787878" d="M 308.5,416.5 C 311.152,416.41 313.485,417.076 315.5,418.5C 312.848,418.59 310.515,417.924 308.5,416.5 Z"/></g>
<g><path style="opacity:0.004" fill="#dadada" d="M 467.5,415.5 C 467.027,416.906 466.027,417.573 464.5,417.5C 464.973,416.094 465.973,415.427 467.5,415.5 Z"/></g>
<g><path style="opacity:0.688" fill="#7c7c7c" d="M 25.5,406.5 C 25.1667,410.5 24.8333,414.5 24.5,418.5C 19.8333,418.5 15.1667,418.5 10.5,418.5C 10.2627,417.209 10.596,416.209 11.5,415.5C 12.8714,416.787 14.7047,417.453 17,417.5C 18.8333,417.167 20.6667,416.833 22.5,416.5C 23.2601,412.98 24.2601,409.647 25.5,406.5 Z"/></g>
<g><path style="opacity:0.688" fill="#717171" d="M 41.5,411.5 C 42.7709,413.109 43.7709,414.942 44.5,417C 48.1516,417.499 51.8183,417.665 55.5,417.5C 51.6888,418.645 47.6888,418.812 43.5,418C 42.3313,415.993 41.6646,413.827 41.5,411.5 Z"/></g>
<g><path style="opacity:0.725" fill="#717171" d="M 395.5,416.5 C 397.898,416.259 399.898,416.926 401.5,418.5C 399.102,418.741 397.102,418.074 395.5,416.5 Z"/></g>
<g><path style="opacity:0.467" fill="#898989" d="M 247.5,416.5 C 250.693,417.011 253.859,417.678 257,418.5C 260.143,417.893 263.31,417.559 266.5,417.5C 263.983,418.973 261.15,419.64 258,419.5C 254.024,419.782 250.524,418.782 247.5,416.5 Z"/></g>
<g><path style="opacity:0.467" fill="#959595" d="M 444.5,416.5 C 450.012,418.123 455.678,418.79 461.5,418.5C 457.689,419.645 453.689,419.812 449.5,419C 447.509,418.626 445.842,417.793 444.5,416.5 Z"/></g>
<g><path style="opacity:0.467" fill="#8b8b8b" d="M 484.5,416.5 C 487.959,417.308 491.459,417.975 495,418.5C 497.848,418.202 500.681,417.869 503.5,417.5C 500.983,418.973 498.15,419.64 495,419.5C 491.024,419.782 487.524,418.782 484.5,416.5 Z"/></g>
<g><path style="opacity:0.467" fill="#9f9f9f" d="M 532.5,416.5 C 539.044,418.132 545.711,418.799 552.5,418.5C 548.019,419.648 543.352,419.815 538.5,419C 536.277,418.434 534.277,417.6 532.5,416.5 Z"/></g>
</svg>
