<svg id="txt" xmlns="http://www.w3.org/2000/svg" viewBox="0 0 243.66 127.04"><defs><style>.cls-1,.cls-2{fill:#94bee6;}.cls-1{stroke:#12100b;stroke-width:3px;}.cls-2{stroke:#1d1d1b;stroke-width:1.5px;}</style></defs><path class="cls-1" d="M21.87,89.76,9.75,77.64V26.12L21.87,14H43.08L55.21,26.12V77.64L43.08,89.76Zm3-15.15H40.05V29.15H24.9Z" transform="translate(-7 -12.49)"/><path class="cls-1" d="M21.87,89.76,9.75,77.64V26.12L21.87,14H43.08L55.21,26.12V77.64L43.08,89.76Zm3-15.15H40.05V29.15H24.9Z" transform="translate(-7 -12.49)"/><path class="cls-1" d="M21.87,89.76,9.75,77.64V26.12L21.87,14H43.08L55.21,26.12V77.64L43.08,89.76Zm3-15.15H40.05V29.15H24.9Z" transform="translate(-7 -12.49)"/><path class="cls-1" d="M72.91,67H88.07v7.58h15.15V59.45H85L72.91,47.33V26.12L85,14h21.21l12.13,12.13v10.6H103.22V29.15H88.07V44.3h18l12.34,12.12V77.64L106.25,89.76H85L72.91,77.64Z" transform="translate(-7 -12.49)"/><path class="cls-1" d="M72.91,67H88.07v7.58h15.15V59.45H85L72.91,47.33V26.12L85,14h21.21l12.13,12.13v10.6H103.22V29.15H88.07V44.3h18l12.34,12.12V77.64L106.25,89.76H85L72.91,77.64Z" transform="translate(-7 -12.49)"/><path class="cls-1" d="M72.91,67H88.07v7.58h15.15V59.45H85L72.91,47.33V26.12L85,14h21.21l12.13,12.13v10.6H103.22V29.15H88.07V44.3h18l12.34,12.12V77.64L106.25,89.76H85L72.91,77.64Z" transform="translate(-7 -12.49)"/><path class="cls-1" d="M134.49,89.76V74.61h7.58V29.15h-7.58V14H164.8V29.15h-7.58V74.61h15.16V67h15.15V89.76Z" transform="translate(-7 -12.49)"/><path class="cls-1" d="M134.49,89.76V74.61h7.58V29.15h-7.58V14H164.8V29.15h-7.58V74.61h15.16V67h15.15V89.76Z" transform="translate(-7 -12.49)"/><path class="cls-1" d="M134.49,89.76V74.61h7.58V29.15h-7.58V14H164.8V29.15h-7.58V74.61h15.16V67h15.15V89.76Z" transform="translate(-7 -12.49)"/><path class="cls-1" d="M214.82,89.76,202.69,77.64V26.12L214.82,14H236l12.13,12.13V77.64L236,89.76Zm3-15.15H233V29.15H217.85Z" transform="translate(-7 -12.49)"/><path class="cls-1" d="M214.82,89.76,202.69,77.64V26.12L214.82,14H236l12.13,12.13V77.64L236,89.76Zm3-15.15H233V29.15H217.85Z" transform="translate(-7 -12.49)"/><path class="cls-1" d="M214.82,89.76,202.69,77.64V26.12L214.82,14H236l12.13,12.13V77.64L236,89.76Zm3-15.15H233V29.15H217.85Z" transform="translate(-7 -12.49)"/><path class="cls-2" d="M7.75,138.78v-6.66h3.33v-20H7.75v-6.66H21.08v6.66H17.75v20h6.66v-3.33h6.67v10Z" transform="translate(-7 -12.49)"/><path class="cls-2" d="M7.75,138.78v-6.66h3.33v-20H7.75v-6.66H21.08v6.66H17.75v20h6.66v-3.33h6.67v10Z" transform="translate(-7 -12.49)"/><path class="cls-2" d="M7.75,138.78v-6.66h3.33v-20H7.75v-6.66H21.08v6.66H17.75v20h6.66v-3.33h6.67v10Z" transform="translate(-7 -12.49)"/><path class="cls-2" d="M40.52,138.78v-5.17h3.34l6.66-28.15h6.67l6.66,28.26h3.34v5.06H56.78v-4.36h.41l-.84-3.33h-5l-.84,3.33h.42v4.36Zm13.34-26.25L50.1,126.15h7.57Z" transform="translate(-7 -12.49)"/><path class="cls-2" d="M40.52,138.78v-5.17h3.34l6.66-28.15h6.67l6.66,28.26h3.34v5.06H56.78v-4.36h.41l-.84-3.33h-5l-.84,3.33h.42v4.36Zm13.34-26.25L50.1,126.15h7.57Z" transform="translate(-7 -12.49)"/><path class="cls-2" d="M40.52,138.78v-5.17h3.34l6.66-28.15h6.67l6.66,28.26h3.34v5.06H56.78v-4.36h.41l-.84-3.33h-5l-.84,3.33h.42v4.36Zm13.34-26.25L50.1,126.15h7.57Z" transform="translate(-7 -12.49)"/><path class="cls-2" d="M80.44,138.78l-5.33-5.33V110.79l5.33-5.33h9.33l5.33,5.33v4.66H88.44v-3.33H81.77v20h6.67v-3.33H95.1v4.66l-5.33,5.33Z" transform="translate(-7 -12.49)"/><path class="cls-2" d="M80.44,138.78l-5.33-5.33V110.79l5.33-5.33h9.33l5.33,5.33v4.66H88.44v-3.33H81.77v20h6.67v-3.33H95.1v4.66l-5.33,5.33Z" transform="translate(-7 -12.49)"/><path class="cls-2" d="M80.44,138.78l-5.33-5.33V110.79l5.33-5.33h9.33l5.33,5.33v4.66H88.44v-3.33H81.77v20h6.67v-3.33H95.1v4.66l-5.33,5.33Z" transform="translate(-7 -12.49)"/><path class="cls-2" d="M104.32,138.78v-6.66h3.33v-20h-3.33v-6.66h18l5.33,5.33v9.33l-2,2,2,2v8H131v6.66H121v-6.66h0v-6.67h-6.66v6.67h0v6.66Zm10-20H121v-6.67h-6.66Z" transform="translate(-7 -12.49)"/><path class="cls-2" d="M104.32,138.78v-6.66h3.33v-20h-3.33v-6.66h18l5.33,5.33v9.33l-2,2,2,2v8H131v6.66H121v-6.66h0v-6.67h-6.66v6.67h0v6.66Zm10-20H121v-6.67h-6.66Z" transform="translate(-7 -12.49)"/><path class="cls-2" d="M104.32,138.78v-6.66h3.33v-20h-3.33v-6.66h18l5.33,5.33v9.33l-2,2,2,2v8H131v6.66H121v-6.66h0v-6.67h-6.66v6.67h0v6.66Zm10-20H121v-6.67h-6.66Z" transform="translate(-7 -12.49)"/><path class="cls-2" d="M144.77,138.78l-5.33-5.33V110.79l5.33-5.33h9.33l5.34,5.33v22.66l-5.34,5.33Zm1.33-6.66h6.67v-20H146.1Z" transform="translate(-7 -12.49)"/><path class="cls-2" d="M144.77,138.78l-5.33-5.33V110.79l5.33-5.33h9.33l5.34,5.33v22.66l-5.34,5.33Zm1.33-6.66h6.67v-20H146.1Z" transform="translate(-7 -12.49)"/><path class="cls-2" d="M144.77,138.78l-5.33-5.33V110.79l5.33-5.33h9.33l5.34,5.33v22.66l-5.34,5.33Zm1.33-6.66h6.67v-20H146.1Z" transform="translate(-7 -12.49)"/><path class="cls-2" d="M168.63,130.15h6.67v2H182v-6.67h-8l-5.34-5.33v-9.33l5.34-5.33h9.33l5.33,5.33v3.49H182v-2.16H175.3v6.67h7.9l5.43,5.33v9.33l-5.33,5.33H174l-5.34-5.33Z" transform="translate(-7 -12.49)"/><path class="cls-2" d="M168.63,130.15h6.67v2H182v-6.67h-8l-5.34-5.33v-9.33l5.34-5.33h9.33l5.33,5.33v3.49H182v-2.16H175.3v6.67h7.9l5.43,5.33v9.33l-5.33,5.33H174l-5.34-5.33Z" transform="translate(-7 -12.49)"/><path class="cls-2" d="M168.63,130.15h6.67v2H182v-6.67h-8l-5.34-5.33v-9.33l5.34-5.33h9.33l5.33,5.33v3.49H182v-2.16H175.3v6.67h7.9l5.43,5.33v9.33l-5.33,5.33H174l-5.34-5.33Z" transform="translate(-7 -12.49)"/><path class="cls-2" d="M197.61,130.15h6.66v2h6.67v-6.67h-8l-5.33-5.33v-9.33l5.33-5.33h9.33l5.33,5.33v3.49h-6.66v-2.16h-6.67v6.67h7.9l5.43,5.33v9.33l-5.33,5.33h-9.33l-5.33-5.33Z" transform="translate(-7 -12.49)"/><path class="cls-2" d="M197.61,130.15h6.66v2h6.67v-6.67h-8l-5.33-5.33v-9.33l5.33-5.33h9.33l5.33,5.33v3.49h-6.66v-2.16h-6.67v6.67h7.9l5.43,5.33v9.33l-5.33,5.33h-9.33l-5.33-5.33Z" transform="translate(-7 -12.49)"/><path class="cls-2" d="M197.61,130.15h6.66v2h6.67v-6.67h-8l-5.33-5.33v-9.33l5.33-5.33h9.33l5.33,5.33v3.49h-6.66v-2.16h-6.67v6.67h7.9l5.43,5.33v9.33l-5.33,5.33h-9.33l-5.33-5.33Z" transform="translate(-7 -12.49)"/><path class="cls-2" d="M226.58,138.78v-6.66h3.33v-20h-3.33v-6.66h23.33v10h-6.67v-3.33h-6.67v6.67h6.67v6.66h-6.67v6.67h6.67v-3.33h6.67v10Z" transform="translate(-7 -12.49)"/><path class="cls-2" d="M226.58,138.78v-6.66h3.33v-20h-3.33v-6.66h23.33v10h-6.67v-3.33h-6.67v6.67h6.67v6.66h-6.67v6.67h6.67v-3.33h6.67v10Z" transform="translate(-7 -12.49)"/><path class="cls-2" d="M226.58,138.78v-6.66h3.33v-20h-3.33v-6.66h23.33v10h-6.67v-3.33h-6.67v6.67h6.67v6.66h-6.67v6.67h6.67v-3.33h6.67v10Z" transform="translate(-7 -12.49)"/></svg>