<?xml version="1.0" encoding="UTF-8"?>
<!DOCTYPE svg PUBLIC "-//W3C//DTD SVG 1.1//EN" "http://www.w3.org/Graphics/SVG/1.1/DTD/svg11.dtd">
<svg xmlns="http://www.w3.org/2000/svg" version="1.1" width="716px" height="531px" style="shape-rendering:geometricPrecision; text-rendering:geometricPrecision; image-rendering:optimizeQuality; fill-rule:evenodd; clip-rule:evenodd" xmlns:xlink="http://www.w3.org/1999/xlink">
<g><path style="opacity:1" fill="#fefefe" d="M -0.5,-0.5 C 238.167,-0.5 476.833,-0.5 715.5,-0.5C 715.5,176.5 715.5,353.5 715.5,530.5C 476.833,530.5 238.167,530.5 -0.5,530.5C -0.5,353.5 -0.5,176.5 -0.5,-0.5 Z"/></g>
<g><path style="opacity:1" fill="#010101" d="M 338.5,9.5 C 419.215,7.76079 480.381,41.0941 522,109.5C 550.84,166.05 553.173,223.717 529,282.5C 499.033,344.928 449.867,382.428 381.5,395C 304.446,403.54 242.28,377.374 195,316.5C 159.606,263.803 150.273,206.803 167,145.5C 189.422,80.7443 233.256,37.911 298.5,17C 311.775,13.4192 325.109,10.9192 338.5,9.5 Z"/></g>
<g><path style="opacity:1" fill="#fdfdfd" d="M 341.5,85.5 C 378.91,83.1086 404.743,99.1086 419,133.5C 427.151,166.72 417.651,193.553 390.5,214C 351.889,234.053 319.389,226.887 293,192.5C 275.524,159.534 279.691,129.7 305.5,103C 316.141,94.1783 328.141,88.345 341.5,85.5 Z"/></g>
<g><path style="opacity:1" fill="#fefefe" d="M 337.5,245.5 C 400.02,242.926 444.853,269.592 472,325.5C 472.667,326.5 472.667,327.5 472,328.5C 433.293,364.404 387.46,380.238 334.5,376C 294.409,371.617 260.076,355.45 231.5,327.5C 252.067,280.917 287.4,253.584 337.5,245.5 Z"/></g>
<g><path style="opacity:1" fill="#0a0a0a" d="M 121.5,433.5 C 130.564,432.735 134.73,436.735 134,445.5C 129.703,451.739 124.37,452.739 118,448.5C 113.99,442.208 115.157,437.208 121.5,433.5 Z"/></g>
<g><path style="opacity:1" fill="#030303" d="M 27.5,436.5 C 32.7616,436.195 37.9283,436.529 43,437.5C 49.0036,455.511 55.0036,473.511 61,491.5C 67.8552,473.435 74.0218,455.101 79.5,436.5C 84.8333,436.5 90.1667,436.5 95.5,436.5C 98.8609,462.998 103.194,489.332 108.5,515.5C 103.544,516.494 98.544,516.827 93.5,516.5C 91.4207,499.69 88.5873,483.024 85,466.5C 78.9493,482.65 73.2827,498.983 68,515.5C 63.5986,516.467 59.0986,516.8 54.5,516.5C 49.6352,499.572 43.9685,482.906 37.5,466.5C 34.0683,483.09 31.0683,499.757 28.5,516.5C 23.8333,516.5 19.1667,516.5 14.5,516.5C 19.0489,489.873 23.3822,463.207 27.5,436.5 Z"/></g>
<g><path style="opacity:1" fill="#090909" d="M 245.5,436.5 C 250.5,436.5 255.5,436.5 260.5,436.5C 260.5,458.167 260.5,479.833 260.5,501.5C 268.167,501.5 275.833,501.5 283.5,501.5C 283.5,506.5 283.5,511.5 283.5,516.5C 270.833,516.5 258.167,516.5 245.5,516.5C 245.5,489.833 245.5,463.167 245.5,436.5 Z"/></g>
<g><path style="opacity:1" fill="#090909" d="M 174.5,455.5 C 185.748,454.605 193.581,459.272 198,469.5C 198.5,485.163 198.667,500.83 198.5,516.5C 193.5,516.5 188.5,516.5 183.5,516.5C 183.667,502.829 183.5,489.163 183,475.5C 179.252,469.458 174.085,467.958 167.5,471C 163.686,473.481 161.519,476.981 161,481.5C 160.5,493.162 160.333,504.829 160.5,516.5C 155.5,516.5 150.5,516.5 145.5,516.5C 145.5,496.5 145.5,476.5 145.5,456.5C 150.5,456.5 155.5,456.5 160.5,456.5C 160.201,458.604 160.534,460.604 161.5,462.5C 165.481,459.345 169.814,457.012 174.5,455.5 Z"/></g>
<g><path style="opacity:1" fill="#070707" d="M 315.5,455.5 C 323.695,455.508 330.862,458.175 337,463.5C 337.497,461.19 337.663,458.857 337.5,456.5C 342.5,456.5 347.5,456.5 352.5,456.5C 352.5,476.5 352.5,496.5 352.5,516.5C 347.5,516.5 342.5,516.5 337.5,516.5C 337.663,514.143 337.497,511.81 337,509.5C 319.829,522.294 305.495,519.627 294,501.5C 287.646,485.422 290.812,471.589 303.5,460C 307.432,457.972 311.432,456.472 315.5,455.5 Z"/></g>
<g><path style="opacity:1" fill="#040404" d="M 394.5,455.5 C 404.526,455.232 413.526,458.065 421.5,464C 422.872,465.242 423.872,466.742 424.5,468.5C 420.956,470.771 417.29,472.771 413.5,474.5C 404.507,468.514 395.174,468.014 385.5,473C 379.833,478.319 377.999,484.819 380,492.5C 385.166,502.66 393.333,506.16 404.5,503C 407.428,501.62 410.262,500.12 413,498.5C 417.067,500.45 420.9,502.783 424.5,505.5C 417.528,513.399 408.695,517.399 398,517.5C 372.721,515.222 362.054,501.556 366,476.5C 371.708,464.24 381.208,457.24 394.5,455.5 Z"/></g>
<g><path style="opacity:1" fill="#050505" d="M 447.5,456.5 C 447.336,459.187 447.503,461.854 448,464.5C 448.717,463.956 449.217,463.289 449.5,462.5C 453.775,456.678 459.442,454.678 466.5,456.5C 465.307,460.911 463.807,465.244 462,469.5C 455.879,467.58 452.212,469.913 451,476.5C 450.5,489.829 450.333,503.163 450.5,516.5C 445.5,516.5 440.5,516.5 435.5,516.5C 435.5,496.5 435.5,476.5 435.5,456.5C 439.5,456.5 443.5,456.5 447.5,456.5 Z"/></g>
<g><path style="opacity:1" fill="#040404" d="M 499.5,455.5 C 519.622,455.851 530.955,465.851 533.5,485.5C 532.696,505.305 522.363,515.971 502.5,517.5C 479.637,514.46 469.803,501.46 473,478.5C 477.116,465.206 485.95,457.54 499.5,455.5 Z"/></g>
<g><path style="opacity:1" fill="#050505" d="M 558.5,455.5 C 568.275,455.033 576.275,458.533 582.5,466C 579.62,469.217 576.453,472.05 573,474.5C 571.225,473.73 569.725,472.563 568.5,471C 565.594,469.682 562.594,469.348 559.5,470C 556.808,472.632 557.141,474.966 560.5,477C 566.822,479.826 572.822,483.159 578.5,487C 585.596,496.866 584.596,505.866 575.5,514C 566.438,518.384 557.438,518.384 548.5,514C 545.728,512.469 543.728,510.302 542.5,507.5C 544.422,503.907 547.089,500.907 550.5,498.5C 553.039,500.2 555.705,501.7 558.5,503C 562.244,503.929 565.744,503.429 569,501.5C 570.041,498.364 569.207,495.864 566.5,494C 559.066,491.205 552.566,487.038 547,481.5C 541.277,468.612 545.11,459.946 558.5,455.5 Z"/></g>
<g><path style="opacity:1" fill="#050505" d="M 609.5,455.5 C 618.817,455.093 626.15,458.593 631.5,466C 628.651,469.016 625.651,471.85 622.5,474.5C 618.65,470.406 613.983,468.906 608.5,470C 605.808,472.632 606.141,474.966 609.5,477C 616.577,479.951 623.077,483.785 629,488.5C 636.013,505.69 630.18,515.356 611.5,517.5C 603.187,517.344 596.521,514.01 591.5,507.5C 593.771,503.726 596.604,500.393 600,497.5C 605.001,503.621 611.001,504.954 618,501.5C 618.667,499.833 618.667,498.167 618,496.5C 611.917,492.541 605.751,488.708 599.5,485C 592.545,477.835 591.712,470.001 597,461.5C 600.556,457.97 604.722,455.97 609.5,455.5 Z"/></g>
<g><path style="opacity:1" fill="#020202" d="M 669.5,455.5 C 692.837,456.17 704.17,468.17 703.5,491.5C 687.833,491.5 672.167,491.5 656.5,491.5C 657.354,497.534 660.688,501.7 666.5,504C 674.395,505.682 681.562,504.182 688,499.5C 691.894,501.197 695.727,503.03 699.5,505C 692.901,513.131 684.234,517.297 673.5,517.5C 647.844,514.219 638.011,499.886 644,474.5C 649.052,463.25 657.552,456.917 669.5,455.5 Z"/></g>
<g><path style="opacity:1" fill="#000000" d="M 117.5,456.5 C 122.5,456.5 127.5,456.5 132.5,456.5C 132.5,476.5 132.5,496.5 132.5,516.5C 127.5,516.5 122.5,516.5 117.5,516.5C 117.5,496.5 117.5,476.5 117.5,456.5 Z"/></g>
<g><path style="opacity:1" fill="#717171" d="M 447.5,456.5 C 448.167,458.5 448.833,460.5 449.5,462.5C 449.217,463.289 448.717,463.956 448,464.5C 447.503,461.854 447.336,459.187 447.5,456.5 Z"/></g>
<g><path style="opacity:1" fill="#f8f8f8" d="M 667.5,468.5 C 677.583,466.568 684.916,470.068 689.5,479C 678.5,479.667 667.5,479.667 656.5,479C 658.747,473.918 662.413,470.418 667.5,468.5 Z"/></g>
<g><path style="opacity:1" fill="#f9f9f9" d="M 315.5,469.5 C 332.98,468.15 340.147,476.15 337,493.5C 331.343,503.789 323.177,506.289 312.5,501C 305.009,494.006 303.509,485.84 308,476.5C 310.396,473.933 312.896,471.6 315.5,469.5 Z"/></g>
<g><path style="opacity:1" fill="#f9f9f9" d="M 497.5,469.5 C 512.752,468.253 519.919,475.253 519,490.5C 514.263,502.821 505.763,506.321 493.5,501C 486.009,494.046 484.509,485.879 489,476.5C 491.441,473.546 494.275,471.213 497.5,469.5 Z"/></g>
</svg>
