<?xml version="1.0" standalone="no"?>
<!DOCTYPE svg PUBLIC "-//W3C//DTD SVG 20010904//EN"
 "http://www.w3.org/TR/2001/REC-SVG-20010904/DTD/svg10.dtd">
<svg version="1.0" xmlns="http://www.w3.org/2000/svg"
 width="931.000000pt" height="704.000000pt" viewBox="0 0 931.000000 704.000000"
 preserveAspectRatio="xMidYMid meet">

<g transform="translate(0.000000,704.000000) scale(0.100000,-0.100000)"
fill="#000000" stroke="none">
<path d="M4430 6999 c-550 -54 -1072 -276 -1485 -629 -191 -164 -360 -356
-497 -565 -218 -332 -358 -708 -415 -1116 -24 -170 -23 -519 1 -684 73 -508
261 -946 573 -1335 340 -424 829 -744 1360 -889 573 -157 1205 -116 1744 114
796 340 1367 1027 1563 1880 64 277 78 663 36 949 -66 447 -239 861 -511 1226
-112 150 -339 380 -491 498 -372 288 -831 479 -1303 542 -113 15 -462 21 -575
9z m462 -1059 c331 -73 607 -335 703 -666 94 -325 11 -676 -220 -922 -376
-402 -1004 -408 -1387 -14 -181 186 -272 408 -272 667 0 199 50 368 154 524
232 346 617 501 1022 411z m71 -2194 c573 -99 1053 -460 1309 -985 46 -94 59
-128 51 -140 -20 -32 -211 -185 -328 -263 -544 -362 -1213 -482 -1865 -337
-187 42 -447 142 -612 235 -208 117 -498 339 -498 381 0 28 144 294 208 383
77 108 225 267 327 350 251 205 556 338 886 385 127 18 394 13 522 -9z"/>
<path d="M1610 1164 c-47 -20 -70 -51 -70 -96 0 -55 18 -85 65 -108 50 -24 72
-25 124 -4 51 20 71 51 71 110 0 38 -5 51 -30 74 -44 41 -101 50 -160 24z"/>
<path d="M100 580 l0 -540 112 0 111 0 -6 441 c-3 242 -3 439 -1 437 2 -2 10
-35 18 -74 8 -38 73 -233 145 -434 l129 -365 99 -3 98 -2 132 387 c72 214 137
412 143 441 7 28 13 52 14 52 1 0 0 -198 -2 -440 l-4 -440 121 0 121 0 0 540
0 540 -173 0 -172 0 -122 -357 c-68 -197 -128 -378 -134 -403 l-12 -45 -16 67
c-9 37 -68 218 -131 402 l-115 336 -177 0 -178 0 0 -540z"/>
<path d="M3370 580 l0 -540 315 0 315 0 0 95 0 95 -195 0 -195 0 0 445 0 445
-120 0 -120 0 0 -540z"/>
<path d="M2407 820 c-60 -15 -99 -39 -144 -89 l-43 -46 0 63 0 62 -115 0 -115
0 0 -385 0 -385 115 0 115 0 0 231 c0 145 4 246 11 270 37 121 193 147 246 40
16 -31 18 -69 21 -289 l3 -252 115 0 114 0 0 258 c0 320 -12 392 -74 460 -48
54 -164 83 -249 62z"/>
<path d="M4345 819 c-33 -5 -90 -18 -127 -29 l-68 -21 0 -85 c0 -47 3 -84 8
-82 125 65 257 86 327 52 32 -15 65 -64 65 -98 0 -18 -8 -20 -165 -41 -199
-25 -281 -81 -305 -204 -22 -117 20 -215 115 -264 30 -15 59 -20 115 -20 89 0
144 23 203 87 l37 41 0 -58 0 -57 110 0 110 0 0 213 c0 278 -10 372 -47 439
-30 55 -89 101 -153 118 -57 15 -160 19 -225 9z m205 -456 c0 -87 -60 -168
-130 -173 -56 -5 -78 1 -104 26 -44 45 -31 125 27 155 17 10 141 34 195 38 8
1 12 -15 12 -46z"/>
<path d="M5246 820 c-177 -28 -301 -156 -328 -339 -43 -292 167 -493 472 -452
44 6 95 17 115 25 l35 15 0 90 c0 50 -2 91 -5 91 -3 0 -24 -9 -47 -21 -23 -12
-67 -23 -97 -26 -149 -14 -241 69 -241 217 0 79 23 133 73 177 78 69 181 70
310 5 4 -2 6 40 5 95 l-3 98 -36 12 c-51 16 -184 23 -253 13z"/>
<path d="M6083 820 c-59 -14 -97 -45 -135 -114 l-17 -31 -1 68 0 67 -115 0
-115 0 0 -385 0 -385 114 0 115 0 3 232 c3 213 5 236 24 273 30 58 75 85 141
85 30 0 63 -5 74 -10 18 -10 19 -6 19 94 0 123 -7 130 -107 106z"/>
<path d="M6580 819 c-75 -13 -169 -59 -215 -104 -21 -21 -52 -68 -69 -104 -30
-63 -31 -72 -31 -191 0 -121 1 -128 33 -192 56 -114 149 -177 292 -199 203
-30 383 55 456 216 36 77 45 231 20 317 -32 110 -112 196 -219 236 -64 24
-192 34 -267 21z m157 -180 c92 -34 133 -156 102 -299 -21 -96 -91 -147 -191
-138 -60 6 -95 30 -128 89 -21 37 -25 57 -25 129 0 72 4 93 26 135 41 81 132
116 216 84z"/>
<path d="M7455 824 c-172 -26 -259 -108 -259 -244 0 -120 60 -182 224 -235
111 -36 153 -73 130 -115 -36 -67 -185 -65 -342 4 -16 7 -18 0 -18 -82 l0 -90
31 -11 c18 -6 71 -16 120 -22 183 -22 343 28 404 125 26 43 30 59 30 121 0 61
-4 78 -27 112 -33 51 -71 74 -188 117 -101 38 -140 67 -140 103 0 59 121 81
242 43 34 -11 64 -20 66 -20 1 0 2 38 2 84 l0 84 -42 10 c-51 13 -191 22 -233
16z"/>
<path d="M8114 821 c-107 -17 -190 -71 -225 -146 -33 -72 -20 -184 29 -238 23
-26 114 -71 195 -97 104 -34 135 -68 107 -120 -29 -54 -200 -52 -307 3 -18 10
-35 17 -38 17 -3 0 -4 -41 -3 -92 l3 -92 30 -8 c84 -22 198 -30 278 -18 180
26 266 104 267 242 0 68 -12 103 -48 141 -34 36 -64 52 -181 97 -64 24 -101
44 -114 62 -19 26 -19 28 -3 53 9 14 28 30 42 35 41 16 128 11 196 -10 34 -11
64 -20 66 -20 1 0 2 38 2 84 l0 84 -47 11 c-72 15 -192 21 -249 12z"/>
<path d="M8853 820 c-199 -42 -318 -219 -300 -448 12 -146 66 -240 173 -299
106 -58 296 -65 437 -17 l47 16 0 84 0 83 -46 -20 c-97 -41 -237 -42 -307 -2
-32 19 -77 92 -77 125 0 17 17 18 251 18 l252 0 -6 108 c-3 65 -12 127 -23
157 -24 69 -112 156 -179 178 -63 21 -167 29 -222 17z m147 -165 c35 -18 55
-53 65 -112 l7 -43 -147 0 -147 0 6 31 c21 108 128 169 216 124z"/>
<path d="M1550 425 l0 -385 115 0 115 0 0 385 0 385 -115 0 -115 0 0 -385z"/>
</g>
</svg>
