<svg xmlns="http://www.w3.org/2000/svg" width="714" height="524" viewBox="0 0 714 524" version="1.1"><path d="M 329 10.976 C 325.425 11.442, 318.013 12.769, 312.530 13.924 C 307.046 15.080, 297.146 17.859, 290.530 20.100 C 283.913 22.340, 274 26.350, 268.500 29.010 C 263 31.670, 255.350 35.750, 251.500 38.076 C 247.650 40.403, 240.450 45.346, 235.500 49.061 C 230.550 52.776, 221.671 60.695, 215.768 66.658 C 209.866 72.621, 202.938 80.200, 200.374 83.500 C 197.810 86.800, 193.101 93.450, 189.910 98.278 C 186.718 103.106, 181.627 112.106, 178.596 118.278 C 175.565 124.450, 171.260 134.965, 169.031 141.644 C 166.802 148.324, 164.105 157.999, 163.038 163.144 C 161.971 168.290, 160.626 176.313, 160.049 180.974 C 159.472 185.634, 159 195.771, 159 203.500 C 159 211.229, 159.471 221.366, 160.047 226.026 C 160.624 230.687, 161.992 238.935, 163.088 244.357 C 164.184 249.778, 166.671 259.003, 168.615 264.857 C 170.558 270.710, 174.805 280.992, 178.052 287.705 C 181.299 294.418, 186.055 303.193, 188.622 307.205 C 191.189 311.217, 195.356 317.200, 197.883 320.500 C 200.410 323.800, 205.565 330.010, 209.339 334.300 C 213.112 338.591, 220.092 345.509, 224.849 349.675 C 229.607 353.841, 238.825 360.778, 245.333 365.089 C 251.841 369.400, 261.741 375.164, 267.333 377.897 C 272.925 380.631, 280.650 384.045, 284.500 385.486 C 288.350 386.926, 295.325 389.165, 300 390.462 C 304.675 391.758, 312.025 393.532, 316.334 394.405 C 320.642 395.277, 330.434 396.527, 338.094 397.183 C 348.863 398.106, 355.362 398.107, 366.760 397.188 C 374.867 396.534, 385.927 395.082, 391.338 393.961 C 396.749 392.840, 406.649 390.126, 413.338 387.930 C 420.027 385.733, 430.603 381.483, 436.839 378.484 C 443.076 375.486, 452.751 370.037, 458.339 366.375 C 463.928 362.714, 471.650 357.138, 475.500 353.985 C 479.350 350.831, 486.198 344.482, 490.718 339.875 C 495.238 335.269, 501.276 328.575, 504.135 325 C 506.993 321.425, 512.004 314.450, 515.269 309.500 C 518.533 304.550, 523.836 295.100, 527.052 288.500 C 530.268 281.900, 534.512 271.801, 536.483 266.058 C 538.454 260.315, 541.158 250.190, 542.494 243.558 C 543.829 236.926, 545.443 226.325, 546.080 220 C 546.747 213.381, 546.977 203.150, 546.623 195.896 C 546.284 188.963, 545.066 177.752, 543.916 170.982 C 542.767 164.213, 540.541 154.349, 538.971 149.064 C 537.401 143.779, 534.295 134.995, 532.069 129.545 C 529.843 124.095, 525.429 114.965, 522.261 109.258 C 519.092 103.550, 513.099 94.295, 508.943 88.690 C 504.786 83.086, 497.404 74.318, 492.537 69.206 C 487.671 64.095, 480.272 57.155, 476.095 53.785 C 471.918 50.415, 464.159 44.807, 458.854 41.323 C 453.549 37.838, 443.649 32.320, 436.854 29.059 C 430.059 25.799, 419.550 21.509, 413.500 19.526 C 407.450 17.542, 397.100 14.782, 390.500 13.391 C 380.328 11.248, 375.225 10.807, 357 10.496 C 345.175 10.294, 332.575 10.510, 329 10.976 M 336.405 88.382 C 331.403 89.712, 325.328 91.809, 322.905 93.041 C 320.482 94.273, 316.001 96.975, 312.947 99.044 C 309.893 101.114, 304.850 105.555, 301.740 108.914 C 298.631 112.273, 294.393 118.048, 292.324 121.748 C 290.255 125.448, 287.473 132.080, 286.142 136.487 C 284.225 142.833, 283.717 146.788, 283.697 155.500 C 283.681 162.880, 284.244 168.614, 285.409 172.925 C 286.364 176.458, 288.705 182.505, 290.610 186.361 C 292.516 190.217, 296.536 196.418, 299.543 200.140 C 302.550 203.861, 307.821 208.898, 311.255 211.331 C 314.690 213.765, 319.513 216.772, 321.974 218.013 C 324.435 219.254, 329.385 221.137, 332.974 222.198 C 336.563 223.258, 344 224.367, 349.500 224.662 C 356.584 225.041, 361.687 224.738, 367 223.622 C 371.187 222.742, 378.595 220.024, 383.771 217.469 C 389.986 214.401, 395.178 210.894, 399.520 206.833 C 403.082 203.500, 407.963 197.787, 410.365 194.137 C 412.768 190.487, 415.880 184.575, 417.282 181 C 418.684 177.425, 420.382 171.663, 421.056 168.195 C 421.817 164.283, 422.068 158.023, 421.717 151.695 C 421.361 145.265, 420.352 139.100, 418.985 135 C 417.793 131.425, 415.503 126.025, 413.897 123 C 412.290 119.975, 408.941 114.939, 406.454 111.809 C 403.967 108.679, 399.138 104.018, 395.723 101.451 C 392.307 98.884, 387.035 95.534, 384.007 94.006 C 380.978 92.479, 375.350 90.243, 371.500 89.037 C 367.198 87.690, 360.838 86.674, 355 86.404 C 347.161 86.040, 343.910 86.386, 336.405 88.382 M 339.552 247.041 C 335.181 247.535, 329.106 248.452, 326.052 249.078 C 322.998 249.704, 316.036 251.744, 310.580 253.612 C 305.125 255.481, 297.319 258.812, 293.234 261.015 C 289.149 263.219, 283.456 266.581, 280.584 268.488 C 277.712 270.394, 272.162 274.777, 268.251 278.227 C 264.339 281.677, 258.778 287.200, 255.892 290.500 C 253.006 293.800, 248.244 300.178, 245.310 304.672 C 242.376 309.167, 238.344 316.279, 236.351 320.476 L 232.728 328.106 235.614 331.168 C 237.201 332.853, 242.775 337.451, 248 341.387 C 253.225 345.322, 259.344 349.731, 261.598 351.185 C 263.852 352.638, 269.702 355.830, 274.598 358.278 C 279.494 360.726, 288 364.347, 293.500 366.326 C 299 368.305, 306.425 370.659, 310 371.557 C 313.575 372.455, 322.075 374.048, 328.889 375.095 C 335.703 376.143, 346.377 377, 352.609 377 C 358.841 377, 368.791 376.292, 374.720 375.427 C 380.649 374.562, 389.100 372.968, 393.500 371.883 C 397.900 370.799, 405.100 368.748, 409.500 367.325 C 413.900 365.902, 423.718 361.600, 431.319 357.765 C 439.450 353.661, 449.122 347.773, 454.819 343.458 C 460.143 339.424, 466.428 334.408, 468.785 332.312 L 473.069 328.500 468.955 320 C 466.692 315.325, 462.446 307.900, 459.520 303.500 C 456.594 299.100, 450.524 291.573, 446.031 286.772 C 441.538 281.972, 434.270 275.338, 429.880 272.030 C 425.490 268.723, 416.409 263.315, 409.699 260.014 C 402.990 256.712, 393.517 252.885, 388.648 251.508 C 383.780 250.132, 377.030 248.573, 373.648 248.045 C 370.267 247.517, 363 246.872, 357.500 246.612 C 352 246.353, 343.923 246.546, 339.552 247.041 M 118.636 436.636 C 116.803 438.470, 116 440.327, 116 442.736 C 116 445.342, 116.842 447.042, 119.400 449.600 C 121.270 451.470, 123.491 453, 124.335 453 C 125.179 453, 126.981 452.578, 128.339 452.061 C 129.697 451.545, 131.751 450.110, 132.904 448.873 C 134.244 447.435, 135 445.297, 135 442.948 C 135 440.310, 134.256 438.528, 132.364 436.636 C 130.347 434.619, 128.734 434, 125.500 434 C 122.266 434, 120.653 434.619, 118.636 436.636 M 27.509 439.250 C 27.217 440.488, 24.104 458.150, 20.590 478.500 C 17.076 498.850, 14.407 515.837, 14.660 516.250 C 14.912 516.663, 18.392 517, 22.393 517 L 29.669 517 33.511 494.500 C 35.728 481.517, 37.807 472.002, 38.427 472.004 C 39.017 472.006, 42.875 482.018, 47 494.254 L 54.500 516.500 61.608 516.791 L 68.716 517.082 77.091 492.472 L 85.466 467.862 89.683 492.181 C 92.003 505.556, 93.923 516.612, 93.950 516.750 C 93.978 516.888, 97.375 517, 101.500 517 C 106.838 517, 108.998 516.640, 108.992 515.750 C 108.988 515.063, 106.065 497.400, 102.497 476.500 C 98.929 455.600, 96.007 438.163, 96.005 437.750 C 96.002 437.337, 92.437 437, 88.083 437 L 80.166 437 71.483 463.050 C 66.380 478.360, 62.349 488.950, 61.705 488.735 C 61.102 488.534, 56.766 476.812, 52.069 462.685 L 43.529 437 35.783 437 C 28.575 437, 28.001 437.156, 27.509 439.250 M 246 477 L 246 517 265 517 L 284 517 284 509.500 L 284 502 273 502 L 262 502 262 469.500 L 262 437 254 437 L 246 437 246 477 M 167.809 458.826 C 162.178 461.799, 162.114 461.808, 161.809 459.666 C 161.527 457.688, 160.829 457.475, 153.750 457.208 L 146 456.916 146 486.958 L 146 517 154 517 L 162 517 162 499.316 C 162 483.548, 162.222 481.174, 164.044 477.409 C 165.402 474.603, 167.264 472.628, 169.591 471.524 C 171.758 470.496, 174.172 470.099, 175.921 470.483 C 177.476 470.824, 179.818 472.241, 181.124 473.630 C 183.441 476.094, 183.508 476.669, 183.824 496.619 L 184.148 517.081 191.824 516.791 L 199.500 516.500 199.454 494 C 199.411 473.288, 199.239 471.128, 197.292 466.823 C 195.878 463.696, 193.775 461.218, 190.949 459.347 C 187.639 457.157, 185.285 456.470, 180.111 456.185 C 174.298 455.865, 172.813 456.183, 167.809 458.826 M 307.241 458.567 C 304.407 459.979, 300.722 462.692, 299.051 464.595 C 297.380 466.498, 295.029 469.956, 293.827 472.278 C 292.241 475.342, 291.527 478.831, 291.225 485 C 290.883 491.968, 291.197 494.531, 292.965 499.221 C 294.238 502.598, 296.838 506.704, 299.311 509.244 C 301.615 511.609, 305.300 514.416, 307.500 515.481 C 309.881 516.633, 314.333 517.570, 318.500 517.797 C 324.765 518.137, 326.103 517.858, 331.250 515.142 L 337 512.107 337 514.553 C 337 516.945, 337.180 517, 345 517 L 353 517 353 487 L 353 457 345 457 C 337.133 457, 337 457.042, 337 459.500 C 337 460.875, 336.577 462, 336.059 462 C 335.541 462, 334.811 461.503, 334.436 460.896 C 334.060 460.289, 331.896 458.948, 329.627 457.918 C 326.963 456.708, 323.177 456.036, 318.946 456.022 C 313.884 456.005, 311.220 456.584, 307.241 458.567 M 385.624 457.998 C 382.943 459.045, 379.042 461.085, 376.955 462.531 C 374.868 463.977, 371.955 466.901, 370.480 469.028 C 369.006 471.156, 367.190 474.607, 366.444 476.698 C 365.698 478.789, 365.068 483.691, 365.044 487.590 C 365.007 493.555, 365.487 495.655, 368.068 500.821 C 369.772 504.231, 372.961 508.523, 375.239 510.473 C 377.495 512.404, 381.852 514.930, 384.921 516.086 C 389.551 517.830, 392.117 518.119, 400 517.784 C 407.384 517.471, 410.503 516.869, 414 515.083 C 416.475 513.819, 419.962 511.395, 421.750 509.696 C 423.538 507.997, 425 506.310, 425 505.945 C 425 505.581, 422.514 503.632, 419.474 501.614 L 413.949 497.946 409.724 500.377 C 407.401 501.714, 403.666 503.102, 401.425 503.462 C 399.183 503.822, 395.251 503.588, 392.686 502.943 C 389.435 502.124, 386.982 500.616, 384.585 497.962 C 382.187 495.308, 380.939 492.773, 380.461 489.590 C 379.906 485.887, 380.223 484.124, 382.138 480.263 C 383.437 477.645, 385.938 474.551, 387.695 473.388 C 389.453 472.225, 392.706 470.983, 394.925 470.628 C 397.145 470.273, 401.024 470.445, 403.547 471.010 C 406.069 471.576, 409.407 472.980, 410.965 474.132 L 413.797 476.226 419.898 472.974 C 423.254 471.185, 426 469.391, 426 468.988 C 426 468.585, 424.051 466.458, 421.669 464.262 C 419.287 462.067, 414.770 459.309, 411.631 458.135 C 407.548 456.607, 403.731 456.013, 398.212 456.047 C 393.100 456.078, 388.857 456.735, 385.624 457.998 M 454.338 457.936 C 452.599 458.996, 450.700 460.682, 450.118 461.682 C 449.217 463.231, 449.056 463.020, 449.030 460.250 L 449 457 442 457 L 435 457 435 487 L 435 517 443 517 L 451 517 451 500.049 C 451 490.726, 451.486 480.830, 452.081 478.058 C 452.794 474.733, 454.013 472.348, 455.663 471.050 C 457.319 469.748, 459.066 469.261, 460.832 469.609 C 463.327 470.101, 463.635 469.745, 465.589 464.106 C 467.033 459.937, 467.357 457.757, 466.639 457.039 C 466.067 456.467, 463.778 456.002, 461.550 456.004 C 459.316 456.006, 456.082 456.872, 454.338 457.936 M 492.698 457.385 C 490.607 458.163, 487.134 460.021, 484.980 461.514 C 482.826 463.007, 479.861 465.805, 478.391 467.732 C 476.921 469.659, 474.882 473.438, 473.859 476.129 C 472.803 478.907, 472 483.593, 472 486.973 C 472 490.535, 472.828 495.137, 474.061 498.433 C 475.276 501.682, 477.897 505.768, 480.448 508.393 C 482.827 510.841, 486.737 513.857, 489.137 515.095 C 492.249 516.700, 495.825 517.473, 501.612 517.791 C 508.856 518.189, 510.379 517.942, 515.859 515.483 C 519.578 513.814, 523.607 510.981, 526.087 508.290 C 528.337 505.849, 531.141 501.747, 532.318 499.176 C 533.900 495.722, 534.459 492.541, 534.459 487 C 534.459 481.485, 533.898 478.277, 532.342 474.878 C 531.178 472.335, 528.516 468.363, 526.426 466.050 C 524.337 463.737, 520.348 460.678, 517.563 459.252 C 513.655 457.250, 510.675 456.580, 504.500 456.314 C 499.268 456.089, 495.184 456.459, 492.698 457.385 M 553.240 458.110 C 550.897 459.270, 547.972 461.632, 546.740 463.359 C 545.003 465.795, 544.500 467.881, 544.500 472.657 C 544.500 478.055, 544.883 479.288, 547.608 482.657 C 549.448 484.932, 553.875 488.184, 558.457 490.627 C 562.715 492.897, 567.099 495.654, 568.200 496.755 C 569.800 498.355, 569.986 499.158, 569.127 500.763 C 568.536 501.867, 566.990 503.037, 565.692 503.363 C 564.393 503.688, 561.908 503.547, 560.169 503.049 C 558.431 502.550, 555.640 501.168, 553.969 499.978 C 551.487 498.211, 550.654 498.042, 549.427 499.061 C 548.601 499.746, 546.499 502.108, 544.757 504.307 L 541.589 508.307 545.719 511.973 C 547.991 513.989, 551.623 516.170, 553.791 516.819 C 555.959 517.469, 560.282 518, 563.398 518 C 566.514 518, 570.731 517.304, 572.768 516.452 C 574.806 515.601, 577.534 513.914, 578.831 512.702 C 580.129 511.491, 581.822 509.285, 582.595 507.800 C 583.368 506.314, 584 502.805, 584 500 C 584 497.195, 583.365 493.686, 582.589 492.200 C 581.813 490.715, 579.901 488.309, 578.339 486.853 C 576.778 485.398, 571.788 482.355, 567.250 480.092 C 561.136 477.043, 559 475.472, 559 474.024 C 559 472.950, 559.917 471.580, 561.038 470.980 C 562.159 470.380, 564.071 470.191, 565.288 470.561 C 566.504 470.930, 568.932 472.305, 570.683 473.616 C 572.434 474.927, 574.051 476, 574.277 476 C 574.502 476, 576.611 473.718, 578.963 470.929 L 583.238 465.858 580.471 462.970 C 578.949 461.381, 575.750 459.163, 573.362 458.040 C 570.563 456.724, 566.976 456, 563.261 456.001 C 559.416 456.001, 556.083 456.703, 553.240 458.110 M 603.500 457.417 C 601.850 458.154, 599.291 460.049, 597.814 461.628 C 596.336 463.208, 594.649 465.767, 594.064 467.315 C 593.479 468.863, 593 471.524, 593 473.227 C 593 474.931, 594.111 478.221, 595.470 480.538 C 596.896 482.972, 599.959 486.017, 602.720 487.746 C 605.349 489.392, 609.853 491.989, 612.730 493.517 C 615.606 495.045, 618.222 497.125, 618.544 498.139 C 618.866 499.153, 618.831 500.464, 618.467 501.053 C 618.103 501.642, 616.660 502.559, 615.259 503.092 C 613.531 503.749, 611.553 503.684, 609.106 502.891 C 607.123 502.248, 604.237 500.836, 602.692 499.752 C 601.148 498.668, 599.762 497.943, 599.613 498.141 C 599.463 498.338, 597.396 500.649, 595.020 503.275 L 590.699 508.050 593.099 510.658 C 594.420 512.091, 597.750 514.326, 600.500 515.623 C 604.167 517.352, 607.233 517.977, 612 517.968 C 616.149 517.960, 619.962 517.292, 622.541 516.120 C 624.764 515.111, 627.790 512.850, 629.265 511.097 C 630.740 509.344, 632.428 506.123, 633.016 503.940 C 633.604 501.757, 633.803 498.468, 633.459 496.632 C 633.114 494.796, 632.073 492.135, 631.144 490.720 C 630.216 489.305, 628.262 487.207, 626.803 486.059 C 625.343 484.911, 621.303 482.575, 617.825 480.867 C 614.346 479.159, 610.712 477.071, 609.750 476.226 C 608.788 475.381, 608 474.101, 608 473.380 C 608 472.660, 608.932 471.572, 610.071 470.962 C 611.576 470.157, 612.999 470.152, 615.278 470.947 C 617.003 471.548, 619.454 473.017, 620.725 474.211 L 623.035 476.382 627.518 471.983 C 629.983 469.563, 632 467.091, 632 466.488 C 632 465.885, 630.538 463.977, 628.750 462.247 C 626.962 460.517, 623.827 458.404, 621.782 457.551 C 619.737 456.698, 615.462 456.018, 612.282 456.039 C 609.102 456.061, 605.150 456.681, 603.500 457.417 M 659.491 458.785 C 656.186 460.381, 651.958 463.422, 650.097 465.543 C 648.235 467.663, 645.766 471.446, 644.611 473.949 C 642.968 477.508, 642.511 480.461, 642.514 487.500 C 642.518 495.309, 642.869 497.162, 645.170 501.500 C 646.628 504.250, 649.324 507.914, 651.161 509.642 C 652.997 511.370, 656.525 513.814, 659 515.071 C 662.324 516.761, 665.757 517.473, 672.140 517.796 C 678.500 518.119, 682.106 517.793, 685.810 516.563 C 688.577 515.644, 692.902 513.078, 695.421 510.861 C 697.939 508.644, 699.985 506.306, 699.967 505.665 C 699.949 505.024, 697.320 503.321, 694.125 501.879 L 688.316 499.258 684.549 501.532 C 682.477 502.782, 678.919 504.069, 676.641 504.391 C 674.363 504.713, 670.738 504.562, 668.585 504.056 C 666.332 503.527, 663.296 501.727, 661.435 499.818 C 659.656 497.993, 657.901 495.488, 657.533 494.250 L 656.865 492 681.070 492 L 705.274 492 704.761 485.611 C 704.465 481.919, 703.208 476.958, 701.784 473.861 C 700.429 470.912, 698.160 467.129, 696.743 465.454 C 695.325 463.779, 691.766 461.098, 688.833 459.496 C 684.293 457.018, 682.161 456.532, 674.500 456.234 C 666.232 455.911, 665.011 456.119, 659.491 458.785 M 118 487 L 118 517 125.500 517 L 133 517 133 487 L 133 457 125.500 457 L 118 457 118 487 M 668.141 470.567 C 665.743 471.320, 663.156 472.456, 662.391 473.091 C 661.626 473.725, 661 475.480, 661 476.989 L 661 479.733 674.500 479.733 C 686.515 479.733, 688 479.547, 688 478.041 C 688 477.110, 686.975 475.385, 685.722 474.208 C 684.468 473.031, 681.487 471.377, 679.096 470.534 C 676.705 469.690, 674.243 469.044, 673.624 469.099 C 673.006 469.153, 670.538 469.814, 668.141 470.567 M 317.942 470.926 C 316.534 471.365, 314.437 472.231, 313.281 472.850 C 312.125 473.468, 310.164 475.617, 308.923 477.625 C 307.237 480.352, 306.667 482.794, 306.667 487.279 C 306.667 492.672, 306.945 493.485, 309.411 495.281 C 310.921 496.381, 312.551 498.320, 313.034 499.590 C 313.624 501.141, 315.240 502.257, 317.956 502.988 C 320.911 503.784, 323.138 503.771, 326.226 502.939 C 328.681 502.278, 331.764 500.409, 333.585 498.479 C 335.309 496.651, 337.007 493.714, 337.359 491.953 C 337.712 490.191, 338 487.442, 338 485.843 C 338 484.244, 337.373 481.435, 336.606 479.600 C 335.839 477.765, 333.702 475.128, 331.856 473.739 C 330.010 472.351, 326.700 470.970, 324.500 470.671 C 322.300 470.372, 319.349 470.487, 317.942 470.926 M 498.475 471.017 C 496.811 471.525, 493.907 473.532, 492.022 475.477 C 488.991 478.604, 488.547 479.752, 488.189 485.378 C 487.895 489.994, 488.254 492.734, 489.498 495.355 C 490.441 497.342, 492.837 499.972, 494.821 501.199 C 497.356 502.765, 499.994 503.429, 503.689 503.429 C 507.412 503.429, 509.742 502.837, 511.663 501.402 C 513.155 500.288, 515.304 498.134, 516.438 496.615 C 518.051 494.454, 518.500 492.362, 518.500 487 C 518.500 481.638, 518.051 479.546, 516.438 477.385 C 515.304 475.866, 513.279 473.821, 511.938 472.840 C 510.597 471.858, 507.700 470.839, 505.500 470.574 C 503.300 470.310, 500.139 470.509, 498.475 471.017" stroke="none" fill="#050505" fill-rule="evenodd"/></svg>